<!-- Generator: Adobe Illustrator 21.0.0, SVG Export Plug-In  -->
<svg version="1.1"
	 xmlns="http://www.w3.org/2000/svg" xmlns:xlink="http://www.w3.org/1999/xlink" xmlns:a="http://ns.adobe.com/AdobeSVGViewerExtensions/3.0/"
	 x="0px" y="0px" width="30.6px" height="30.6px" viewBox="0 0 30.6 30.6" style="enable-background:new 0 0 30.6 30.6;"
	 xml:space="preserve">
<style type="text/css">
	.st0{fill:none;stroke:#FFFFFF;stroke-width:2;stroke-miterlimit:10;}
	.st1{fill:#FFFFFF;}
</style>
<defs>
</defs>
<g>
	<circle class="st0" cx="15.3" cy="15.3" r="14.3"/>
	<g>
		<g>
			<path class="st1" d="M11.2,7.4c1-0.2,2.4-0.3,4.1-0.3c2.1,0,3.6,0.5,4.6,1.4c0.9,0.8,1.4,2,1.4,3.4c0,1.5-0.4,2.7-1.3,3.5
				c-1.1,1.2-2.9,1.8-5,1.8c-0.6,0-1.2,0-1.7-0.1v6.6h-2.1V7.4z M13.3,15.3c0.5,0.1,1,0.2,1.8,0.2c2.6,0,4.1-1.2,4.1-3.5
				c0-2.2-1.5-3.2-3.9-3.2c-0.9,0-1.6,0.1-2,0.2V15.3z"/>
		</g>
		<rect x="9.3" y="18.7" class="st1" width="9.7" height="1.9"/>
	</g>
</g>
</svg>
