<!-- Generator: Adobe Illustrator 21.0.0, SVG Export Plug-In  -->
<svg version="1.1"
	 xmlns="http://www.w3.org/2000/svg" xmlns:xlink="http://www.w3.org/1999/xlink" xmlns:a="http://ns.adobe.com/AdobeSVGViewerExtensions/3.0/"
	 x="0px" y="0px" width="144.7px" height="48.5px" viewBox="0 0 144.7 48.5" style="enable-background:new 0 0 144.7 48.5;"
	 xml:space="preserve">
<style type="text/css">
	.st0{fill:#FFFFFF;}
</style>
<defs>
</defs>
<g>
	<path class="st0" d="M4.2,5.7L0.4,4.8C1.2,1.6,3.6,0,7.5,0c2.3,0,4.1,0.5,5.2,1.5s1.8,2.2,1.8,3.6c0,0.9-0.3,1.8-0.8,2.6
		c-0.5,0.8-1.3,1.4-2.4,2c1.3,0.4,2.3,1.1,3,1.9c0.7,0.8,1,1.8,1,3c0,1.7-0.6,3.1-1.9,4.2c-1.3,1.1-3.2,1.6-5.7,1.6
		c-2.1,0-3.7-0.3-4.9-1s-2.1-2-2.7-3.9l3.7-1.2c0.4,1.2,0.9,2,1.5,2.3s1.4,0.5,2.3,0.5c1.3,0,2.2-0.3,2.7-0.8s0.9-1.2,0.9-1.9
		c0-0.8-0.3-1.5-1-2c-0.7-0.5-1.6-0.7-2.9-0.7H6.3v-3h0.5c1.2,0,2.2-0.3,2.8-0.8s1-1.3,1-2.2c0-0.7-0.3-1.3-0.8-1.8
		C9.2,3.5,8.4,3.2,7.4,3.2C5.8,3.2,4.7,4.1,4.2,5.7z"/>
	<path class="st0" d="M36.5,20.1h-4.3l-1.7-4.5h-7.9l-1.6,4.5h-4.2l7.7-19.8h4.2L36.5,20.1z M29.2,12.3l-2.7-7.3l-2.7,7.3H29.2z"/>
	<path class="st0" d="M38.7,0.3h4v8.4c0.9-0.1,1.5-0.3,1.8-0.7C44.8,7.7,45.3,6.7,46,5c0.8-2.1,1.7-3.5,2.5-4c0.8-0.5,2.2-0.8,4-0.8
		c0.1,0,0.3,0,0.6,0v3l-0.6,0c-0.8,0-1.4,0.1-1.8,0.3S50,4,49.8,4.4c-0.2,0.4-0.6,1.3-1,2.5c-0.2,0.7-0.5,1.3-0.8,1.7
		c-0.3,0.5-0.8,0.9-1.5,1.3c0.9,0.3,1.6,0.8,2.2,1.5c0.6,0.8,1.2,1.8,1.9,3.2l2.7,5.4h-4.7L46.2,15c0-0.1-0.1-0.2-0.2-0.4
		c0-0.1-0.2-0.4-0.5-0.9c-0.5-1-0.9-1.6-1.3-1.8c-0.3-0.2-0.8-0.4-1.5-0.4v8.7h-4V0.3z"/>
	<path class="st0" d="M73.3,20.1H69l-1.7-4.5h-7.9l-1.6,4.5h-4.2l7.7-19.8h4.2L73.3,20.1z M66,12.3l-2.7-7.3l-2.7,7.3H66z"/>
	<path class="st0" d="M78.2,5.7l-3.9-0.9C75.2,1.6,77.6,0,81.5,0c2.3,0,4.1,0.5,5.2,1.5s1.8,2.2,1.8,3.6c0,0.9-0.3,1.8-0.8,2.6
		c-0.5,0.8-1.3,1.4-2.4,2c1.3,0.4,2.3,1.1,3,1.9s1,1.8,1,3c0,1.7-0.6,3.1-1.9,4.2c-1.3,1.1-3.2,1.6-5.7,1.6c-2.1,0-3.7-0.3-4.9-1
		s-2.1-2-2.7-3.9l3.7-1.2c0.4,1.2,0.9,2,1.5,2.3s1.4,0.5,2.3,0.5c1.3,0,2.2-0.3,2.7-0.8c0.6-0.5,0.9-1.2,0.9-1.9c0-0.8-0.3-1.5-1-2
		s-1.6-0.7-2.9-0.7h-0.9v-3h0.5c1.2,0,2.2-0.3,2.8-0.8s1-1.3,1-2.2c0-0.7-0.3-1.3-0.8-1.8s-1.3-0.7-2.3-0.7
		C79.8,3.2,78.7,4.1,78.2,5.7z"/>
	<path class="st0" d="M110.5,20.1h-4.3l-1.7-4.5h-7.9l-1.6,4.5h-4.2l7.7-19.8h4.2L110.5,20.1z M103.2,12.3l-2.7-7.3l-2.7,7.3H103.2z
		"/>
	<path class="st0" d="M115.7,20.1V3.7h-5.9V0.3h15.7v3.3h-5.8v16.4H115.7z"/>
	<path class="st0" d="M128.2,0.3h4v7.9h5.3c2.5,0,4.3,0.6,5.5,1.8s1.7,2.6,1.7,4.2c0,1.3-0.3,2.5-1,3.4c-0.7,0.9-1.5,1.6-2.3,1.9
		s-2.1,0.5-3.8,0.5h-9.3V0.3z M132.2,16.8h3.9c1.3,0,2.1-0.1,2.6-0.2s0.9-0.4,1.3-0.8s0.6-1,0.6-1.6c0-0.9-0.3-1.6-1-2
		c-0.7-0.4-1.8-0.6-3.3-0.6h-4.1V16.8z"/>
</g>
<g>
	<path class="st0" d="M8.1,48.2V28.5h6.4c2.4,0,4,0.1,4.7,0.3c1.1,0.3,2.1,0.9,2.8,1.9c0.8,1,1.1,2.3,1.1,3.8c0,1.2-0.2,2.2-0.7,3.1
		s-1,1.5-1.7,1.9c-0.7,0.5-1.4,0.8-2.1,0.9c-1,0.2-2.3,0.3-4.1,0.3h-2.6v7.5H8.1z M12.1,31.8v5.6h2.2c1.6,0,2.6-0.1,3.2-0.3
		c0.5-0.2,0.9-0.5,1.2-1c0.3-0.4,0.5-1,0.5-1.5c0-0.7-0.2-1.3-0.6-1.8c-0.4-0.5-1-0.8-1.6-0.9c-0.5-0.1-1.4-0.1-2.9-0.1H12.1z"/>
	<path class="st0" d="M26.5,48.2V28.5h14.7v3.3H30.5v4.4h9.9v3.3h-9.9v5.4h11v3.3H26.5z"/>
	<path class="st0" d="M45,28.5h4v8.4c0.9-0.1,1.5-0.3,1.8-0.7s0.8-1.4,1.5-3.1c0.8-2.1,1.7-3.5,2.5-4c0.8-0.5,2.2-0.8,4-0.8
		c0.1,0,0.3,0,0.6,0v3l-0.6,0c-0.8,0-1.4,0.1-1.8,0.3c-0.4,0.2-0.7,0.5-0.9,0.9c-0.2,0.4-0.6,1.3-1,2.5c-0.2,0.7-0.5,1.3-0.8,1.7
		c-0.3,0.5-0.8,0.9-1.5,1.3c0.9,0.3,1.6,0.8,2.2,1.5c0.6,0.8,1.2,1.8,1.9,3.2l2.7,5.4h-4.7l-2.4-5.1c0-0.1-0.1-0.2-0.2-0.4
		c0-0.1-0.2-0.4-0.5-0.9c-0.5-1-0.9-1.6-1.3-1.8c-0.3-0.2-0.8-0.4-1.5-0.4v8.7h-4V28.5z"/>
	<path class="st0" d="M63.2,28.5h13.8v19.8h-4V31.8h-5.9v8.4c0,2.4-0.1,4.1-0.2,5.1c-0.2,1-0.6,1.7-1.2,2.2
		c-0.6,0.5-1.6,0.8-2.9,0.8c-0.5,0-1.3,0-2.5-0.1v-3.1l0.9,0c0.8,0,1.4-0.1,1.7-0.3c0.3-0.2,0.4-0.8,0.4-1.7l0-3.4V28.5z"/>
	<path class="st0" d="M99,48.2h-4.3l-1.7-4.5H85l-1.6,4.5h-4.2l7.7-19.8h4.2L99,48.2z M91.6,40.4l-2.7-7.3l-2.7,7.3H91.6z"/>
	<path class="st0" d="M101,48.2V28.5h6l3.6,13.5l3.5-13.5h6v19.8h-3.7V32.7l-3.9,15.6h-3.8l-3.9-15.6v15.6H101z"/>
	<path class="st0" d="M122.1,28.5h4.5l4.6,10.3l3.9-10.3h4.2l-6.7,15c-0.7,1.6-1.5,2.9-2.2,3.7c-0.8,0.8-1.7,1.3-2.9,1.3
		c-1.2,0-2.1-0.1-2.8-0.2v-3c0.6,0,1.1,0.1,1.5,0.1c0.9,0,1.6-0.2,2-0.5c0.4-0.3,0.8-1.1,1.2-2.2L122.1,28.5z"/>
</g>
</svg>
