<!-- Generator: Adobe Illustrator 21.0.2, SVG Export Plug-In  -->
<svg version="1.1"
	 xmlns="http://www.w3.org/2000/svg" xmlns:xlink="http://www.w3.org/1999/xlink" xmlns:a="http://ns.adobe.com/AdobeSVGViewerExtensions/3.0/"
	 x="0px" y="0px" width="227.3px" height="227.3px" viewBox="0 0 227.3 227.3" style="enable-background:new 0 0 227.3 227.3;"
	 xml:space="preserve">
<style type="text/css">
	.st0{fill:#FFFFFF;stroke:#5FA0A2;stroke-width:8;stroke-miterlimit:10;}
	.st1{fill:#5FA0A2;}
</style>
<defs>
</defs>
<g>
	<g>
		<g>
			<circle class="st0" cx="113.7" cy="113.7" r="109.7"/>
		</g>
		<g>
			<g>
				<path class="st1" d="M76.6,44.5c9.3-1.5,21.4-2.9,36.8-2.9c19,0,32.8,4.4,41.6,12.3c8.1,7,13,17.8,13,31c0,13.5-4,24-11.5,31.7
					c-10.1,10.8-26.7,16.3-45.4,16.3c-5.7,0-11-0.2-15.4-1.3v59.5H76.6V44.5z M95.8,116.1c4.2,1.1,9.5,1.5,15.9,1.5
					c23.1,0,37.2-11.2,37.2-31.7c0-19.6-13.9-29.1-35-29.1c-8.4,0-14.8,0.7-18.1,1.5V116.1z"/>
			</g>
			<rect x="59.3" y="147.4" class="st1" width="87.6" height="17.5"/>
		</g>
	</g>
</g>
</svg>
