<!-- Generator: Adobe Illustrator 21.0.2, SVG Export Plug-In  -->
<svg version="1.1"
	 xmlns="http://www.w3.org/2000/svg" xmlns:xlink="http://www.w3.org/1999/xlink" xmlns:a="http://ns.adobe.com/AdobeSVGViewerExtensions/3.0/"
	 x="0px" y="0px" width="984.8px" height="329.1px" viewBox="0 0 984.8 329.1" style="enable-background:new 0 0 984.8 329.1;"
	 xml:space="preserve">
<style type="text/css">
	.st0{opacity:0.1;}
	.st1{fill:#F7CE97;}
	.st2{fill:#FFE6B5;}
	.st3{fill:#FFFFFF;}
	.st4{fill:#149BA6;}
	.st5{fill:#1E1C1E;}
	.st6{fill:#B4D8E7;}
	.st7{fill:#A02D17;}
	.st8{fill:#223341;}
	.st9{fill:#17AFBC;}
	.st10{fill:#CC4F23;}
</style>
<defs>
</defs>
<g>
	<path class="st0" d="M984.8,149.8L949,19.2l-320.4,88.1v0l-13,3.6l1.2,4.3l-31.9,8.8l1.6,5.9l-21.4-2.3c-3.1-0.3-6.1-0.1-8.9,0.6
		c-2.3-1.1-4.7-1.9-7.1-2.5l0,0l-0.4-0.1l0.1-0.2l-18.6-6l-20.8-6.9l0,0.2l-20.2-6.5l0,0.2l-89.3,9.3l-31.8-8.6l1.2-4.3l-13-3.5v0
		L35.3,12.5L0,143.2l320.8,86.6l0,0l13,3.5l0,0h0l1.3-4.8l32,8.6l0.4-1.3l23.7-2l7.7,6.5c-0.9,4.6,0.2,9.6,3.4,13.5
		c4.6,5.6,12.1,7.4,18.5,5l3.6,3.1c-1.4,5-0.4,10.5,3.1,14.9c5,6.1,13.5,7.7,20.3,4.2l2.7,2.2c-2.1,5.4-1.4,11.7,2.5,16.5
		c5.3,6.5,14.5,7.9,21.4,3.6l2,1.7c-3,5.7-2.6,12.9,1.7,18.2c5.7,7,15.9,8,23,2.5c7,5.5,17.1,4.5,22.8-2.3c4.6-5.5,5-13.3,1.4-19.1
		c1.2-0.4,2.4-0.8,3.6-1.3c6.8,3.4,15.2,1.8,20.2-4.3c3.1-3.8,4.1-8.5,3.4-12.9l7-5.7c5.1,0.3,10.2-1.8,13.7-6
		c2-2.4,3.1-5.2,3.5-8.1l27.8-22.8c2.6-2.1,4.9-4.5,6.8-7.1l4.6,0.9l2.4,8.6l17.2-4.7h0l14.8-4.1l1.3,4.8h0l13-3.6v0L984.8,149.8z"
		/>
	<g>
		<g>
			<g>
				<path class="st1" d="M514.9,120c16.7-13.6,41.3-11.1,55,5.6l40.1,49.2c13.7,16.7,11.2,41.3-5.6,55l-65.9,54.1
					c-16.7,13.7-41.3,11.2-55-5.6L443.5,229c-13.6-16.7-11.2-41.3,5.6-55L514.9,120z"/>
			</g>
			<g>
				<path class="st1" d="M635.3,227.4l-80.1-15.9c-14.8-1.5-25.6-14.7-24.1-29.5l4.4-43.6c1.5-14.8,14.7-25.6,29.5-24.1l116,12.5
					L635.3,227.4z"/>
			</g>
		</g>
	</g>
	<g>
		<g>
			<g>
				<g>
					<g>
						<path class="st2" d="M473,108.7c-16.8-13.6-41.4-11-55,5.7L379.8,162c-13.6,16.8-11,41.4,5.7,55l55.2,46.7
							c16.8,13.6,41.4,11,55-5.7l38.3-47.6c13.6-16.8,11-41.4-5.7-55L473,108.7z"/>
					</g>
					<g>
						<path class="st2" d="M549.1,286.5c-5.7,7-16.1,8.1-23.1,2.4l-94-76.3c-7-5.7-8.1-16.1-2.4-23.1l0,0c5.7-7,16.1-8.1,23.1-2.4
							l94,76.3C553.7,269.1,554.8,279.5,549.1,286.5L549.1,286.5z"/>
					</g>
					<g>
						<path class="st2" d="M523.9,311.2c-5.8,7-16.2,7.9-23.2,2.1l-92.8-77.7c-7-5.8-7.9-16.2-2.1-23.2l0,0c5.8-7,16.2-7.9,23.2-2.1
							l92.8,77.6C528.8,293.9,529.7,304.2,523.9,311.2L523.9,311.2z"/>
					</g>
					<g>
						<path class="st2" d="M573.2,261.8c-5.7,7-16.1,8.1-23.1,2.4L456,188c-7-5.7-8.1-16.1-2.4-23.1l0,0c5.7-7,16.1-8.1,23.1-2.4
							l94,76.3C577.8,244.4,578.9,254.8,573.2,261.8L573.2,261.8z"/>
					</g>
					<g>
						<path class="st2" d="M596.7,236.4c-5.7,7.1-16.1,8.1-23.1,2.4l-94-76.2c-7-5.7-8.1-16.1-2.4-23.1l0,0
							c5.7-7.1,16.1-8.1,23.1-2.4l94,76.2C601.4,219,602.4,229.4,596.7,236.4L596.7,236.4z"/>
					</g>
					<g>
						<path class="st2" d="M367.1,223.8l84-7.2c15.9-1.7,27.5-15.9,25.8-31.8L472,138c-1.7-15.9-15.9-27.5-31.8-25.8l-84,7.2
							L367.1,223.8z"/>
					</g>
				</g>
			</g>
			<g>
				<g>
					<g>
						<g>
							<path class="st2" d="M509.3,100.2l3.2,45.3c1.4,15.7,15.2,27.3,30.9,25.9l9.5-0.8c0.4,0,0.8-0.1,1.2-0.2l-5.1-56.9
								L509.3,100.2z"/>
						</g>
					</g>
					<g>
						<polygon class="st2" points="534,144.1 480.6,132.3 489.1,94 548.7,113.2 						"/>
					</g>
					<g>
						<path class="st2" d="M357.6,107.9l131.9-13.8c1,3.1,1.8,6.3,2.1,9.6c3.4,32.3-28.3,62-70.8,66.4c-22.1,2.3-42.8-2.7-58.1-12.7
							L357.6,107.9z"/>
					</g>
				</g>
			</g>
		</g>
	</g>
	
		<rect x="291.6" y="126.5" transform="matrix(0.2607 -0.9654 0.9654 0.2607 111.0564 458.0015)" class="st3" width="126" height="60"/>
	
		<rect x="116.9" y="-62" transform="matrix(0.2607 -0.9654 0.9654 0.2607 29.4176 260.1648)" class="st4" width="135.4" height="345.8"/>
	
		<rect x="277.3" y="147.4" transform="matrix(0.2606 -0.9654 0.9654 0.2606 106.2093 447.0578)" class="st5" width="135.4" height="13.5"/>
	<path class="st6" d="M353,213.6c-3.2-0.9-5.1-4.2-4.2-7.4c0.9-3.2,4.2-5.1,7.4-4.2c3.2,0.9,5.1,4.2,4.3,7.4
		C359.5,212.6,356.2,214.5,353,213.6z"/>
	<g>
		<g>
			<g>
				<g>
					<path class="st1" d="M481.3,108.3l-5.9,45.9c-2.3,15.9-17.1,26.9-33,24.6l-9.6-1.4c-0.4-0.1-0.8-0.2-1.2-0.2l8.4-57.6
						L481.3,108.3z"/>
				</g>
			</g>
			<g>
				<polygon class="st1" points="453.7,151.5 508.6,142.6 502.2,103 440.4,119.2 				"/>
			</g>
			<g>
				<path class="st1" d="M635.3,124.7l-133.6-21.5c-1.2,3.1-2.1,6.3-2.7,9.7c-5.3,32.7,25.3,64.7,68.3,71.7
					c22.4,3.6,43.8-0.3,59.8-9.6L635.3,124.7z"/>
			</g>
		</g>
	</g>
	
		<rect x="600.4" y="100.4" transform="matrix(0.9642 -0.265 0.265 0.9642 -20.7721 172.9262)" class="st3" width="60" height="126"/>
	
		<rect x="627.3" y="49.4" transform="matrix(0.9642 -0.265 0.265 0.9642 -2.4047 216.2691)" class="st7" width="345.8" height="135.4"/>
	
		<rect x="633.2" y="93.4" transform="matrix(0.9642 -0.265 0.265 0.9642 -19.8075 175.3669)" class="st8" width="13.5" height="135.4"/>
	<path class="st6" d="M632,219.2c3.2-0.9,5.1-4.2,4.2-7.4c-0.9-3.2-4.2-5.1-7.4-4.2c-3.2,0.9-5.1,4.2-4.2,7.4
		C625.5,218.2,628.8,220,632,219.2z"/>
	<path class="st1" d="M478.1,313.6c5.7,7,16.1,8.1,23.1,2.3l19.6-16.2c7-5.7,8.1-16.1,2.3-23.1l0,0c-5.7-7-16.1-8.1-23.1-2.3
		l-19.5,16.2C473.4,296.2,472.4,306.6,478.1,313.6L478.1,313.6z"/>
	<path class="st1" d="M452.9,290.2c5.7,7,16.1,8.1,23.1,2.3l19.6-16.2c7-5.7,8.1-16.1,2.3-23.1l0,0c-5.7-7-16.1-8.1-23.1-2.3
		L455.3,267C448.2,272.8,447.2,283.1,452.9,290.2L452.9,290.2z"/>
	<path class="st1" d="M427.5,267.2c5.7,7,16.1,8.1,23.1,2.3l19.6-16.2c7-5.7,8.1-16.1,2.3-23.1l0,0c-5.7-7-16.1-8.1-23.1-2.3
		l-19.5,16.2C422.8,249.8,421.7,260.2,427.5,267.2L427.5,267.2z"/>
	<path class="st1" d="M402.3,244.3c5.7,7,16.1,8.1,23.1,2.3l19.6-16.2c7-5.7,8.1-16.1,2.3-23.1l0,0c-5.7-7-16.1-8.1-23.1-2.3
		l-19.5,16.2C397.6,226.9,396.6,237.3,402.3,244.3L402.3,244.3z"/>
	<polyline class="st9" points="35.4,0 356.4,87 340.8,143.7 20.8,54.1 	"/>
	<polygon class="st10" points="628.4,94 949.4,6 964.4,62.3 642.4,144.5 	"/>
	<circle class="st3" cx="662.4" cy="111" r="8"/>
	<circle class="st3" cx="695.4" cy="103" r="8"/>
</g>
</svg>
