<!-- Generator: Adobe Illustrator 21.0.2, SVG Export Plug-In  -->
<svg version="1.1"
	 xmlns="http://www.w3.org/2000/svg" xmlns:xlink="http://www.w3.org/1999/xlink" xmlns:a="http://ns.adobe.com/AdobeSVGViewerExtensions/3.0/"
	 x="0px" y="0px" width="55px" height="55px" viewBox="0 0 55 55" style="enable-background:new 0 0 55 55;" xml:space="preserve">
<style type="text/css">
	.st0{fill:none;stroke:#FFDE17;stroke-width:3;stroke-miterlimit:10;}
	.st1{fill:#FFDE17;}
</style>
<defs>
</defs>
<g>
	<g>
		<g>
			<circle class="st0" cx="27.5" cy="27.5" r="26"/>
		</g>
		<g>
			<g>
				<path class="st1" d="M18.7,11.1c2.2-0.4,5.1-0.7,8.7-0.7c4.5,0,7.8,1,9.9,2.9c1.9,1.7,3.1,4.2,3.1,7.4c0,3.2-0.9,5.7-2.7,7.5
					c-2.4,2.6-6.3,3.9-10.8,3.9c-1.4,0-2.6-0.1-3.7-0.3v14.1h-4.5V11.1z M23.3,28.1c1,0.3,2.2,0.4,3.8,0.4c5.5,0,8.8-2.7,8.8-7.5
					c0-4.6-3.3-6.9-8.3-6.9c-2,0-3.5,0.2-4.3,0.4V28.1z"/>
			</g>
			<rect x="14.6" y="35.5" class="st1" width="20.8" height="4.2"/>
		</g>
	</g>
</g>
</svg>
