<!-- Generator: Adobe Illustrator 21.0.2, SVG Export Plug-In  -->
<svg version="1.1"
	 xmlns="http://www.w3.org/2000/svg" xmlns:xlink="http://www.w3.org/1999/xlink" xmlns:a="http://ns.adobe.com/AdobeSVGViewerExtensions/3.0/"
	 x="0px" y="0px" width="32.1px" height="40.4px" viewBox="0 0 32.1 40.4" style="enable-background:new 0 0 32.1 40.4;"
	 xml:space="preserve">
<style type="text/css">
	.st0{fill:#FFFFFF;}
</style>
<defs>
</defs>
<g>
	<path class="st0" d="M28.4,24.5c-0.9-1.3-2.7-1.7-4-0.7l2.1-1.4c1.3-0.9,1.7-2.7,0.7-4c-0.9-1.3-2.7-1.6-4-0.8l1.2-0.8l0,0
		c1.3-0.9,1.7-2.7,0.7-4c-0.9-1.3-2.7-1.6-4-0.8l9.6-6.6c1.3-0.9,1.7-2.7,0.7-4c-0.9-1.3-2.7-1.7-4-0.7L8,14l1.3-6.8
		c0.3-1.6-0.7-3.1-2.3-3.4C5.3,3.5,3.8,4.6,3.5,6.1L0,25.1l10.5,15.2l17.2-11.8C28.9,27.7,29.3,25.9,28.4,24.5z"/>
</g>
</svg>
