<!-- Generator: Adobe Illustrator 21.0.2, SVG Export Plug-In  -->
<svg version="1.1"
	 xmlns="http://www.w3.org/2000/svg" xmlns:xlink="http://www.w3.org/1999/xlink" xmlns:a="http://ns.adobe.com/AdobeSVGViewerExtensions/3.0/"
	 x="0px" y="0px" width="130px" height="154.9px" viewBox="0 0 130 154.9" style="enable-background:new 0 0 130 154.9;"
	 xml:space="preserve">
<style type="text/css">
	.st0{fill:#F4D766;}
	.st1{fill:#EEC946;}
	.st2{fill:#FFFFFF;}
</style>
<defs>
</defs>
<g>
	<path class="st0" d="M65,0H18.9v3.6h2.7c11.7,21,9.5,18.5,17.2,43.5c8.7,28.3-1.5,38.1-1.2,42.3c0.3,4.2,18.1,8.1,18.1,8.1
		l-0.3,3.3h3.6c0,0-0.3,5.7-4.2,17.2l1.8,3.6c0,0,0,0.6-3.9,3c0,0,3.3,12.4-0.6,17.8H40v5.4h-8.7v6.9H65"/>
</g>
<g>
	<path class="st0" d="M36.8,68.3c-4.4,0-8.4-1.1-11.9-3.3C18.6,61.2,14.3,53.5,13,44.2C11.6,34,2,23.9,1.9,23.8l-1.9-2l1.4-2.4
		c2.3-4,8.4-5.6,19.2-5.1c7,0.3,13.4,1.4,13.6,1.5L33,23c-9.2-1.6-18.6-1.9-23-0.9c3.5,4.3,9,12.4,10.2,21.1
		c0.5,3.4,2.2,11.8,8.6,15.8c4.2,2.7,9.9,2.8,16.9,0.6l2.3,6.9C43.9,67.7,40.2,68.3,36.8,68.3z"/>
</g>
<g>
	<path class="st1" d="M65,0h46.1v3.6h-2.7c-11.7,21-9.5,18.5-17.2,43.5c-8.7,28.3,1.5,38.1,1.2,42.3c-0.3,4.2-18.1,8.1-18.1,8.1
		l0.3,3.3H71c0,0,0.3,5.7,4.2,17.2l-1.8,3.6c0,0,0,0.6,3.9,3c0,0-3.3,12.4,0.6,17.8H90v5.4h8.7v6.9H65"/>
</g>
<g>
	<path class="st1" d="M93.2,68.3c-3.4,0-7.1-0.7-11.1-2l2.3-6.9c6.9,2.3,12.6,2.1,16.9-0.6c6.3-3.9,8.1-12.3,8.6-15.8
		c1.2-8.7,6.7-16.7,10.2-21.1c-4.4-1-13.9-0.7-23.1,0.9l-1.2-7.1c8.4-1.5,28.4-4,32.9,3.6l1.4,2.4l-1.9,2
		c-0.1,0.1-9.7,10.1-11.1,20.3c-1.3,9.4-5.6,17-11.9,20.9C101.6,67.3,97.6,68.3,93.2,68.3z"/>
</g>
<polygon class="st2" points="65,26.8 71.5,37.8 83.9,40.6 75.5,50.1 76.7,62.8 65,57.7 53.3,62.8 54.5,50.1 46.1,40.6 58.5,37.8 "/>
<g>
	<path class="st0" d="M63.7,38.1h3v15.4h-3.5v-9.8h-2.4V41h0.6c0.7,0,1.3-0.2,1.7-0.6c0.4-0.4,0.6-1,0.6-1.8V38.1z"/>
</g>
</svg>
