<!-- Generator: Adobe Illustrator 21.0.2, SVG Export Plug-In  -->
<svg version="1.1"
	 xmlns="http://www.w3.org/2000/svg" xmlns:xlink="http://www.w3.org/1999/xlink" xmlns:a="http://ns.adobe.com/AdobeSVGViewerExtensions/3.0/"
	 x="0px" y="0px" width="111.4px" height="20.7px" viewBox="0 0 111.4 20.7" style="enable-background:new 0 0 111.4 20.7;"
	 xml:space="preserve">
<style type="text/css">
	.st0{fill:#FFFFFF;}
</style>
<defs>
</defs>
<g>
	<path class="st0" d="M0,10.5c0-2,0.3-3.8,0.9-5.1c0.5-1,1.1-1.9,1.9-2.7c0.8-0.8,1.7-1.4,2.6-1.8C6.6,0.3,8.1,0,9.7,0
		c3,0,5.3,0.9,7.1,2.7c1.8,1.8,2.7,4.4,2.7,7.6c0,3.2-0.9,5.8-2.6,7.6c-1.8,1.8-4.1,2.7-7.1,2.7c-3,0-5.4-0.9-7.1-2.7
		C0.9,16.2,0,13.7,0,10.5z M4.2,10.3c0,2.3,0.5,4,1.6,5.2c1,1.2,2.4,1.8,4,1.8s2.9-0.6,4-1.7c1-1.2,1.6-2.9,1.6-5.2
		c0-2.3-0.5-4-1.5-5.1c-1-1.1-2.3-1.7-4-1.7s-3,0.6-4,1.7C4.7,6.3,4.2,8,4.2,10.3z"/>
	<path class="st0" d="M20.8,5.9H34V9h-4.6v11.4h-3.8V9h-4.6V5.9z"/>
	<path class="st0" d="M40.2,14.4v-2.5c0.7,0,1.1,0,1.4-0.1c0.3-0.1,0.6-0.3,0.9-0.6c0.3-0.3,0.4-0.7,0.4-1.1c0-0.5-0.2-0.9-0.5-1.3
		c-0.3-0.4-0.8-0.6-1.5-0.6c-0.5,0-1,0.1-1.4,0.3c-0.4,0.2-0.8,0.7-1.1,1.6l-3.3-0.7c0.3-1.3,1-2.2,2.1-2.9c1.1-0.6,2.3-1,3.7-1
		c1.8,0,3.1,0.4,4.1,1.2c1,0.8,1.4,1.8,1.4,3c0,0.8-0.2,1.4-0.6,1.9c-0.4,0.5-1.1,1-2,1.4c1.1,0.3,1.9,0.7,2.4,1.3
		c0.5,0.6,0.8,1.3,0.8,2.2c0,1.1-0.5,2.1-1.6,2.9c-1.1,0.8-2.6,1.2-4.6,1.2c-3.5,0-5.6-1.4-6.4-4.1l3.5-0.6c0.6,1.4,1.5,2.1,2.8,2.1
		c0.7,0,1.3-0.2,1.7-0.6c0.4-0.4,0.6-0.8,0.6-1.3c0-0.6-0.2-1-0.7-1.3c-0.5-0.3-1-0.5-1.8-0.5H40.2z"/>
	<path class="st0" d="M50.2,5.9h3.8v6h3.9c1.5,0,2.7,0.1,3.5,0.3c0.8,0.2,1.5,0.7,2,1.4c0.6,0.7,0.8,1.6,0.8,2.5
		c0,1.4-0.5,2.5-1.4,3.2c-1,0.7-2.4,1.1-4.3,1.1h-8.2V5.9z M54.1,18h3.6c0.9,0,1.6-0.1,2-0.4c0.4-0.3,0.6-0.8,0.6-1.4
		c0-0.7-0.3-1.2-0.8-1.4c-0.5-0.3-1.5-0.4-2.9-0.4h-2.5V18z M66.4,5.9h3.8v14.5h-3.8V5.9z"/>
	<path class="st0" d="M74.2,5.9h8.4c1.7,0,3,0.3,3.9,0.9c0.9,0.6,1.3,1.6,1.3,2.8c0,0.8-0.2,1.5-0.7,2.1s-1.1,1-1.8,1.2
		c1,0.2,1.8,0.7,2.2,1.4c0.5,0.7,0.7,1.4,0.7,2.2c0,1.1-0.4,2-1.2,2.8c-0.8,0.7-2.1,1.1-3.7,1.1h-9.1V5.9z M78,11.9h2.5
		c1.2,0,2.1-0.2,2.6-0.5s0.8-0.8,0.8-1.4c0-0.6-0.2-1-0.7-1.3s-1.4-0.4-2.6-0.4H78V11.9z M78,17.9h3c1.1,0,1.9-0.1,2.4-0.4
		c0.5-0.3,0.8-0.7,0.8-1.4c0-0.7-0.3-1.2-0.9-1.5c-0.6-0.3-1.7-0.4-3.3-0.4h-2V17.9z"/>
	<path class="st0" d="M91.4,5.9h3.8v6h3.9c1.5,0,2.7,0.1,3.5,0.3c0.8,0.2,1.5,0.7,2,1.4c0.6,0.7,0.8,1.6,0.8,2.5
		c0,1.4-0.5,2.5-1.4,3.2c-1,0.7-2.4,1.1-4.3,1.1h-8.2V5.9z M95.2,18h3.6c0.9,0,1.6-0.1,2-0.4c0.4-0.3,0.6-0.8,0.6-1.4
		c0-0.7-0.3-1.2-0.8-1.4s-1.5-0.4-2.9-0.4h-2.5V18z M107.6,5.9h3.8v14.5h-3.8V5.9z"/>
</g>
</svg>
