<!-- Generator: Adobe Illustrator 21.0.2, SVG Export Plug-In  -->
<svg version="1.1"
	 xmlns="http://www.w3.org/2000/svg" xmlns:xlink="http://www.w3.org/1999/xlink" xmlns:a="http://ns.adobe.com/AdobeSVGViewerExtensions/3.0/"
	 x="0px" y="0px" width="186.4px" height="33px" viewBox="0 0 186.4 33" style="enable-background:new 0 0 186.4 33;"
	 xml:space="preserve">
<style type="text/css">
	.st0{fill:none;stroke:#E6E6E6;stroke-width:2;stroke-miterlimit:10;}
</style>
<defs>
</defs>
<polygon class="st0" points="17.7,2.2 22.5,11.8 33.3,13.3 25.5,20.7 27.3,31.2 17.7,26.3 8.1,31.2 10,20.7 2.2,13.3 12.9,11.8 "/>
<polygon class="st0" points="55.7,2.2 60.5,11.8 71.3,13.3 63.5,20.7 65.3,31.2 55.7,26.3 46.1,31.2 48,20.7 40.2,13.3 50.9,11.8 
	"/>
<polygon class="st0" points="92.7,2.2 97.5,11.8 108.3,13.3 100.5,20.7 102.3,31.2 92.7,26.3 83.1,31.2 85,20.7 77.2,13.3 
	87.9,11.8 "/>
<polygon class="st0" points="168.7,2.2 173.5,11.8 184.3,13.3 176.5,20.7 178.3,31.2 168.7,26.3 159.1,31.2 161,20.7 153.2,13.3 
	163.9,11.8 "/>
<polygon class="st0" points="130.7,2.2 135.5,11.8 146.3,13.3 138.5,20.7 140.3,31.2 130.7,26.3 121.1,31.2 123,20.7 115.2,13.3 
	125.9,11.8 "/>
</svg>
