<!-- Generator: Adobe Illustrator 21.0.0, SVG Export Plug-In  -->
<svg version="1.1"
	 xmlns="http://www.w3.org/2000/svg" xmlns:xlink="http://www.w3.org/1999/xlink" xmlns:a="http://ns.adobe.com/AdobeSVGViewerExtensions/3.0/"
	 x="0px" y="0px" width="63.2px" height="56.9px" viewBox="0 0 63.2 56.9" style="enable-background:new 0 0 63.2 56.9;"
	 xml:space="preserve">
<style type="text/css">
	.st0{fill:url(#SVGID_1_);}
	.st1{fill:url(#SVGID_2_);}
	.st2{fill:url(#SVGID_3_);}
	.st3{fill:url(#SVGID_4_);}
</style>
<defs>
</defs>
<g>
	<linearGradient id="SVGID_1_" gradientUnits="userSpaceOnUse" x1="17.2061" y1="53.146" x2="46.0728" y2="53.146">
		<stop  offset="0" style="stop-color:#5594FF"/>
		<stop  offset="1" style="stop-color:#00516A"/>
	</linearGradient>
	<polygon class="st0" points="46.1,56.9 46.1,56.9 17.2,56.9 24.5,49.4 38.8,49.4 	"/>
	<linearGradient id="SVGID_2_" gradientUnits="userSpaceOnUse" x1="0" y1="23.8001" x2="63.1831" y2="23.8001">
		<stop  offset="0" style="stop-color:#5594FF"/>
		<stop  offset="1" style="stop-color:#00516A"/>
	</linearGradient>
	<path class="st1" d="M58.4,41L58.4,41H4.8V5.4h53.6V41z M59.4,0H3.8C1.7,0,0,1.7,0,3.8v40c0,2.1,1.7,3.8,3.8,3.8h55.5
		c2.1,0,3.8-1.7,3.8-3.8v-40C63.2,1.7,61.5,0,59.4,0L59.4,0z"/>
</g>
</svg>
