<!-- Generator: Adobe Illustrator 21.0.0, SVG Export Plug-In  -->
<svg version="1.1"
	 xmlns="http://www.w3.org/2000/svg" xmlns:xlink="http://www.w3.org/1999/xlink" xmlns:a="http://ns.adobe.com/AdobeSVGViewerExtensions/3.0/"
	 x="0px" y="0px" width="15.4px" height="15.4px" viewBox="0 0 15.4 15.4" style="enable-background:new 0 0 15.4 15.4;"
	 xml:space="preserve">
<style type="text/css">
	.st0{fill:url(#SVGID_1_);}
	.st1{fill:url(#SVGID_2_);}
</style>
<defs>
</defs>
<g>
	<linearGradient id="SVGID_1_" gradientUnits="userSpaceOnUse" x1="0" y1="7.7201" x2="15.4476" y2="7.7201">
		<stop  offset="0" style="stop-color:#5594FF"/>
		<stop  offset="1" style="stop-color:#00516A"/>
	</linearGradient>
	<path class="st0" d="M11.3,13c0.4-0.3,0.7-0.5,1-0.9c0.3-0.3,0.6-0.7,0.8-1.1l0.2,0l1.2,0.3l0.3-1.2l0.3-1.2l0.3-1.2l-1.2-0.3
		l-0.2,0c0-0.4-0.2-1-0.3-1.4C13.5,5.4,13.3,5,13,4.5l0.1-0.1l1-1.1l-0.7-0.7l-0.9-0.9l-1.2-1.1l-1,1.1l-0.1,0.1
		C9.9,1.7,9.5,1.6,9,1.5C8.6,1.4,8.2,1.4,7.8,1.4l0-0.2L7.4,0L6.2,0.4L5,0.7L3.8,1.1l0.4,1.2l0.1,0.2c-0.4,0.3-0.7,0.5-1,0.9
		S2.6,4.1,2.3,4.5l-0.2,0L0.9,4.1L0.6,5.4L0.3,6.6L0,7.8l1.2,0.3l0.2,0c0,0.4,0,0.8,0.1,1.2c0.1,0.4,0.3,0.9,0.4,1.2l-0.1,0.1
		L1,11.6l1.2,1.1l0.9,0.9l0.7,0.7l0.8-0.9l0.1-0.1c0.5,0.3,1,0.5,1.4,0.6C6.6,13.9,7.1,14,7.6,14l0.1,0.2L8,15.4l1.2-0.4l1.2-0.4
		l1.2-0.4l-0.4-1.2L11.3,13z M5.2,10.4C3.8,9,3.7,6.7,5.1,5.3c1.4-1.4,3.7-1.5,5.1-0.1s1.5,3.7,0.1,5.1C9,11.7,6.7,11.7,5.2,10.4z"
		/>
</g>
</svg>
