<!-- Generator: Adobe Illustrator 21.0.2, SVG Export Plug-In  -->
<svg version="1.1"
	 xmlns="http://www.w3.org/2000/svg" xmlns:xlink="http://www.w3.org/1999/xlink" xmlns:a="http://ns.adobe.com/AdobeSVGViewerExtensions/3.0/"
	 x="0px" y="0px" width="167.5px" height="252.8px" viewBox="0 0 167.5 252.8" style="enable-background:new 0 0 167.5 252.8;"
	 xml:space="preserve">
<style type="text/css">
	.st0{fill-rule:evenodd;clip-rule:evenodd;fill:#FFD7B7;}
	.st1{fill-rule:evenodd;clip-rule:evenodd;fill:#FFFFFF;}
	.st2{fill-rule:evenodd;clip-rule:evenodd;fill:#CCCCCC;}
	.st3{fill-rule:evenodd;clip-rule:evenodd;fill:#FAA0BF;}
	.st4{fill-rule:evenodd;clip-rule:evenodd;fill:#D4B194;}
	.st5{fill-rule:evenodd;clip-rule:evenodd;fill:#83A14A;}
	.st6{fill-rule:evenodd;clip-rule:evenodd;fill:#6A8733;}
</style>
<defs>
</defs>
<g>
	<g>
		<path class="st0" d="M62.3,105.1c-11.6,4.6-17.2,17.7-12.7,29.2c4.6,11.6,17.7,17.2,29.2,12.7c11.6-4.6,20.4-23.2,15.8-34.8
			C90,100.7,73.8,100.5,62.3,105.1z"/>
		<g>
			
				<rect x="55.7" y="23.5" transform="matrix(0.1536 -0.9881 0.9881 0.1536 32.8237 170.6797)" class="st1" width="120.7" height="85.3"/>
			
				<rect x="122.1" y="-0.3" transform="matrix(0.1536 -0.9881 0.9881 0.1536 84.1092 138.945)" class="st2" width="2.1" height="41.4"/>
			
				<rect x="121.3" y="-9.2" transform="matrix(0.1536 -0.9881 0.9881 0.1536 78.2332 142.5811)" class="st2" width="2.1" height="69.7"/>
			
				<rect x="120.7" y="-5.5" transform="matrix(0.1536 -0.9881 0.9881 0.1536 74.1204 145.1268)" class="st2" width="2.1" height="69.7"/>
			
				<rect x="120.1" y="-1.9" transform="matrix(0.1536 -0.9881 0.9881 0.1536 70.0068 147.672)" class="st2" width="2.1" height="69.7"/>
			
				<rect x="119.6" y="1.8" transform="matrix(0.1536 -0.9881 0.9881 0.1536 65.8928 150.217)" class="st2" width="2.1" height="69.7"/>
			
				<rect x="119" y="5.5" transform="matrix(0.1536 -0.9881 0.9881 0.1536 61.7796 152.7623)" class="st2" width="2.1" height="69.7"/>
			
				<rect x="118.4" y="9.2" transform="matrix(0.1536 -0.9881 0.9881 0.1536 57.666 155.3073)" class="st2" width="2.1" height="69.7"/>
			
				<rect x="117.9" y="12.8" transform="matrix(0.1536 -0.9881 0.9881 0.1536 53.5526 157.8527)" class="st2" width="2.1" height="69.7"/>
			
				<rect x="117.3" y="16.5" transform="matrix(0.1536 -0.9881 0.9881 0.1536 49.4397 160.3982)" class="st2" width="2.1" height="69.7"/>
			
				<rect x="99.5" y="34.9" transform="matrix(0.1536 -0.9881 0.9881 0.1536 33.4021 143.6726)" class="st2" width="2.1" height="34.8"/>
		</g>
	</g>
	<g>
		<polygon class="st0" points="57.5,124.6 38.4,170.2 45.3,193.4 63.6,184.3 82.8,138.2 		"/>
		<polygon class="st3" points="45.7,146.2 35.9,169.6 45.3,193.4 65.1,185.6 76.3,159 		"/>
		<path class="st4" d="M57.2,121.3c-4.4,3.6-4.2,10.4,0.3,15.1c4.6,4.7,11.8,5.5,16.2,1.9c4.4-3.6,4.2-10.4-0.3-15.1
			C68.8,118.5,61.6,117.7,57.2,121.3z"/>
		<path class="st4" d="M63.8,84c0.7,1.8,0.8,1.7,0.1,3.3l-13.4,32c-1.2,2.9-0.7,8.3,2.3,9.5l0,0c2.9,1.2,6.3-0.1,7.5-3.1l11.9-28.4
			C74.1,92.6,68.7,85.6,63.8,84z"/>
		<path class="st0" d="M63.8,84l-14.5,34.7c-1.2,2.9-0.7,8.3,2.3,9.5l0,0c2.9,1.2,6.3-0.1,7.5-3.1l11.4-27.2
			C73.7,89.9,66.2,84.7,63.8,84z"/>
		<path class="st0" d="M54,121.3c-4.2,3.7-3.4,10.9,1.7,15.9c5.1,5,12.7,6.1,16.9,2.4c4.2-3.7,3.4-10.9-1.7-15.9
			C65.8,118.6,58.2,117.6,54,121.3z"/>
		<polygon class="st5" points="40.7,155.4 0,252.8 38.7,252.8 73.7,169.2 		"/>
		<polygon class="st6" points="57.2,162.3 19.4,252.8 38.7,252.8 73.7,169.2 		"/>
	</g>
</g>
</svg>
