<!-- Generator: Adobe Illustrator 21.0.2, SVG Export Plug-In  -->
<svg version="1.1"
	 xmlns="http://www.w3.org/2000/svg" xmlns:xlink="http://www.w3.org/1999/xlink" xmlns:a="http://ns.adobe.com/AdobeSVGViewerExtensions/3.0/"
	 x="0px" y="0px" width="146.8px" height="159.5px" viewBox="0 0 146.8 159.5" style="enable-background:new 0 0 146.8 159.5;"
	 xml:space="preserve">
<style type="text/css">
	.st0{fill-rule:evenodd;clip-rule:evenodd;fill:#EF4136;}
	.st1{fill-rule:evenodd;clip-rule:evenodd;fill:#FCD8D6;}
	.st2{fill-rule:evenodd;clip-rule:evenodd;fill:#F9B3AF;}
	.st3{fill-rule:evenodd;clip-rule:evenodd;fill:#F48C85;}
	.st4{fill-rule:evenodd;clip-rule:evenodd;fill:#F2675D;}
	.st5{fill-rule:evenodd;clip-rule:evenodd;fill:#CCCCCC;}
	.st6{fill-rule:evenodd;clip-rule:evenodd;fill:#FFAE00;}
	.st7{fill-rule:evenodd;clip-rule:evenodd;fill:#F7837B;}
	.st8{fill-rule:evenodd;clip-rule:evenodd;fill:#FFCDA1;}
	.st9{fill-rule:evenodd;clip-rule:evenodd;fill:#596273;}
	.st10{fill-rule:evenodd;clip-rule:evenodd;fill:#6DB4C2;}
	.st11{fill-rule:evenodd;clip-rule:evenodd;fill:#E7D1A7;}
	.st12{fill-rule:evenodd;clip-rule:evenodd;fill:#FFD7B7;}
	.st13{fill-rule:evenodd;clip-rule:evenodd;fill:#FFFFFF;}
	.st14{fill-rule:evenodd;clip-rule:evenodd;fill:#FCA71F;}
	.st15{fill-rule:evenodd;clip-rule:evenodd;fill:#FCC977;}
	.st16{fill-rule:evenodd;clip-rule:evenodd;fill:#D4B194;}
</style>
<defs>
</defs>
<g>
	<g>
		<g>
			<ellipse transform="matrix(0.1536 -0.9881 0.9881 0.1536 -136.4093 134.2279)" class="st0" cx="10.1" cy="146.7" rx="9" ry="9"/>
			<path class="st1" d="M4.1,153.4c-1.1-1-2-2.4-2.5-3.9l8.6-2.8L4.1,153.4z"/>
			<path class="st2" d="M1.6,149.6c-0.4-1.3-0.6-2.8-0.3-4.2c0.4-2.9,2.2-5.2,4.5-6.5l4.4,7.9L1.6,149.6z"/>
			<path class="st3" d="M5.7,138.9c1.7-1,3.7-1.4,5.8-1l-1.4,8.9L5.7,138.9z"/>
			<path class="st4" d="M11.5,137.8l-1.4,8.9l7.3-5.3C16.1,139.6,14,138.2,11.5,137.8z"/>
		</g>
		<g>
			
				<rect x="1.4" y="154.8" transform="matrix(0.1536 -0.9881 0.9881 0.1536 -153.2089 134.5202)" class="st5" width="1.1" height="3.7"/>
			
				<rect x="10.4" y="152.6" transform="matrix(0.1536 -0.9881 0.9881 0.1536 -146.9749 144.5968)" class="st5" width="1.1" height="11"/>
		</g>
		<g>
			
				<rect x="3.9" y="101.4" transform="matrix(0.1536 -0.9881 0.9881 0.1536 -97.3129 92.3751)" class="st6" width="2.8" height="3.1"/>
			
				<rect x="3.2" y="106" transform="matrix(0.1536 -0.9881 0.9881 0.1536 -102.3918 95.5168)" class="st7" width="2.8" height="3.1"/>
			
				<rect x="2.5" y="110.5" transform="matrix(0.1536 -0.9881 0.9881 0.1536 -107.4708 98.6605)" class="st8" width="2.8" height="3.1"/>
			
				<rect x="1.8" y="115" transform="matrix(0.1536 -0.9881 0.9881 0.1536 -112.5498 101.8044)" class="st9" width="2.8" height="3.1"/>
			
				<rect x="1.1" y="119.6" transform="matrix(0.1536 -0.9881 0.9881 0.1536 -117.6288 104.9462)" class="st10" width="2.8" height="3.1"/>
			
				<rect x="10.2" y="102.1" transform="matrix(0.1536 -0.9881 0.9881 0.1536 -92.9418 99.4359)" class="st5" width="2.8" height="3.8"/>
			
				<rect x="11.9" y="104.5" transform="matrix(0.1536 -0.9881 0.9881 0.1536 -96.3457 105.2841)" class="st5" width="2.8" height="8.7"/>
			
				<rect x="12.7" y="107.8" transform="matrix(0.1536 -0.9881 0.9881 0.1536 -100.409 110.0698)" class="st5" width="2.8" height="11.7"/>
			
				<rect x="18.2" y="100.4" transform="matrix(0.1536 -0.9881 0.9881 0.1536 -87.3634 108.4513)" class="st5" width="2.8" height="9.7"/>
			
				<rect x="18.6" y="108.6" transform="matrix(0.1537 -0.9881 0.9881 0.1537 -91.6774 112.8211)" class="st5" width="2.8" height="2.7"/>
			
				<rect x="24.3" y="107.4" transform="matrix(0.1536 -0.9881 0.9881 0.1536 -87.7586 119.1615)" class="st5" width="2.8" height="6.7"/>
			
				<rect x="24.3" y="118.2" transform="matrix(0.1536 -0.9881 0.9881 0.1536 -96.911 127.074)" class="st5" width="2.8" height="3.8"/>
			
				<rect x="16.3" y="114" transform="matrix(0.1536 -0.9881 0.9881 0.1536 -102.4894 118.0622)" class="st5" width="2.8" height="9.7"/>
			
				<rect x="8.1" y="115.7" transform="matrix(0.1536 -0.9881 0.9881 0.1536 -108.1783 108.8635)" class="st5" width="2.8" height="3.8"/>
			
				<rect x="14.5" y="121.9" transform="matrix(0.1536 -0.9881 0.9881 0.1536 -108.3333 119.9689)" class="st5" width="2.8" height="2.7"/>
			
				<rect x="8.8" y="119" transform="matrix(0.1536 -0.9881 0.9881 0.1536 -112.2519 113.6272)" class="st5" width="2.8" height="6.7"/>
		</g>
	</g>
	<g>
		<g>
			<polygon class="st11" points="74.6,81.2 110,62.5 119,33.3 108.5,30.8 64.4,54.1 			"/>
			<polygon class="st12" points="68.4,52.7 110.7,26.5 120.2,27.8 110.4,60.6 85.7,75.9 			"/>
			<polygon class="st13" points="79,43 105.3,27.1 120.2,29.2 109.8,63.3 96.5,71.4 			"/>
			<polygon class="st14" points="89.7,35.2 131.8,9.4 146.8,9.4 146.8,41 108,64.9 			"/>
			<polygon class="st15" points="89.7,35.2 146.8,0 146.8,20.9 99,50.3 			"/>
		</g>
		<g>
			<path class="st16" d="M51,116.1l22.8-20.3c2.3-2.1,9.1-12.2,7.2-14.7c-1.9-2.5-10.1,2.2-12.3,4.4l-16.9,16.3
				C44.8,108.6,48.7,113.6,51,116.1z"/>
			<path class="st12" d="M16.4,111.9l24.1-14c-4.7-0.4-6.2-7.3-2.1-10.3c-4.9,0.3-6.8-6.1-3.7-9.6c-4.5-0.5-5.8-7.5-1.3-10.1
				l20.4-12c5.7-3.4,14.9-4.6,19.3-3.8c12.9,2.2,15.2,18.7,12,24.9c-2.5,4.9-3.7,8.6-6.8,10.5l-56.5,34
				C14.8,125.9,10.5,115.3,16.4,111.9z"/>
			<path class="st16" d="M41.7,73.6c0,0-4.1,2.3-7.7,4.3c0.2,0.1,0.5,0.1,0.8,0.1c-0.3,0.3-0.5,0.6-0.7,1
				C37.5,76.6,41.7,73.6,41.7,73.6L41.7,73.6z M40.4,97.9c-0.4,0-0.8-0.1-1.2-0.3c4.1-2.3,11.1-6,11.1-6s-6.9,4.5-9.8,6.3
				C40.6,97.9,40.5,97.9,40.4,97.9L40.4,97.9z M37,89.1c0.4-0.6,0.8-1.1,1.4-1.5c-0.3,0-0.6,0-0.9,0c4-2.3,9-5.1,9-5.1
				S40.7,86.6,37,89.1z"/>
		</g>
	</g>
</g>
</svg>
