<!-- Generator: Adobe Illustrator 21.0.2, SVG Export Plug-In  -->
<svg version="1.1"
	 xmlns="http://www.w3.org/2000/svg" xmlns:xlink="http://www.w3.org/1999/xlink" xmlns:a="http://ns.adobe.com/AdobeSVGViewerExtensions/3.0/"
	 x="0px" y="0px" width="155.7px" height="126.1px" viewBox="0 0 155.7 126.1" style="enable-background:new 0 0 155.7 126.1;"
	 xml:space="preserve">
<style type="text/css">
	.st0{fill:#CCCCCC;}
	.st1{fill:#6DB4C2;}
	.st2{fill-rule:evenodd;clip-rule:evenodd;fill:#CCCCCC;}
	.st3{fill-rule:evenodd;clip-rule:evenodd;fill:#E7D1A7;}
	.st4{fill-rule:evenodd;clip-rule:evenodd;fill:#FFD7B7;}
	.st5{fill-rule:evenodd;clip-rule:evenodd;fill:#FFFFFF;}
	.st6{fill-rule:evenodd;clip-rule:evenodd;fill:#999999;}
	.st7{fill-rule:evenodd;clip-rule:evenodd;fill:#D4B194;}
	.st8{fill-rule:evenodd;clip-rule:evenodd;fill:#4C8EB4;}
	.st9{fill-rule:evenodd;clip-rule:evenodd;fill:#609DC1;}
	.st10{fill-rule:evenodd;clip-rule:evenodd;fill:#73ACCD;}
	.st11{fill-rule:evenodd;clip-rule:evenodd;fill:#87BBDA;}
	.st12{fill-rule:evenodd;clip-rule:evenodd;fill:#9ACAE6;}
</style>
<defs>
</defs>
<g>
	<g>
		
			<rect x="131.2" y="73.2" transform="matrix(0.1536 -0.9881 0.9881 0.1536 18.4649 209.3434)" class="st0" width="0.6" height="41.4"/>
		
			<rect x="99.9" y="77.5" transform="matrix(0.1536 -0.9881 0.9881 0.1536 18.8408 177.4757)" class="st0" width="26.3" height="0.6"/>
		
			<rect x="107.7" y="78.7" transform="matrix(0.1536 -0.9881 0.9881 0.1536 24.2392 186.2009)" class="st0" width="26.3" height="0.6"/>
		
			<rect x="115.5" y="79.9" transform="matrix(0.1536 -0.9881 0.9881 0.1536 29.6386 194.927)" class="st0" width="26.3" height="0.6"/>
		
			<rect x="123.3" y="81.1" transform="matrix(0.1536 -0.9881 0.9881 0.1536 35.0377 203.6524)" class="st0" width="26.3" height="0.6"/>
		
			<rect x="131.2" y="82.3" transform="matrix(0.1656 -0.9862 0.9862 0.1656 38.9688 211.2934)" class="st0" width="26.3" height="0.6"/>
		
			<rect x="138.8" y="83.5" transform="matrix(0.1536 -0.9881 0.9881 0.1536 45.8364 221.1047)" class="st0" width="26.3" height="0.6"/>
		
			<rect x="132.1" y="67.1" transform="matrix(0.1536 -0.9881 0.9881 0.1536 25.2852 205.125)" class="st0" width="0.6" height="41.4"/>
		<polygon class="st0" points="112.9,78.3 153.7,84.9 153.7,85.5 112.8,78.8 		"/>
		
			<rect x="134" y="54.9" transform="matrix(0.1536 -0.9881 0.9881 0.1536 38.9223 196.685)" class="st0" width="0.6" height="41.4"/>
		
			<rect x="134.9" y="48.9" transform="matrix(0.1536 -0.9881 0.9881 0.1536 45.7416 192.4656)" class="st0" width="0.6" height="41.4"/>
		<g>
			<polygon class="st1" points="122,73.5 110.4,90.4 111.1,90.9 122.3,74.7 127.1,87.2 127.3,87.6 127.7,87.4 136.2,82.7 
				142.8,89.8 143.2,90.2 143.5,89.7 151.8,76 153.3,76.9 153.5,72.4 149.6,74.6 151.1,75.6 143,88.8 136.6,81.9 136.4,81.6 
				136.1,81.8 127.7,86.5 122.7,73.6 122.5,72.9 			"/>
			
				<rect x="110.2" y="90.9" transform="matrix(0.1537 -0.9881 0.9881 0.1537 2.7128 187.4391)" class="st2" width="1.2" height="2.4"/>
			
				<rect x="118" y="92.1" transform="matrix(0.1537 -0.9881 0.9881 0.1537 8.1102 196.1635)" class="st2" width="1.2" height="2.4"/>
			
				<rect x="125.8" y="93.4" transform="matrix(0.1535 -0.9881 0.9881 0.1535 13.5271 204.9081)" class="st2" width="1.2" height="2.4"/>
			
				<rect x="133.5" y="94.6" transform="matrix(0.1537 -0.9881 0.9881 0.1537 18.9084 213.616)" class="st2" width="1.2" height="2.4"/>
			
				<rect x="141.3" y="95.8" transform="matrix(0.1535 -0.9881 0.9881 0.1535 24.3245 222.3583)" class="st2" width="1.2" height="2.4"/>
			
				<rect x="149.1" y="97" transform="matrix(0.1537 -0.9881 0.9881 0.1537 29.7057 231.0675)" class="st2" width="1.2" height="2.4"/>
			
				<rect x="109.3" y="83.1" transform="matrix(0.1536 -0.9881 0.9881 0.1536 9.7523 180.0203)" class="st2" width="1.2" height="2.4"/>
			
				<rect x="110.3" y="77" transform="matrix(0.1537 -0.9881 0.9881 0.1537 16.559 175.7887)" class="st2" width="1.2" height="2.4"/>
			
				<rect x="111.2" y="70.9" transform="matrix(0.1535 -0.9881 0.9881 0.1535 23.3933 171.5834)" class="st2" width="1.2" height="2.4"/>
			
				<rect x="112.1" y="65.6" transform="matrix(0.1535 -0.9881 0.9881 0.1535 29.4202 167.8544)" class="st2" width="1.2" height="2.4"/>
		</g>
	</g>
	<g>
		<g>
			<polygon class="st3" points="75.7,48.9 42.6,26.4 12.6,32.1 15.3,42.5 56.6,70.6 			"/>
			<polygon class="st4" points="53.5,67.8 10.5,42.7 7.2,33.6 40.8,27 65.9,41.6 			"/>
			<polygon class="st5" points="39.9,62.9 13.6,47.1 8.5,32.9 43.5,26.2 56.8,34.2 			"/>
			<polygon class="st2" points="28,57.1 0,40 0,0 45.7,27 			"/>
			<polygon class="st6" points="28,57.1 0,40 0,19.7 37,41.8 			"/>
		</g>
		<g>
			<path class="st7" d="M117.6,53.5L89,42.8c-2.9-1.1-15-2.3-16.3,0.5c-1.3,2.8,6.7,7.8,9.6,8.9l22.3,7.3
				C113.9,62.4,116.5,56.6,117.6,53.5z"/>
			<path class="st4" d="M130.1,85.9l-23.7-14.8c1.9,4.3-3.5,8.9-8.1,6.7c2.5,4.2-2.2,8.9-6.7,7.7c1.7,4.2-3.9,8.6-8.3,5.9L63.2,79
				c-5.7-3.5-11-11.1-12.4-15.3c-4.1-12.4,9.4-22.2,16.4-22.3c5.5-0.1,9.4-0.8,12.4,1.1l56.5,34C143.2,80.9,135.9,89.6,130.1,85.9z"
				/>
			<path class="st7" d="M84.4,81.6c0,0,3.9,2.6,7.5,4.8c-0.1-0.2-0.1-0.5-0.2-0.7c0.4,0.1,0.8,0.2,1.2,0.2
				C89,83.9,84.4,81.6,84.4,81.6L84.4,81.6z M106.5,71.3c0.2,0.4,0.3,0.8,0.3,1.2c-3.9-2.5-10.5-7-10.5-7s7.2,3.9,10.2,5.7
				C106.4,71.1,106.4,71.2,106.5,71.3L106.5,71.3z M100.3,78.4c-0.7-0.1-1.4-0.2-2-0.5c0.2,0.3,0.3,0.6,0.4,0.8
				c-3.9-2.5-8.7-5.5-8.7-5.5S96.4,76.4,100.3,78.4z"/>
		</g>
	</g>
	<g>
		
			<rect x="124.6" y="101.7" transform="matrix(0.1536 -0.9881 0.9881 0.1536 -15.0419 227.2011)" class="st2" width="1.1" height="41.5"/>
		
			<rect x="98.9" y="104.6" transform="matrix(0.1536 -0.9881 0.9881 0.1536 -13.8432 200.3792)" class="st8" width="22.2" height="7.4"/>
		
			<rect x="110.9" y="110" transform="matrix(0.1536 -0.9881 0.9881 0.1536 -12.6355 212.6796)" class="st9" width="13.8" height="7.4"/>
		
			<rect x="121.3" y="113.7" transform="matrix(0.1536 -0.9881 0.9881 0.1536 -9.3971 223.7048)" class="st10" width="9.1" height="7.4"/>
		
			<rect x="127.9" y="112.8" transform="matrix(0.1536 -0.9881 0.9881 0.1536 -1.1852 231.6718)" class="st11" width="13.4" height="7.4"/>
		<rect x="138" y="116" transform="matrix(0.1536 -0.9881 0.9881 0.1536 2.5249 242.4035)" class="st12" width="9.6" height="7.4"/>
	</g>
</g>
</svg>
