<!-- Generator: Adobe Illustrator 21.0.2, SVG Export Plug-In  -->
<svg version="1.1"
	 xmlns="http://www.w3.org/2000/svg" xmlns:xlink="http://www.w3.org/1999/xlink" xmlns:a="http://ns.adobe.com/AdobeSVGViewerExtensions/3.0/"
	 x="0px" y="0px" width="102.9px" height="135.4px" viewBox="0 0 102.9 135.4" style="enable-background:new 0 0 102.9 135.4;"
	 xml:space="preserve">
<style type="text/css">
	.st0{fill-rule:evenodd;clip-rule:evenodd;fill:#FFD7B7;}
	.st1{fill-rule:evenodd;clip-rule:evenodd;fill:#9ACAE6;}
	.st2{fill-rule:evenodd;clip-rule:evenodd;fill:#FFFFFF;}
	.st3{fill-rule:evenodd;clip-rule:evenodd;fill:#C4D0E0;}
	.st4{fill-rule:evenodd;clip-rule:evenodd;fill:#FFCD61;}
	.st5{fill-rule:evenodd;clip-rule:evenodd;fill:#D4B194;}
	.st6{fill-rule:evenodd;clip-rule:evenodd;fill:#EB417D;}
	.st7{fill-rule:evenodd;clip-rule:evenodd;fill:#D90D54;}
</style>
<defs>
</defs>
<g>
	<path class="st0" d="M26.5,74.4c-11.6,4.5-17.4,17.5-12.9,29.1s17.5,17.4,29.1,12.9c11.6-4.5,13.9-20.5,12.2-32.9
		C52.9,69.2,38.1,69.9,26.5,74.4z"/>
	<polygon class="st1" points="19.5,13.5 83.5,0 102.9,79.6 38.9,93.1 	"/>
	
		<rect x="27.1" y="5.9" transform="matrix(0.9785 -0.2061 0.2061 0.9785 -8.1678 13.3008)" class="st2" width="65.4" height="79.9"/>
	<g>
		<g>
			<path class="st3" d="M80.7,0.6l16.5,78.2c-0.1,0-0.2,0.1-0.3,0.1l-0.1,0L80.2,0.7l0.1,0C80.4,0.6,80.5,0.6,80.7,0.6z"/>
			
				<rect x="84.9" y="0.5" transform="matrix(0.9785 -0.2061 0.2061 0.9785 -6.525 18.4046)" class="st3" width="0.4" height="79.9"/>
			
				<rect x="81.2" y="1.3" transform="matrix(0.9785 -0.2061 0.2061 0.9785 -6.7597 17.6755)" class="st3" width="0.4" height="79.9"/>
			
				<rect x="77.6" y="2.1" transform="matrix(0.9785 -0.2061 0.2061 0.9785 -6.9943 16.9462)" class="st3" width="0.4" height="79.9"/>
			<rect x="74" y="2.8" transform="matrix(0.9785 -0.2061 0.2061 0.9785 -7.229 16.2173)" class="st3" width="0.4" height="79.9"/>
			
				<rect x="70.4" y="3.6" transform="matrix(0.9785 -0.2061 0.2061 0.9785 -7.4637 15.488)" class="st3" width="0.4" height="79.9"/>
			
				<rect x="66.8" y="4.4" transform="matrix(0.9785 -0.2061 0.2061 0.9785 -7.6984 14.759)" class="st3" width="0.4" height="79.9"/>
			
				<rect x="63.2" y="5.1" transform="matrix(0.9785 -0.2061 0.2061 0.9785 -7.9331 14.0298)" class="st3" width="0.4" height="79.9"/>
			
				<rect x="59.5" y="5.9" transform="matrix(0.9785 -0.2061 0.2061 0.9785 -8.1678 13.3008)" class="st3" width="0.4" height="79.9"/>
			
				<rect x="55.9" y="6.6" transform="matrix(0.9785 -0.2061 0.2061 0.9785 -8.4023 12.5713)" class="st3" width="0.4" height="79.9"/>
			
				<rect x="52.3" y="7.4" transform="matrix(0.9785 -0.2061 0.2061 0.9785 -8.6372 11.8426)" class="st3" width="0.4" height="79.9"/>
			
				<rect x="48.7" y="8.2" transform="matrix(0.9785 -0.2061 0.2061 0.9785 -8.8717 11.1131)" class="st3" width="0.4" height="79.9"/>
			
				<rect x="45.1" y="8.9" transform="matrix(0.9785 -0.2061 0.2061 0.9785 -9.1065 10.3843)" class="st3" width="0.4" height="79.9"/>
			
				<rect x="41.5" y="9.7" transform="matrix(0.9785 -0.2061 0.2061 0.9785 -9.3414 9.6554)" class="st3" width="0.4" height="79.9"/>
			
				<rect x="37.8" y="10.5" transform="matrix(0.9785 -0.2061 0.2061 0.9785 -9.576 8.9261)" class="st3" width="0.4" height="79.9"/>
			
				<rect x="34.2" y="11.2" transform="matrix(0.9785 -0.2061 0.2061 0.9785 -9.8105 8.1969)" class="st3" width="0.4" height="79.9"/>
			<path class="st3" d="M22.8,12.8L39.3,91l-0.1,0c-0.1,0-0.2,0-0.4,0.1L22.4,12.9C22.5,12.9,22.6,12.8,22.8,12.8L22.8,12.8z"/>
		</g>
		<g>
			
				<rect x="21.9" y="21.1" transform="matrix(0.9785 -0.2061 0.2061 0.9785 -3.2205 11.7083)" class="st3" width="65.4" height="0.4"/>
			
				<rect x="22.7" y="24.8" transform="matrix(0.9786 -0.2059 0.2059 0.9786 -3.9726 11.9387)" class="st3" width="65.4" height="0.4"/>
			
				<rect x="23.5" y="28.6" transform="matrix(0.9785 -0.2061 0.2061 0.9785 -4.7304 12.1946)" class="st3" width="65.4" height="0.4"/>
			
				<rect x="24.3" y="32.3" transform="matrix(0.9785 -0.2061 0.2061 0.9785 -5.4853 12.4373)" class="st3" width="65.4" height="0.4"/>
			
				<rect x="25" y="36.1" transform="matrix(0.9785 -0.2063 0.2063 0.9785 -6.2453 12.6942)" class="st3" width="65.4" height="0.4"/>
			
				<rect x="25.8" y="39.8" transform="matrix(0.9785 -0.2061 0.2061 0.9785 -6.9951 12.9233)" class="st3" width="65.4" height="0.4"/>
			
				<rect x="26.6" y="43.6" transform="matrix(0.9784 -0.2069 0.2069 0.9784 -7.7745 13.2199)" class="st3" width="65.4" height="0.4"/>
			
				<rect x="27.4" y="47.3" transform="matrix(0.9785 -0.2061 0.2061 0.9785 -8.5037 13.4069)" class="st3" width="65.4" height="0.4"/>
			
				<rect x="28.2" y="51" transform="matrix(0.9785 -0.2061 0.2061 0.9785 -9.2601 13.6527)" class="st3" width="65.4" height="0.4"/>
			
				<rect x="29" y="54.8" transform="matrix(0.9785 -0.2063 0.2063 0.9785 -10.0237 13.9109)" class="st3" width="65.4" height="0.4"/>
			
				<rect x="29.8" y="58.5" transform="matrix(0.9785 -0.2061 0.2061 0.9785 -10.7699 14.1387)" class="st3" width="65.4" height="0.4"/>
			
				<rect x="30.6" y="62.3" transform="matrix(0.9786 -0.2059 0.2059 0.9786 -11.5149 14.3661)" class="st3" width="65.4" height="0.4"/>
			
				<rect x="31.4" y="66" transform="matrix(0.9785 -0.2061 0.2061 0.9785 -12.2782 14.6224)" class="st3" width="65.4" height="0.4"/>
			
				<rect x="32.1" y="69.8" transform="matrix(0.9785 -0.2061 0.2061 0.9785 -13.0348 14.8677)" class="st3" width="65.4" height="0.4"/>
			
				<rect x="32.9" y="73.5" transform="matrix(0.9786 -0.2059 0.2059 0.9786 -13.7775 15.0942)" class="st3" width="65.4" height="0.4"/>
			
				<rect x="33.7" y="77.3" transform="matrix(0.9785 -0.2061 0.2061 0.9785 -14.5443 15.3533)" class="st3" width="65.4" height="0.4"/>
			<rect x="34.5" y="81" transform="matrix(0.9786 -0.206 0.206 0.9786 -15.2903 15.585)" class="st3" width="65.4" height="0.4"/>
			<path class="st3" d="M20.2,16.6l64-13.5c0,0,0,0,0,0.1l0.1,0.4L20.3,17L20.2,16.6C20.2,16.7,20.2,16.6,20.2,16.6z"/>
			
				<rect x="20.3" y="13.6" transform="matrix(0.9785 -0.2061 0.2061 0.9785 -1.7105 11.2199)" class="st3" width="65.4" height="0.4"/>
			
				<rect x="21.1" y="17.3" transform="matrix(0.9785 -0.2061 0.2061 0.9785 -2.4655 11.4652)" class="st3" width="65.4" height="0.4"/>
		</g>
	</g>
	<rect x="20" y="6.6" transform="matrix(0.9785 -0.2061 0.2061 0.9785 -1.3957 11.121)" class="st1" width="65.4" height="11.3"/>
	<g>
		<polygon class="st0" points="21.5,93.8 3.7,135.4 34.9,135.4 46.8,107.7 		"/>
		<polygon class="st4" points="9.6,115.3 1,135.4 37,135.4 40,128.3 		"/>
		<path class="st5" d="M21.3,90.5c-4.4,3.6-4.3,10.3,0.2,15.1c4.5,4.7,11.8,5.6,16.2,2C42,104,42,97.3,37.4,92.6
			C32.9,87.8,25.7,86.9,21.3,90.5z"/>
		<path class="st5" d="M28.2,53.2c0.6,1.8,0.8,1.7,0.1,3.3L14.6,88.4c-1.2,2.9-0.7,8.3,2.2,9.5l0,0c2.9,1.3,6.3-0.1,7.6-3l12.1-28.3
			C38.5,61.9,33.1,54.9,28.2,53.2z"/>
		<path class="st0" d="M28.2,53.2L13.4,87.8c-1.2,2.9-0.7,8.3,2.2,9.5l0,0c2.9,1.3,6.3-0.1,7.6-3l11.6-27.1
			C38.1,59.3,30.6,54,28.2,53.2z"/>
		<path class="st0" d="M18.1,90.5c-4.2,3.7-3.5,10.8,1.6,15.9c5.1,5.1,12.7,6.2,16.9,2.5c4.2-3.7,3.5-10.8-1.6-15.9
			C29.9,87.9,22.4,86.8,18.1,90.5z"/>
		<polygon class="st6" points="4.6,124.4 0,135.4 30.1,135.4 		"/>
		<polygon class="st7" points="21,131.5 19.3,135.4 30.1,135.4 		"/>
	</g>
</g>
</svg>
