<!-- Generator: Adobe Illustrator 21.0.2, SVG Export Plug-In  -->
<svg version="1.1"
	 xmlns="http://www.w3.org/2000/svg" xmlns:xlink="http://www.w3.org/1999/xlink" xmlns:a="http://ns.adobe.com/AdobeSVGViewerExtensions/3.0/"
	 x="0px" y="0px" width="103.1px" height="80.9px" viewBox="0 0 103.1 80.9" style="enable-background:new 0 0 103.1 80.9;"
	 xml:space="preserve">
<style type="text/css">
	.st0{fill-rule:evenodd;clip-rule:evenodd;fill:#FCA71F;}
	.st1{fill-rule:evenodd;clip-rule:evenodd;fill:#FFD7B7;}
	.st2{fill-rule:evenodd;clip-rule:evenodd;fill:#D4B194;}
	.st3{fill-rule:evenodd;clip-rule:evenodd;fill:#3C6273;}
	.st4{fill-rule:evenodd;clip-rule:evenodd;fill:#254554;}
	.st5{fill-rule:evenodd;clip-rule:evenodd;fill:#83A14A;}
	.st6{fill-rule:evenodd;clip-rule:evenodd;fill:#275D8C;}
	.st7{fill-rule:evenodd;clip-rule:evenodd;fill:#5896CC;}
</style>
<defs>
</defs>
<g>
	<path class="st0" d="M2.7,54.1L0,57.8c0.4,0.2,0.7,0.6,0.8,1.1L5,57.1L2.7,54.1z"/>
	<g>
		<path class="st1" d="M5.2,52.3L5.2,52.3c-2.2-1.3-3-4.1-1.7-6.2l12.6-20.2c1.3-2.1,4-2.9,6.2-1.7l0,0c2.2,1.3,2.9,4,1.7,6.2
			L11.4,50.7C10.1,52.8,7.4,53.6,5.2,52.3z"/>
		<g>
			<path class="st2" d="M15.3,59L15.3,59c-2.3-1-3.4-3.7-2.3-6l10.3-21.4c1.1-2.2,3.7-3.3,6-2.3l0,0c2.3,1,3.3,3.7,2.3,6L21.3,56.7
				C20.3,58.9,17.6,60,15.3,59z"/>
			<path class="st2" d="M25.4,59.5L25.4,59.5c-2.4-0.6-3.9-3.2-3.2-5.6L29,31.2c0.7-2.4,3.1-3.9,5.6-3.2l0,0
				c2.4,0.6,3.9,3.1,3.2,5.6L31,56.3C30.3,58.7,27.8,60.2,25.4,59.5z"/>
			<polygon class="st2" points="61.6,39.8 39.1,20.9 18.1,31.8 13.4,46.4 51.2,51.5 			"/>
			<path class="st2" d="M36.1,59.4L36.1,59.4c-2.5,0-4.7-2-4.6-4.5l0.4-23.8c0-2.5,2-4.6,4.5-4.6l0,0c2.5,0,4.6,2,4.6,4.5l-0.4,23.8
				C40.5,57.3,38.6,59.3,36.1,59.4z"/>
			<path class="st1" d="M55.2,36.5c9-2.8,17.7,9.2,16.7,15.9c-1,6.7-9,10.7-18.5,9.8c-9.5-0.8-14.8-8.7-14.2-12.3
				C39.8,46.4,46.2,39.2,55.2,36.5z"/>
			<path class="st1" d="M65.8,42.3L65.8,42.3c-1.2,2.2-4.3,3.3-6.2,1.7L36.9,23.8c-1.9-1.7-2.9-4-1.7-6.2l0,0c1.2-2.2,4-2.9,6.2-1.7
				l22.7,20.2C66,37.8,67,40.2,65.8,42.3z"/>
			<path class="st1" d="M16.5,29.3L16.5,29.3c-0.9-2.3,0.3-4.9,2.6-5.9l18-7.7c2.3-1,5,0.3,5.9,2.6l0,0c0.9,2.3-0.3,5-2.6,5.9
				l-18,7.7C20.1,32.9,17.4,31.6,16.5,29.3z"/>
			<path class="st1" d="M33,27.7c3.6,2.4,17.7,12.1,8.3,17.4c-9.4,5.3,18.6,5.6,18.6,5.6l-2.4-17.6C57.4,33.2,46.5,20.6,33,27.7z"/>
			<polygon class="st3" points="1.1,54.7 62.9,3.9 66.5,8 4.5,58.9 			"/>
			<polygon class="st4" points="64.7,6 66.5,8 4.5,58.9 2.8,56.8 			"/>
			<polygon class="st1" points="58.1,33.5 53.3,56.1 66.6,61.1 73.9,39.1 			"/>
			
				<rect x="57.2" y="47" transform="matrix(0.3229 -0.9464 0.9464 0.3229 -8.686416e-02 103.0636)" class="st5" width="29.5" height="9.1"/>
			<polygon class="st6" points="103.1,80.9 70.6,69.8 82,36.3 103.1,43.5 			"/>
			<polygon class="st7" points="103.1,43.5 82,36.3 76.3,53.1 103.1,62.2 			"/>
			<path class="st1" d="M48.1,50.2L48.1,50.2c0,2.9-2.4,5.6-5.3,5.4L16.4,54c-2.9-0.2-5.4-2.3-5.4-5.3l0,0c0-2.9,2.3-5.4,5.3-5.4
				l26.4,1.6C45.6,45.1,48,47.2,48.1,50.2z"/>
			<polygon class="st4" points="47.8,13.7 62.8,0 67.8,5.8 67,6.5 62.6,1.4 48.4,14.4 			"/>
			<polygon class="st3" points="46.8,15.7 65.2,0.5 70.3,6.3 51.8,21.5 			"/>
			<polygon class="st4" points="67.8,3.4 70.3,6.3 51.8,21.5 49.3,18.6 			"/>
			<polygon class="st0" points="46.1,17.7 47.6,16.5 51.1,20.6 49.5,21.9 			"/>
		</g>
	</g>
</g>
</svg>
