<!-- Generator: Adobe Illustrator 21.0.2, SVG Export Plug-In  -->
<svg version="1.1"
	 xmlns="http://www.w3.org/2000/svg" xmlns:xlink="http://www.w3.org/1999/xlink" xmlns:a="http://ns.adobe.com/AdobeSVGViewerExtensions/3.0/"
	 x="0px" y="0px" width="79.8px" height="159.8px" viewBox="0 0 79.8 159.8" style="enable-background:new 0 0 79.8 159.8;"
	 xml:space="preserve">
<style type="text/css">
	.st0{fill:#D2383A;}
	.st1{fill:#CCD2D2;}
	.st2{fill:#FFFFFF;}
</style>
<defs>
</defs>
<g>
	<g>
		<g>
			<g>
				<path class="st0" d="M0.1,0v92.8h79.7V0H0.1z M67.4,49.4h-0.2l-8.1-11.1l-8.4,11.1l-0.2,0.3l-0.2-0.3L32.8,27L12.4,49.4h-0.2
					V9.3h55.2V49.4z"/>
			</g>
		</g>
		<g>
			<circle class="st0" cx="52.5" cy="24" r="8.3"/>
		</g>
	</g>
</g>
<rect y="100.8" class="st1" width="79.8" height="6.1"/>
<rect y="114.8" class="st1" width="79.8" height="6.1"/>
<rect y="128.7" class="st1" width="79.8" height="6.1"/>
<rect y="142.7" class="st0" width="79.8" height="17"/>
<g>
	<g>
		<path class="st2" d="M18.5,147.3h1.3v3.3c0.4,0,0.7-0.1,0.9-0.2c0.2-0.2,0.4-0.6,0.7-1.4c0.3-0.6,0.5-1,0.6-1.2
			c0.2-0.2,0.3-0.3,0.5-0.4c0.2-0.1,0.5-0.1,1-0.1h0.3v1.1l-0.4,0c-0.3,0-0.6,0.1-0.7,0.2c-0.1,0.1-0.3,0.4-0.5,0.9
			c-0.2,0.5-0.4,0.8-0.5,1c-0.2,0.2-0.4,0.4-0.8,0.5c0.6,0.1,1.1,0.7,1.6,1.6l1.4,2.4h-1.4l-1.4-2.4c-0.3-0.5-0.5-0.8-0.7-0.9
			c-0.2-0.2-0.5-0.2-0.8-0.2v3.5h-1.3V147.3z"/>
		<path class="st2" d="M25,157.9l-0.1-1.2c0.3,0.1,0.5,0.1,0.7,0.1c0.3,0,0.5,0,0.7-0.1c0.2-0.1,0.3-0.2,0.4-0.4
			c0.1-0.1,0.2-0.5,0.4-1c0-0.1,0.1-0.2,0.1-0.3l-2.9-7.7h1.4l1.6,4.4c0.2,0.6,0.4,1.2,0.6,1.8c0.1-0.6,0.3-1.2,0.5-1.7l1.6-4.5h1.3
			l-2.9,7.8c-0.3,0.8-0.6,1.4-0.7,1.7c-0.2,0.4-0.5,0.7-0.8,0.9s-0.7,0.3-1.1,0.3C25.6,158,25.3,158,25,157.9z"/>
		<path class="st2" d="M32.4,147.3h6v7.6h-1.3v-6.6h-3.4v6.6h-1.3V147.3z"/>
		<path class="st2" d="M40.4,147.3h1.3v5.8l3.6-5.8h1.4v7.6h-1.3v-5.8l-3.6,5.8h-1.4V147.3z"/>
		<path class="st2" d="M48,147.3h6.2v1.1h-2.5v6.6h-1.3v-6.6H48V147.3z"/>
		<path class="st2" d="M55.4,147.3h1.3v3h1.6c1.1,0,1.9,0.2,2.5,0.6c0.6,0.4,0.9,1,0.9,1.7c0,0.6-0.2,1.2-0.7,1.6
			c-0.5,0.5-1.3,0.7-2.3,0.7h-3.2V147.3z M56.7,153.8H58c0.8,0,1.4-0.1,1.8-0.3c0.4-0.2,0.5-0.5,0.5-0.9c0-0.3-0.1-0.6-0.4-0.9
			s-0.8-0.4-1.7-0.4h-1.5V153.8z"/>
	</g>
</g>
</svg>
