<!-- Generator: Adobe Illustrator 21.0.2, SVG Export Plug-In  -->
<svg version="1.1"
	 xmlns="http://www.w3.org/2000/svg" xmlns:xlink="http://www.w3.org/1999/xlink" xmlns:a="http://ns.adobe.com/AdobeSVGViewerExtensions/3.0/"
	 x="0px" y="0px" width="35.1px" height="35.2px" viewBox="0 0 35.1 35.2" style="enable-background:new 0 0 35.1 35.2;"
	 xml:space="preserve">
<style type="text/css">
	.st0{fill:#FFFFFF;}
</style>
<defs>
</defs>
<g>
	<g>
		<g>
			<path class="st0" d="M17.5,35.2l0-8.5c0.5,0,1.1,0,1.6-0.1l1.5,8.4C19.5,35.1,18.5,35.2,17.5,35.2z M8.6,32.8
				c-0.9-0.5-1.7-1.1-2.5-1.8l5.5-6.5c0.4,0.3,0.9,0.7,1.3,0.9L8.6,32.8z M28.8,31l-5.5-6.5c0.4-0.3,0.8-0.7,1.1-1.1l6.5,5.5
				C30.3,29.6,29.6,30.4,28.8,31z M0.8,23.5c-0.4-1-0.6-2-0.8-3l8.4-1.5c0.1,0.5,0.2,1,0.4,1.5L0.8,23.5z M34.9,20.5l-8.4-1.5
				c0.1-0.5,0.1-1.1,0.1-1.6l8.5-0.1v0.1C35.1,18.5,35.1,19.5,34.9,20.5z M8.8,14.3l-8-2.9c0.3-1,0.8-1.9,1.3-2.8l7.4,4.2
				C9.2,13.3,9,13.8,8.8,14.3z M25.4,12.8c-0.3-0.5-0.6-0.9-0.9-1.3L31,6c0.7,0.8,1.3,1.6,1.8,2.5L25.4,12.8z M12.8,9.5L8.5,2.1
				c0.9-0.5,1.8-1,2.8-1.3l2.9,8C13.8,9,13.3,9.2,12.8,9.5z M20.6,8.8c-0.5-0.2-1-0.3-1.5-0.4L20.5,0c1,0.2,2,0.4,3,0.8L20.6,8.8z"
				/>
		</g>
	</g>
</g>
</svg>
