<!-- Generator: Adobe Illustrator 21.0.2, SVG Export Plug-In  -->
<svg version="1.1"
	 xmlns="http://www.w3.org/2000/svg" xmlns:xlink="http://www.w3.org/1999/xlink" xmlns:a="http://ns.adobe.com/AdobeSVGViewerExtensions/3.0/"
	 x="0px" y="0px" width="48.6px" height="58.3px" viewBox="0 0 48.6 58.3" style="enable-background:new 0 0 48.6 58.3;"
	 xml:space="preserve">
<style type="text/css">
	.st0{fill:#F3DD78;}
</style>
<defs>
</defs>
<g>
	<g>
		<path class="st0" d="M44.4,23.3c-2.4,0-4.3,1.9-4.3,4.3v-3.7c0-2.4-1.9-4.3-4.3-4.3c-2.3,0-4.2,1.9-4.3,4.2v-2.2v0
			c0-2.4-1.9-4.3-4.3-4.3c-2.3,0-4.2,1.9-4.3,4.2V4.3C23,1.9,21.1,0,18.7,0c-2.4,0-4.3,1.9-4.3,4.3v35l-7.2-7.2
			c-1.7-1.7-4.4-1.7-6,0c-1.7,1.7-1.7,4.4,0,6l20.1,20.1h27.3V27.6C48.6,25.2,46.7,23.3,44.4,23.3z"/>
	</g>
</g>
</svg>
