<!-- Generator: Adobe Illustrator 21.0.2, SVG Export Plug-In  -->
<svg version="1.1"
	 xmlns="http://www.w3.org/2000/svg" xmlns:xlink="http://www.w3.org/1999/xlink" xmlns:a="http://ns.adobe.com/AdobeSVGViewerExtensions/3.0/"
	 x="0px" y="0px" width="176.1px" height="179px" viewBox="0 0 176.1 179" style="enable-background:new 0 0 176.1 179;"
	 xml:space="preserve">
<style type="text/css">
	.st0{fill:url(#SVGID_1_);}
	.st1{fill:url(#SVGID_2_);}
	.st2{fill:#F9D5B4;}
	.st3{fill:#B32E1B;}
	.st4{fill:#F2B78B;}
	.st5{fill:#332113;}
	.st6{fill:#C98D45;}
	.st7{fill:#FFFFFF;}
	.st8{fill:url(#SVGID_3_);}
	.st9{fill:#565656;}
	.st10{fill:url(#SVGID_4_);}
	.st11{fill:url(#SVGID_5_);}
	.st12{fill:url(#SVGID_6_);}
</style>
<defs>
</defs>
<g>
	<linearGradient id="SVGID_1_" gradientUnits="userSpaceOnUse" x1="116.5583" y1="94.2887" x2="116.5583" y2="119.0328">
		<stop  offset="0" style="stop-color:#B17338"/>
		<stop  offset="0.8643" style="stop-color:#E8AE5C"/>
	</linearGradient>
	<path class="st0" d="M130.4,38.2c4.9,9.5,6.1,20.7,4,31.1s-7.1,21.8-1.4,31c-2.1,1.2-3.4,1.2-5.4,1.2c-1.3,3.9-0.8,8.3,1.3,11.9
		c-3.8,1.6-6.5-0.4-9.9-0.8c-2.6,7.5-10.3,13.3-18.7,14.1C92.3,94.5,104.2,60.5,130.4,38.2z"/>
	<linearGradient id="SVGID_2_" gradientUnits="userSpaceOnUse" x1="58.6347" y1="94.2887" x2="58.6347" y2="119.0328">
		<stop  offset="0" style="stop-color:#B17338"/>
		<stop  offset="0.8643" style="stop-color:#E8AE5C"/>
	</linearGradient>
	<path class="st1" d="M44.8,38.2c-4.9,9.5-6.1,20.7-4,31.1c2.1,10.4,7.1,21.8,1.4,31c2.1,1.2,3.4,1.2,5.4,1.2
		c1.3,3.9,0.8,8.3-1.3,11.9c3.8,1.6,6.5-0.4,9.9-0.8c2.6,7.5,10.3,13.3,18.7,14.1C82.9,94.5,71,60.5,44.8,38.2z"/>
	<g>
		<path class="st2" d="M161,150.1c-3.3-2.3-7.1-4-11.1-5.2l-4.2-1.1c0,0,0.1,0,0.1,0l-33.3-10.8c-2.7-0.7-4.2-2.9-4.7-5.4
			c-1.4-7-1.2-23.7-1.2-26.7c0-0.2-0.2-0.4-0.5-0.4h-1.6H71.5h-1.6c-0.3,0-0.5,0.2-0.5,0.4c0,3,0.2,19.3-1.2,26.7
			c-0.4,2.5-2,4.7-4.7,5.4l-33.3,10.8c0,0,0.1,0,0.1,0l-4.3,1.2c-3.5,1-6.8,2.3-9.7,4.2C1.1,159.1,0.6,175.5,0,178.5
			C0,178.8,0.2,179,0.5,179H88h87.6c0.3,0,0.5-0.2,0.5-0.5C175.4,175.6,175.2,160.1,161,150.1z"/>
		<g>
			<path class="st3" d="M161,150.1c-3.3-2.3-7.1-4-11.1-5.2l-4.2-1.1c0,0,0.1,0,0.1,0l-28.7-9.3c-9,3.4-18.8,5.3-29.1,5.3
				c-10.3,0-20.1-1.9-29.1-5.3l-28.7,9.3c0,0,0.1,0,0.1,0l-4.3,1.2c-3.5,1-6.8,2.3-9.7,4.2C1.1,159.1,0.6,175.5,0,178.5
				C0,178.8,0.2,179,0.5,179H88h87.6c0.3,0,0.5-0.2,0.5-0.5C175.4,175.6,175.2,160.1,161,150.1z"/>
		</g>
		<g>
			<path class="st4" d="M107.1,121.3c-0.2-7.8-0.4-15.1-0.4-17.1c0-0.3-0.2-0.5-0.5-0.5H69.9c-0.3,0-0.5,0.2-0.5,0.5
				c0,2-0.3,9.3-0.5,17.1c2.6,2.7,12.2,6.5,18.6,6.6C94.3,127.9,104.3,123.4,107.1,121.3z"/>
		</g>
		<g>
			<path class="st2" d="M53.8,65c2.6,6.9,1.1,17.6-3.3,19.7c-4.3,2.1-9.9-5.3-12.5-12.2c-2.6-6.9-1.1-14.1,3.3-16.2
				C45.6,54.3,51.2,58.2,53.8,65z"/>
			<path class="st2" d="M122.3,65c-2.6,6.9-1.1,17.6,3.3,19.7c4.3,2.1,9.9-5.3,12.5-12.2c2.6-6.9,1.1-14.1-3.3-16.2
				C130.4,54.3,124.8,58.2,122.3,65z"/>
		</g>
		<path class="st2" d="M87.6,4C44.5,2.6,43.9,43.9,44.5,57.5c0.5,9.9,2.8,24.3,4.9,31.5c1.2,4.1,3.4,11,6.5,14
			c8.4,8,18.9,15.1,25.3,17.6c1.2,0.4,3.7,0.6,6.3,0.6c2.6,0,5.2-0.2,6.3-0.6c6.5-2.5,16.9-9.6,25.3-17.6c3.1-3,5.3-9.9,6.5-14
			c2.1-7.2,4.5-21.6,4.9-31.5C131.4,43.9,130.8,2.6,87.6,4z"/>
		<g>
			<ellipse class="st5" cx="65.3" cy="61" rx="5.4" ry="6.1"/>
			<ellipse class="st5" cx="109" cy="61" rx="5.4" ry="6.1"/>
		</g>
		<g>
			<path class="st6" d="M95.8,110.7c-4.2-0.8-7.6-5.2-8.2-7.8c-0.6,2.6-4,7-8.2,7.8c-0.6,0.1-1.2,0.2-1.8,0.2c0.2,3.1,0.7,6,1.3,8.6
				c0.8,0.4,1.6,0.8,2.4,1c1.2,0.4,3.7,0.6,6.3,0.6c2.6,0,5.2-0.2,6.3-0.6c0.7-0.3,1.5-0.6,2.4-1c0.6-2.6,1-5.5,1.3-8.6
				C97,110.9,96.4,110.8,95.8,110.7z"/>
		</g>
	</g>
	<g>
		<g>
			<path class="st7" d="M76.9,92.9c1.9,4.2,6.2,7.2,11.1,7.2c5,0,9.2-3,11.1-7.2H76.9z"/>
		</g>
	</g>
	<linearGradient id="SVGID_3_" gradientUnits="userSpaceOnUse" x1="92.2062" y1="-15.3298" x2="91.6741" y2="44.7976">
		<stop  offset="0" style="stop-color:#B17338"/>
		<stop  offset="0.8643" style="stop-color:#E8AE5C"/>
	</linearGradient>
	<path class="st8" d="M145.1,35.2c-8.7,0.6-14.1-9.4-19.8-16.8c-13.8-18-37.9-23.6-58-13.2C62,8,57.8,10.9,56.5,13.6
		C46.4,17.8,41,33.2,38.8,45.4c-2.6,14.3,5,34.1,5.7,21.8c0.5-8.9,8.6-21.7,12-29.4c1.6-3.5,3-7.1,4-10.9c1.2,9.2,13.7,18,21.5,18.1
		c0.8,0,1.2-3.2,1-7.5c2,3.5,5,6.5,8.2,8.7c5.1,3.4,11,5.2,16.8,6.4c-2.1-0.8-3.3-3.3-3.7-5.7c-0.2-1.3-0.2-2.5-0.2-3.8
		c5.1,3.4,10.6,5.9,16.5,6.1c0.7,0,1.4,0,2.1,0c3.1,6.2,6.1,12.9,6.4,18.1c0.7,12.3,8.3-7.5,5.7-21.8c0-0.1,0-0.2-0.1-0.3
		C138.7,42.7,142.3,39.4,145.1,35.2z M61.8,20.3c0-0.2,0-0.3,0.1-0.5c0.1,0,0.1,0,0.2,0.1C62,20,61.9,20.1,61.8,20.3z"/>
	<g>
		<g>
			<path class="st9" d="M83,54.4c-7.9-9.6-37.6-2.8-37.6-2.8c0.5,2.2,1,4.3,1.4,6.4c2.2,0.2,2.3,5.2,2.6,7
				c1.1,8.8,6.9,15.2,19.3,14.9c12.4-0.6,15.3-9.6,15.8-15.2C84.9,58.5,83,54.4,83,54.4z M81.6,65.1C80.9,73,76.1,77.6,68.3,78
				c-0.8,0-1.6,0-2.3,0c-12.3,0-14.4-10.8-14.6-17.6c-0.2-3.9,2.6-7.2,6.5-7.6c2.3-0.2,4.8-0.2,7.7-0.2c9.2,0,13.2,2.2,14.2,3.9
				C80.5,57.6,81.9,60.9,81.6,65.1z"/>
			<path class="st9" d="M91.7,64.7c0.5,5.6,3.4,14.6,15.8,15.2c12.3,0.3,18.2-6.2,19.3-14.9c0.2-1.8,0.3-6.8,2.6-7
				c0.4-2.1,0.9-4.3,1.4-6.4c0,0-29.8-6.8-37.6,2.8C93.1,54.4,91.1,58.5,91.7,64.7z M96.2,56.5c1.1-1.8,5.1-3.9,14.2-3.9
				c2.9,0,5.5,0,7.7,0.2c3.9,0.4,6.7,3.7,6.5,7.6c-0.2,6.8-2.3,17.6-14.6,17.6c-0.7,0-1.5,0-2.3,0c-7.8-0.4-12.6-5-13.3-12.8
				C94.1,60.9,95.5,57.6,96.2,56.5z"/>
		</g>
		<path class="st9" d="M93.4,61.9c0,0-2-1.6-5.5-1.6c-3.3,0-5.1,1.6-5.1,1.6c-0.5-1.5-1.1-3-1.6-4.5c4.6,0,9.3,0,13.9,0
			C94.4,58.9,93.9,60.4,93.4,61.9z"/>
	</g>
</g>
</svg>
