<!-- Generator: Adobe Illustrator 21.0.2, SVG Export Plug-In  -->
<svg version="1.1"
	 xmlns="http://www.w3.org/2000/svg" xmlns:xlink="http://www.w3.org/1999/xlink" xmlns:a="http://ns.adobe.com/AdobeSVGViewerExtensions/3.0/"
	 x="0px" y="0px" width="41.6px" height="41.6px" viewBox="0 0 41.6 41.6" style="enable-background:new 0 0 41.6 41.6;"
	 xml:space="preserve">
<style type="text/css">
	.st0{fill:none;stroke:#FFCA6E;stroke-width:1.8;stroke-miterlimit:10;}
	.st1{fill:#FFCA6E;}
</style>
<defs>
</defs>
<g>
	<circle class="st0" cx="20.8" cy="20.8" r="19.9"/>
	<g>
		<g>
			<g>
				<path class="st1" d="M15.1,9.7c1.4-0.2,3.3-0.4,5.7-0.4c2.9,0,5,0.7,6.4,1.9c1.3,1.1,2,2.7,2,4.8c0,2.1-0.6,3.7-1.8,4.9
					c-1.6,1.7-4.1,2.5-7,2.5c-0.9,0-1.7,0-2.4-0.2v9.1h-2.9V9.7z M18,20.7c0.6,0.2,1.5,0.2,2.4,0.2c3.6,0,5.7-1.7,5.7-4.9
					c0-3-2.1-4.5-5.4-4.5c-1.3,0-2.3,0.1-2.8,0.2V20.7z"/>
			</g>
			<rect x="12.4" y="25.6" class="st1" width="13.5" height="2.7"/>
		</g>
	</g>
</g>
</svg>
