<!-- Generator: Adobe Illustrator 21.0.2, SVG Export Plug-In  -->
<svg version="1.1"
	 xmlns="http://www.w3.org/2000/svg" xmlns:xlink="http://www.w3.org/1999/xlink" xmlns:a="http://ns.adobe.com/AdobeSVGViewerExtensions/3.0/"
	 x="0px" y="0px" width="38.7px" height="38.7px" viewBox="0 0 38.7 38.7" style="enable-background:new 0 0 38.7 38.7;"
	 xml:space="preserve">
<style type="text/css">
	.st0{fill:none;stroke:#FFCA6E;stroke-width:1.5;stroke-miterlimit:10;}
	.st1{fill:#FFCA6E;}
</style>
<defs>
</defs>
<g>
	<circle class="st0" cx="19.3" cy="19.3" r="18.6"/>
	<g>
		<g>
			<g>
				<path class="st1" d="M14,9c1.3-0.2,3.1-0.4,5.3-0.4c2.7,0,4.7,0.6,6,1.8c1.2,1,1.9,2.6,1.9,4.5c0,1.9-0.6,3.5-1.6,4.6
					c-1.5,1.6-3.8,2.3-6.5,2.3c-0.8,0-1.6,0-2.2-0.2v8.5H14V9z M16.8,19.3c0.6,0.2,1.4,0.2,2.3,0.2c3.3,0,5.4-1.6,5.4-4.6
					c0-2.8-2-4.2-5-4.2c-1.2,0-2.1,0.1-2.6,0.2V19.3z"/>
			</g>
			<rect x="11.5" y="23.8" class="st1" width="12.6" height="2.5"/>
		</g>
	</g>
</g>
</svg>
