<!-- Generator: Adobe Illustrator 21.0.2, SVG Export Plug-In  -->
<svg version="1.1"
	 xmlns="http://www.w3.org/2000/svg" xmlns:xlink="http://www.w3.org/1999/xlink" xmlns:a="http://ns.adobe.com/AdobeSVGViewerExtensions/3.0/"
	 x="0px" y="0px" width="51px" height="51px" viewBox="0 0 51 51" style="enable-background:new 0 0 51 51;" xml:space="preserve">
<style type="text/css">
	.st0{fill:none;stroke:#FFCA6E;stroke-width:2;stroke-miterlimit:10;}
	.st1{fill:#FFCA6E;}
</style>
<defs>
</defs>
<g>
	<circle class="st0" cx="25.5" cy="25.5" r="24.5"/>
	<g>
		<g>
			<g>
				<path class="st1" d="M18.5,11.9c1.8-0.3,4.1-0.5,7-0.5c3.6,0,6.2,0.8,7.9,2.3c1.5,1.3,2.5,3.4,2.5,5.9c0,2.5-0.8,4.5-2.2,6
					c-1.9,2-5,3.1-8.6,3.1c-1.1,0-2.1,0-2.9-0.3v11.3h-3.6V11.9z M22.1,25.4c0.8,0.2,1.8,0.3,3,0.3c4.4,0,7.1-2.1,7.1-6
					c0-3.7-2.6-5.5-6.6-5.5c-1.6,0-2.8,0.1-3.4,0.3V25.4z"/>
			</g>
			<rect x="15.2" y="31.4" class="st1" width="16.6" height="3.3"/>
		</g>
	</g>
</g>
</svg>
