<!-- Generator: Adobe Illustrator 21.0.2, SVG Export Plug-In  -->
<svg version="1.1"
	 xmlns="http://www.w3.org/2000/svg" xmlns:xlink="http://www.w3.org/1999/xlink" xmlns:a="http://ns.adobe.com/AdobeSVGViewerExtensions/3.0/"
	 x="0px" y="0px" width="71.2px" height="71.2px" viewBox="0 0 71.2 71.2" style="enable-background:new 0 0 71.2 71.2;"
	 xml:space="preserve">
<style type="text/css">
	.st0{fill:none;stroke:#FFCA6E;stroke-width:3;stroke-miterlimit:10;}
	.st1{fill:#FFCA6E;}
</style>
<defs>
</defs>
<g>
	<circle class="st0" cx="35.6" cy="35.6" r="34.1"/>
	<g>
		<g>
			<g>
				<path class="st1" d="M25.8,16.6c2.4-0.4,5.6-0.8,9.7-0.8c5,0,8.7,1.2,11,3.3c2.1,1.9,3.4,4.7,3.4,8.2c0,3.5-1,6.3-3,8.4
					c-2.7,2.8-7,4.3-12,4.3c-1.5,0-2.9-0.1-4.1-0.3v15.7h-5.1V16.6z M30.9,35.5c1.1,0.3,2.5,0.4,4.2,0.4c6.1,0,9.8-3,9.8-8.4
					c0-5.2-3.7-7.7-9.2-7.7c-2.2,0-3.9,0.2-4.8,0.4V35.5z"/>
			</g>
			<rect x="21.2" y="43.7" class="st1" width="23.1" height="4.6"/>
		</g>
	</g>
</g>
</svg>
