<!-- Generator: Adobe Illustrator 21.0.2, SVG Export Plug-In  -->
<svg version="1.1"
	 xmlns="http://www.w3.org/2000/svg" xmlns:xlink="http://www.w3.org/1999/xlink" xmlns:a="http://ns.adobe.com/AdobeSVGViewerExtensions/3.0/"
	 x="0px" y="0px" width="263px" height="342.6px" viewBox="0 0 263 342.6" style="enable-background:new 0 0 263 342.6;"
	 xml:space="preserve">
<style type="text/css">
	.st0{fill:#41D18B;}
	.st1{fill:#FFCA6E;}
	.st2{fill:#CCD2D2;}
	.st3{fill:none;stroke:#E04F5E;stroke-width:2;stroke-miterlimit:10;}
	.st4{fill:#E04F5E;}
	.st5{fill:#DE79C5;}
	.st6{fill:#847EC6;}
	.st7{fill:#6FB8D8;}
</style>
<defs>
</defs>
<g>
	<g>
		<g>
			<g>
				<path class="st0" d="M182.2,0v92.8h79.7V0H182.2z M249.5,49.4h-0.2l-8.1-11.1l-8.4,11.1l-0.2,0.3l-0.2-0.3L215,27l-20.5,22.4
					h-0.2V9.3h55.2V49.4z"/>
			</g>
		</g>
		<g>
			<circle class="st0" cx="234.6" cy="24" r="8.3"/>
		</g>
	</g>
</g>
<g>
	<g>
		<g>
			<g>
				<path class="st1" d="M1,0v92.8h79.7V0H1z M68.3,49.4h-0.2L60,38.3l-8.4,11.1l-0.2,0.3l-0.2-0.3L33.8,27L13.3,49.4h-0.2V9.3h55.2
					V49.4z"/>
			</g>
		</g>
		<g>
			<circle class="st1" cx="53.5" cy="24" r="8.3"/>
		</g>
	</g>
</g>
<rect x="1" y="100.8" class="st2" width="79.8" height="6.1"/>
<rect x="1" y="114.8" class="st2" width="79.8" height="6.1"/>
<rect x="1" y="128.7" class="st2" width="79.8" height="6.1"/>
<rect x="91.4" y="100.8" class="st2" width="79.8" height="6.1"/>
<rect x="91.4" y="114.8" class="st2" width="79.8" height="6.1"/>
<rect x="91.4" y="128.7" class="st2" width="79.8" height="6.1"/>
<rect x="182.2" y="100.8" class="st2" width="79.8" height="6.1"/>
<rect x="182.2" y="114.8" class="st2" width="79.8" height="6.1"/>
<rect x="182.2" y="128.7" class="st2" width="79.8" height="6.1"/>
<rect x="1" y="142.7" class="st3" width="79.8" height="17"/>
<rect x="182.2" y="142.7" class="st3" width="79.8" height="17"/>
<g>
	<g>
		<path class="st4" d="M19.1,147.3h1.3v3.3c0.4,0,0.7-0.1,0.9-0.2s0.4-0.6,0.7-1.4c0.3-0.6,0.5-1,0.6-1.2c0.2-0.2,0.3-0.3,0.5-0.4
			c0.2-0.1,0.5-0.1,1-0.1h0.3v1.1l-0.4,0c-0.3,0-0.6,0.1-0.7,0.2c-0.1,0.1-0.3,0.4-0.5,0.9c-0.2,0.5-0.4,0.8-0.5,1
			c-0.2,0.2-0.4,0.4-0.8,0.5c0.6,0.1,1.1,0.7,1.6,1.6l1.4,2.4h-1.4l-1.4-2.4c-0.3-0.5-0.5-0.8-0.7-0.9c-0.2-0.2-0.5-0.2-0.8-0.2v3.5
			h-1.3V147.3z"/>
		<path class="st4" d="M25.6,157.9l-0.1-1.2c0.3,0.1,0.5,0.1,0.7,0.1c0.3,0,0.5,0,0.7-0.1c0.2-0.1,0.3-0.2,0.4-0.4
			c0.1-0.1,0.2-0.5,0.4-1c0-0.1,0.1-0.2,0.1-0.3l-2.9-7.7h1.4l1.6,4.4c0.2,0.6,0.4,1.2,0.6,1.8c0.1-0.6,0.3-1.2,0.5-1.7l1.6-4.5H32
			l-2.9,7.8c-0.3,0.8-0.6,1.4-0.7,1.7c-0.2,0.4-0.5,0.7-0.8,0.9s-0.7,0.3-1.1,0.3C26.2,158,25.9,158,25.6,157.9z"/>
		<path class="st4" d="M33.1,147.3h6v7.6h-1.3v-6.6h-3.4v6.6h-1.3V147.3z"/>
		<path class="st4" d="M41,147.3h1.3v5.8l3.6-5.8h1.4v7.6H46v-5.8l-3.6,5.8H41V147.3z"/>
		<path class="st4" d="M48.6,147.3h6.2v1.1h-2.5v6.6H51v-6.6h-2.5V147.3z"/>
		<path class="st4" d="M56,147.3h1.3v3h1.6c1.1,0,1.9,0.2,2.5,0.6s0.9,1,0.9,1.7c0,0.6-0.2,1.2-0.7,1.6c-0.5,0.5-1.3,0.7-2.3,0.7H56
			V147.3z M57.3,153.8h1.4c0.8,0,1.4-0.1,1.8-0.3c0.4-0.2,0.5-0.5,0.5-0.9c0-0.3-0.1-0.6-0.4-0.9s-0.8-0.4-1.7-0.4h-1.5V153.8z"/>
	</g>
</g>
<g>
	<g>
		<path class="st4" d="M200.3,147.3h1.3v3.3c0.4,0,0.7-0.1,0.9-0.2c0.2-0.2,0.4-0.6,0.7-1.4c0.3-0.6,0.5-1,0.6-1.2
			c0.2-0.2,0.3-0.3,0.5-0.4c0.2-0.1,0.5-0.1,1-0.1h0.3v1.1l-0.4,0c-0.3,0-0.6,0.1-0.7,0.2c-0.1,0.1-0.3,0.4-0.5,0.9
			c-0.2,0.5-0.4,0.8-0.5,1c-0.2,0.2-0.4,0.4-0.8,0.5c0.6,0.1,1.1,0.7,1.6,1.6l1.4,2.4h-1.4l-1.4-2.4c-0.3-0.5-0.5-0.8-0.7-0.9
			c-0.2-0.2-0.5-0.2-0.8-0.2v3.5h-1.3V147.3z"/>
		<path class="st4" d="M206.8,157.9l-0.1-1.2c0.3,0.1,0.5,0.1,0.7,0.1c0.3,0,0.5,0,0.7-0.1c0.2-0.1,0.3-0.2,0.4-0.4
			c0.1-0.1,0.2-0.5,0.4-1c0-0.1,0.1-0.2,0.1-0.3l-2.9-7.7h1.4l1.6,4.4c0.2,0.6,0.4,1.2,0.6,1.8c0.1-0.6,0.3-1.2,0.5-1.7l1.6-4.5h1.3
			l-2.9,7.8c-0.3,0.8-0.6,1.4-0.7,1.7c-0.2,0.4-0.5,0.7-0.8,0.9c-0.3,0.2-0.7,0.3-1.1,0.3C207.4,158,207.1,158,206.8,157.9z"/>
		<path class="st4" d="M214.3,147.3h6v7.6H219v-6.6h-3.4v6.6h-1.3V147.3z"/>
		<path class="st4" d="M222.2,147.3h1.3v5.8l3.6-5.8h1.4v7.6h-1.3v-5.8l-3.6,5.8h-1.4V147.3z"/>
		<path class="st4" d="M229.8,147.3h6.2v1.1h-2.5v6.6h-1.3v-6.6h-2.5V147.3z"/>
		<path class="st4" d="M237.2,147.3h1.3v3h1.6c1.1,0,1.9,0.2,2.5,0.6c0.6,0.4,0.9,1,0.9,1.7c0,0.6-0.2,1.2-0.7,1.6
			c-0.5,0.5-1.3,0.7-2.3,0.7h-3.2V147.3z M238.5,153.8h1.4c0.8,0,1.4-0.1,1.8-0.3c0.4-0.2,0.5-0.5,0.5-0.9c0-0.3-0.1-0.6-0.4-0.9
			s-0.8-0.4-1.7-0.4h-1.5V153.8z"/>
	</g>
</g>
<g>
	<g>
		<g>
			<g>
				<path class="st5" d="M91.5,181.9v92.8h79.7v-92.8H91.5z M158.8,231.3h-0.2l-8.1-11.1l-8.4,11.1l-0.2,0.3l-0.2-0.3l-17.5-22.4
					l-20.5,22.4h-0.2v-40.1h55.2V231.3z"/>
			</g>
		</g>
		<g>
			<circle class="st5" cx="143.9" cy="205.8" r="8.3"/>
		</g>
	</g>
</g>
<g>
	<g>
		<g>
			<g>
				<path class="st6" d="M182.2,181.9v92.8h79.7v-92.8H182.2z M249.5,231.3h-0.2l-8.1-11.1l-8.4,11.1l-0.2,0.3l-0.2-0.3L215,208.8
					l-20.5,22.4h-0.2v-40.1h55.2V231.3z"/>
			</g>
		</g>
		<g>
			<circle class="st6" cx="234.6" cy="205.8" r="8.3"/>
		</g>
	</g>
</g>
<g>
	<g>
		<g>
			<g>
				<path class="st7" d="M1,181.9v92.8h79.7v-92.8H1z M68.3,231.3h-0.2L60,220.2l-8.4,11.1l-0.2,0.3l-0.2-0.3l-17.5-22.4l-20.5,22.4
					h-0.2v-40.1h55.2V231.3z"/>
			</g>
		</g>
		<g>
			<circle class="st7" cx="53.5" cy="205.8" r="8.3"/>
		</g>
	</g>
</g>
<rect x="1" y="282.6" class="st2" width="79.8" height="6.1"/>
<rect x="1" y="296.6" class="st2" width="79.8" height="6.1"/>
<rect x="1" y="310.6" class="st2" width="79.8" height="6.1"/>
<rect x="91.4" y="282.6" class="st2" width="79.8" height="6.1"/>
<rect x="91.4" y="296.6" class="st2" width="79.8" height="6.1"/>
<rect x="91.4" y="310.6" class="st2" width="79.8" height="6.1"/>
<rect x="182.2" y="282.6" class="st2" width="79.8" height="6.1"/>
<rect x="182.2" y="296.6" class="st2" width="79.8" height="6.1"/>
<rect x="182.2" y="310.6" class="st2" width="79.8" height="6.1"/>
<rect x="1" y="324.6" class="st3" width="79.8" height="17"/>
<rect x="91.4" y="324.6" class="st3" width="79.8" height="17"/>
<rect x="182.2" y="324.6" class="st3" width="79.8" height="17"/>
<g>
	<g>
		<path class="st4" d="M19.1,329.1h1.3v3.3c0.4,0,0.7-0.1,0.9-0.2c0.2-0.2,0.4-0.6,0.7-1.4c0.3-0.6,0.5-1,0.6-1.2
			c0.2-0.2,0.3-0.3,0.5-0.4c0.2-0.1,0.5-0.1,1-0.1h0.3v1.1l-0.4,0c-0.3,0-0.6,0.1-0.7,0.2c-0.1,0.1-0.3,0.4-0.5,0.9
			c-0.2,0.5-0.4,0.8-0.5,1c-0.2,0.2-0.4,0.4-0.8,0.5c0.6,0.1,1.1,0.7,1.6,1.6l1.4,2.4h-1.4l-1.4-2.4c-0.3-0.5-0.5-0.8-0.7-0.9
			c-0.2-0.2-0.5-0.2-0.8-0.2v3.5h-1.3V329.1z"/>
		<path class="st4" d="M25.6,339.7l-0.1-1.2c0.3,0.1,0.5,0.1,0.7,0.1c0.3,0,0.5,0,0.7-0.1s0.3-0.2,0.4-0.4c0.1-0.1,0.2-0.5,0.4-1
			c0-0.1,0.1-0.2,0.1-0.3l-2.9-7.7h1.4l1.6,4.4c0.2,0.6,0.4,1.2,0.6,1.8c0.1-0.6,0.3-1.2,0.5-1.7l1.6-4.5H32l-2.9,7.8
			c-0.3,0.8-0.6,1.4-0.7,1.7c-0.2,0.4-0.5,0.7-0.8,0.9c-0.3,0.2-0.7,0.3-1.1,0.3C26.2,339.9,25.9,339.8,25.6,339.7z"/>
		<path class="st4" d="M33.1,329.1h6v7.6h-1.3v-6.6h-3.4v6.6h-1.3V329.1z"/>
		<path class="st4" d="M41,329.1h1.3v5.8l3.6-5.8h1.4v7.6H46V331l-3.6,5.8H41V329.1z"/>
		<path class="st4" d="M48.6,329.1h6.2v1.1h-2.5v6.6H51v-6.6h-2.5V329.1z"/>
		<path class="st4" d="M56,329.1h1.3v3h1.6c1.1,0,1.9,0.2,2.5,0.6c0.6,0.4,0.9,1,0.9,1.7c0,0.6-0.2,1.2-0.7,1.6s-1.3,0.7-2.3,0.7H56
			V329.1z M57.3,335.7h1.4c0.8,0,1.4-0.1,1.8-0.3s0.5-0.5,0.5-0.9c0-0.3-0.1-0.6-0.4-0.9c-0.3-0.3-0.8-0.4-1.7-0.4h-1.5V335.7z"/>
	</g>
</g>
<g>
	<g>
		<path class="st4" d="M109.9,329.1h1.3v3.3c0.4,0,0.7-0.1,0.9-0.2c0.2-0.2,0.4-0.6,0.7-1.4c0.3-0.6,0.5-1,0.6-1.2
			c0.2-0.2,0.3-0.3,0.5-0.4c0.2-0.1,0.5-0.1,1-0.1h0.3v1.1l-0.4,0c-0.3,0-0.6,0.1-0.7,0.2c-0.1,0.1-0.3,0.4-0.5,0.9
			c-0.2,0.5-0.4,0.8-0.5,1c-0.2,0.2-0.4,0.4-0.8,0.5c0.6,0.1,1.1,0.7,1.6,1.6l1.4,2.4H114l-1.4-2.4c-0.3-0.5-0.5-0.8-0.7-0.9
			s-0.5-0.2-0.8-0.2v3.5h-1.3V329.1z"/>
		<path class="st4" d="M116.4,339.7l-0.1-1.2c0.3,0.1,0.5,0.1,0.7,0.1c0.3,0,0.5,0,0.7-0.1c0.2-0.1,0.3-0.2,0.4-0.4
			c0.1-0.1,0.2-0.5,0.4-1c0-0.1,0.1-0.2,0.1-0.3l-2.9-7.7h1.4l1.6,4.4c0.2,0.6,0.4,1.2,0.6,1.8c0.1-0.6,0.3-1.2,0.5-1.7l1.6-4.5h1.3
			l-2.9,7.8c-0.3,0.8-0.6,1.4-0.7,1.7c-0.2,0.4-0.5,0.7-0.8,0.9c-0.3,0.2-0.7,0.3-1.1,0.3C117,339.9,116.7,339.8,116.4,339.7z"/>
		<path class="st4" d="M123.9,329.1h6v7.6h-1.3v-6.6h-3.4v6.6h-1.3V329.1z"/>
		<path class="st4" d="M131.8,329.1h1.3v5.8l3.6-5.8h1.4v7.6h-1.3V331l-3.6,5.8h-1.4V329.1z"/>
		<path class="st4" d="M139.4,329.1h6.2v1.1h-2.5v6.6h-1.3v-6.6h-2.5V329.1z"/>
		<path class="st4" d="M146.8,329.1h1.3v3h1.6c1.1,0,1.9,0.2,2.5,0.6c0.6,0.4,0.9,1,0.9,1.7c0,0.6-0.2,1.2-0.7,1.6
			c-0.5,0.5-1.3,0.7-2.3,0.7h-3.2V329.1z M148.1,335.7h1.4c0.8,0,1.4-0.1,1.8-0.3c0.4-0.2,0.5-0.5,0.5-0.9c0-0.3-0.1-0.6-0.4-0.9
			c-0.3-0.3-0.8-0.4-1.7-0.4h-1.5V335.7z"/>
	</g>
</g>
<g>
	<g>
		<path class="st4" d="M200.3,329.1h1.3v3.3c0.4,0,0.7-0.1,0.9-0.2c0.2-0.2,0.4-0.6,0.7-1.4c0.3-0.6,0.5-1,0.6-1.2s0.3-0.3,0.5-0.4
			c0.2-0.1,0.5-0.1,1-0.1h0.3v1.1l-0.4,0c-0.3,0-0.6,0.1-0.7,0.2c-0.1,0.1-0.3,0.4-0.5,0.9c-0.2,0.5-0.4,0.8-0.5,1
			c-0.2,0.2-0.4,0.4-0.8,0.5c0.6,0.1,1.1,0.7,1.6,1.6l1.4,2.4h-1.4l-1.4-2.4c-0.3-0.5-0.5-0.8-0.7-0.9s-0.5-0.2-0.8-0.2v3.5h-1.3
			V329.1z"/>
		<path class="st4" d="M206.8,339.7l-0.1-1.2c0.3,0.1,0.5,0.1,0.7,0.1c0.3,0,0.5,0,0.7-0.1c0.2-0.1,0.3-0.2,0.4-0.4
			c0.1-0.1,0.2-0.5,0.4-1c0-0.1,0.1-0.2,0.1-0.3l-2.9-7.7h1.4l1.6,4.4c0.2,0.6,0.4,1.2,0.6,1.8c0.1-0.6,0.3-1.2,0.5-1.7l1.6-4.5h1.3
			l-2.9,7.8c-0.3,0.8-0.6,1.4-0.7,1.7c-0.2,0.4-0.5,0.7-0.8,0.9c-0.3,0.2-0.7,0.3-1.1,0.3C207.4,339.9,207.1,339.8,206.8,339.7z"/>
		<path class="st4" d="M214.3,329.1h6v7.6H219v-6.6h-3.4v6.6h-1.3V329.1z"/>
		<path class="st4" d="M222.2,329.1h1.3v5.8l3.6-5.8h1.4v7.6h-1.3V331l-3.6,5.8h-1.4V329.1z"/>
		<path class="st4" d="M229.8,329.1h6.2v1.1h-2.5v6.6h-1.3v-6.6h-2.5V329.1z"/>
		<path class="st4" d="M237.2,329.1h1.3v3h1.6c1.1,0,1.9,0.2,2.5,0.6c0.6,0.4,0.9,1,0.9,1.7c0,0.6-0.2,1.2-0.7,1.6s-1.3,0.7-2.3,0.7
			h-3.2V329.1z M238.5,335.7h1.4c0.8,0,1.4-0.1,1.8-0.3s0.5-0.5,0.5-0.9c0-0.3-0.1-0.6-0.4-0.9c-0.3-0.3-0.8-0.4-1.7-0.4h-1.5V335.7
			z"/>
	</g>
</g>
</svg>
