<!-- Generator: Adobe Illustrator 18.0.0, SVG Export Plug-In  -->
<svg version="1.1"
	 xmlns="http://www.w3.org/2000/svg" xmlns:xlink="http://www.w3.org/1999/xlink" xmlns:a="http://ns.adobe.com/AdobeSVGViewerExtensions/3.0/"
	 x="0px" y="0px" width="318.4px" height="47.9px" viewBox="0 0 318.4 47.9" enable-background="new 0 0 318.4 47.9"
	 xml:space="preserve">
<defs>
</defs>
<g>
	<polyline fill="#FF4B68" points="8.8,24.3 27.2,0.9 38,0.9 19,24.8 39.8,47 28.2,47 8.8,26 8.8,47 0,47 0,0.9 8.8,0.9 8.8,24.3 	
		"/>
	<path fill="#FF4B68" d="M49.9,0.9l3.5,7.2h21.7l3.6-7.2h9.6L64.8,47h-0.9L40.3,0.9H49.9z M64.4,29.8l6.6-13.9H57.7L64.4,29.8z"/>
	<path fill="#FF4B68" d="M131.3,2l-25.7,36.8h24.8V47H90.1v-1l25.8-36.9H92V0.9h39.3V2z"/>
	<path fill="#FF4B68" d="M171.2,47l-3.5-7.2h-21.7l-3.6,7.2h-9.6l23.6-46.1h0.9L180.7,47H171.2z M156.7,18.2l-6.6,13.9h13.2
		L156.7,18.2z"/>
	<path fill="#FF4B68" d="M214.3,47L195,26v21h-8.8V0.9h8.8v23.5l18.3-23.4h10.8l-19,23.8L226,47H214.3z"/>
	<path fill="#FF4B68" d="M250.1,47.9c-3.3,0-6.4-0.6-9.3-1.9c-2.9-1.3-5.4-3-7.6-5.1c-2.2-2.2-3.9-4.7-5.1-7.6
		c-1.3-2.9-1.9-6-1.9-9.3c0-3.3,0.6-6.4,1.9-9.3c1.3-2.9,3-5.5,5.1-7.6c2.2-2.2,4.7-3.9,7.6-5.1c2.9-1.3,6-1.9,9.3-1.9
		c3.3,0,6.4,0.6,9.3,1.9c2.9,1.3,5.4,3,7.6,5.1c2.2,2.2,3.9,4.7,5.1,7.6c1.3,2.9,1.9,6,1.9,9.3c0,3.3-0.6,6.4-1.9,9.3
		c-1.3,2.9-3,5.4-5.1,7.6c-2.2,2.2-4.7,3.9-7.6,5.1C256.6,47.3,253.5,47.9,250.1,47.9z M250.2,8.3c-2.1,0-4.1,0.4-5.9,1.3
		c-1.8,0.9-3.4,2-4.8,3.4c-1.4,1.4-2.4,3.1-3.2,5c-0.8,1.9-1.2,3.9-1.2,6c0,2.1,0.4,4.1,1.2,6c0.8,1.9,1.9,3.6,3.2,5
		c1.4,1.4,3,2.6,4.8,3.5c1.8,0.9,3.8,1.3,5.9,1.3c2.1,0,4.1-0.4,5.9-1.3c1.8-0.9,3.4-2,4.8-3.5c1.4-1.4,2.4-3.1,3.2-5
		c0.8-1.9,1.2-3.9,1.2-6c0-2.1-0.4-4-1.2-6c-0.8-1.9-1.9-3.6-3.2-5c-1.4-1.4-3-2.6-4.8-3.4C254.2,8.7,252.3,8.3,250.2,8.3z"/>
	<path fill="#FF4B68" d="M318.4,0.9L296.4,47h-0.5L274,0.9h9.7l12.4,26.7l12.4-26.7H318.4z"/>
</g>
</svg>
