<!-- Generator: Adobe Illustrator 18.0.0, SVG Export Plug-In  -->
<svg version="1.1"
	 xmlns="http://www.w3.org/2000/svg" xmlns:xlink="http://www.w3.org/1999/xlink" xmlns:a="http://ns.adobe.com/AdobeSVGViewerExtensions/3.0/"
	 x="0px" y="0px" width="47.8px" height="47.9px" viewBox="0 0 47.8 47.9" enable-background="new 0 0 47.8 47.9"
	 xml:space="preserve">
<defs>
</defs>
<path fill="#FF4B68" d="M23.9,47.9c-3.3,0-6.4-0.6-9.3-1.9c-2.9-1.3-5.4-3-7.6-5.1c-2.2-2.2-3.9-4.7-5.1-7.6C0.6,30.4,0,27.3,0,24
	c0-3.3,0.6-6.4,1.9-9.3C3.2,11.7,4.9,9.2,7,7c2.2-2.2,4.7-3.9,7.6-5.1s6-1.9,9.3-1.9c3.3,0,6.4,0.6,9.3,1.9c2.9,1.3,5.4,3,7.6,5.1
	c2.2,2.2,3.9,4.7,5.1,7.6c1.3,2.9,1.9,6,1.9,9.3c0,3.3-0.6,6.4-1.9,9.3c-1.3,2.9-3,5.4-5.1,7.6c-2.2,2.2-4.7,3.9-7.6,5.1
	C30.3,47.3,27.2,47.9,23.9,47.9z M23.9,8.3c-2.1,0-4.1,0.4-5.9,1.3c-1.8,0.9-3.4,2-4.8,3.4c-1.4,1.4-2.4,3.1-3.2,5
	c-0.8,1.9-1.2,3.9-1.2,6c0,2.1,0.4,4.1,1.2,6c0.8,1.9,1.9,3.6,3.2,5c1.4,1.4,3,2.6,4.8,3.5c1.8,0.9,3.8,1.3,5.9,1.3
	c2.1,0,4.1-0.4,5.9-1.3c1.8-0.9,3.4-2,4.8-3.5c1.4-1.4,2.4-3.1,3.2-5s1.2-3.9,1.2-6c0-2.1-0.4-4-1.2-6c-0.8-1.9-1.9-3.6-3.2-5
	c-1.4-1.4-3-2.6-4.8-3.4C28,8.7,26,8.3,23.9,8.3z"/>
</svg>
