<!-- Generator: Adobe Illustrator 18.0.0, SVG Export Plug-In  -->
<svg version="1.1"
	 xmlns="http://www.w3.org/2000/svg" xmlns:xlink="http://www.w3.org/1999/xlink" xmlns:a="http://ns.adobe.com/AdobeSVGViewerExtensions/3.0/"
	 x="0px" y="0px" width="145.3px" height="105.5px" viewBox="0 0 145.3 105.5" enable-background="new 0 0 145.3 105.5"
	 xml:space="preserve">
<defs>
</defs>
<path fill="#FC5185" d="M100.1,104.1c0-10.7,9.4-19.3,21.1-19.3s21.1,8.7,21.1,19.3H100.1z"/>
<line fill="none" stroke="#FC5185" stroke-width="3" stroke-miterlimit="10" x1="121.1" y1="87.2" x2="137" y2="49.8"/>
<line fill="none" stroke="#FC5185" stroke-width="3" stroke-miterlimit="10" x1="134.3" y1="37.6" x2="93.8" y2="11.5"/>
<circle fill="none" stroke="#FC5185" stroke-width="2" stroke-miterlimit="10" cx="137.6" cy="43.5" r="6.7"/>
<linearGradient id="SVGID_1_" gradientUnits="userSpaceOnUse" x1="27.3255" y1="39.7526" x2="46.6187" y2="111.756">
	<stop  offset="0" style="stop-color:#FBFFA3;stop-opacity:0.8"/>
	<stop  offset="0.187" style="stop-color:#FBFFAD;stop-opacity:0.6504"/>
	<stop  offset="0.5096" style="stop-color:#FDFFC9;stop-opacity:0.3923"/>
	<stop  offset="0.9265" style="stop-color:#FFFFF6;stop-opacity:5.883831e-02"/>
	<stop  offset="1" style="stop-color:#FFFFFF;stop-opacity:0"/>
</linearGradient>
<path fill="url(#SVGID_1_)" d="M75,49.9l-5.2,55.6H0l58.6-74.2l0.5,0.2h0l0.9,1.4c-1.3,5,0.7,10.6,5.3,13.4c2.5,1.5,5.3,2,7.9,1.6
	l0.9,1l0.1,0.2L75,49.9z"/>
<path fill="none" stroke="#FC5185" stroke-width="2" stroke-miterlimit="10" d="M81.5,42.4c-1.8,3.1-4.9,5-8.2,5.6
	c-2.6,0.4-5.4,0-7.9-1.5c-4.6-2.8-6.7-8.2-5.3-13.2c0.3-1,0.7-2,1.3-2.9L81.5,42.4z"/>
<path fill="#FC5185" d="M49.6,23.3C55.9,12.4,67.3-0.3,83.2,6.2c0.8,0.3-1-0.4,1.1,0.5c0.5,0.2,2.5-6.9,2.9-6.6
	C88.2,0.6,98,7.7,98.9,8.3c1.1,0.8-5.7,4.5-4.8,5.3c11.4,10.9,4.2,24.2-1.8,34.5L49.6,23.3z"/>
</svg>
