<!-- Generator: Adobe Illustrator 18.0.0, SVG Export Plug-In  -->
<svg version="1.1"
	 xmlns="http://www.w3.org/2000/svg" xmlns:xlink="http://www.w3.org/1999/xlink" xmlns:a="http://ns.adobe.com/AdobeSVGViewerExtensions/3.0/"
	 x="0px" y="0px" width="120px" height="11.4px" viewBox="0 0 120 11.4" enable-background="new 0 0 120 11.4" xml:space="preserve"
	>
<defs>
</defs>
<g>
	<path fill="#FC5185" d="M10.8,5.1c0,0.2,0,0.4,0,0.6c0,0.2,0,0.3,0,0.5c0,0.1,0,0.3,0,0.3c-0.1,0.7-0.2,1.3-0.5,1.8
		C9.9,8.8,9.5,9.3,9,9.7c-0.5,0.4-1,0.7-1.6,1C6.8,10.9,6.1,11,5.4,11c-0.7,0-1.4-0.1-2.1-0.4S2.1,9.9,1.6,9.4
		C1.1,8.9,0.7,8.4,0.4,7.7C0.1,7,0,6.3,0,5.6s0.1-1.4,0.4-2.1c0.3-0.7,0.7-1.2,1.2-1.7c0.5-0.5,1.1-0.9,1.7-1.2s1.4-0.4,2.1-0.4
		c0.9,0,1.8,0.2,2.6,0.7c0.8,0.4,1.4,1,1.9,1.8l-1.7,1C7.9,3.2,7.5,2.8,7,2.5C6.5,2.2,6,2,5.4,2C5,2,4.5,2.1,4.1,2.3
		C3.7,2.5,3.3,2.8,3,3.1C2.7,3.4,2.5,3.8,2.3,4.2C2.1,4.7,2,5.1,2,5.6C2,6.1,2.1,6.5,2.3,7C2.5,7.4,2.7,7.8,3,8.1
		c0.3,0.3,0.7,0.6,1.1,0.8C4.5,9.1,5,9.2,5.4,9.2c0.4,0,0.7-0.1,1-0.2c0.3-0.1,0.6-0.3,0.9-0.5c0.3-0.2,0.5-0.4,0.7-0.7
		c0.2-0.3,0.4-0.6,0.5-0.9H4.7V5.1H10.8z"/>
	<path fill="#FC5185" d="M14.4,10.8h-2V0.3h4.8c0.5,0,1,0.1,1.5,0.3c0.4,0.2,0.8,0.4,1.1,0.7c0.3,0.3,0.6,0.7,0.7,1.1
		c0.2,0.4,0.3,0.9,0.3,1.5c0,0.8-0.2,1.5-0.6,2.1c-0.4,0.6-0.9,1-1.6,1.3c0.9,1.2,1.8,2.3,2.6,3.5h-2.4c-0.4-0.5-0.8-1.1-1.2-1.6
		c-0.4-0.6-0.8-1.1-1.2-1.7h-2V10.8z M14.4,5.7h2.8c0.2,0,0.4,0,0.6-0.1c0.2-0.1,0.4-0.2,0.5-0.3s0.3-0.3,0.4-0.6
		c0.1-0.2,0.1-0.5,0.1-0.8c0-0.2,0-0.3-0.1-0.5c0-0.2-0.1-0.4-0.2-0.6c-0.1-0.2-0.3-0.4-0.5-0.5c-0.2-0.1-0.5-0.2-0.8-0.2h-2.8V5.7z
		"/>
	<path fill="#FC5185" d="M21.5,10.8l5.4-10.5h0.2l5.4,10.5h-2.2l-0.8-1.6h-4.9l-0.8,1.6H21.5z M25.5,7.4h3L27,4.3L25.5,7.4z"/>
	<path fill="#FC5185" d="M35.7,2.1v2.6h5.1v1.8h-5.1v4.3h-2V0.3h7.7v1.8H35.7z"/>
	<path fill="#FC5185" d="M45.3,10.8h-2V0.4h2V10.8z"/>
	<path fill="#FC5185" d="M57.5,8.2c-0.2,0.4-0.5,0.8-0.8,1.1c-0.3,0.3-0.7,0.6-1.1,0.9c-0.4,0.2-0.8,0.4-1.3,0.6
		c-0.5,0.1-1,0.2-1.5,0.2c-0.7,0-1.4-0.1-2.1-0.4s-1.2-0.7-1.7-1.2c-0.5-0.5-0.9-1.1-1.2-1.7c-0.3-0.7-0.4-1.4-0.4-2.1
		s0.1-1.4,0.4-2.1c0.3-0.7,0.7-1.2,1.2-1.7c0.5-0.5,1.1-0.9,1.7-1.2c0.7-0.3,1.4-0.4,2.1-0.4c0.5,0,1,0.1,1.5,0.2
		c0.5,0.1,0.9,0.3,1.3,0.6c0.4,0.2,0.8,0.5,1.1,0.9c0.3,0.3,0.6,0.7,0.8,1.1l-1.9,0.8C55.4,3.5,55.2,3.2,55,3
		c-0.2-0.2-0.4-0.4-0.7-0.5c-0.2-0.2-0.5-0.3-0.8-0.4C53.3,2.1,53,2,52.7,2c-0.5,0-0.9,0.1-1.3,0.3c-0.4,0.2-0.8,0.5-1.1,0.8
		c-0.3,0.3-0.5,0.7-0.7,1.1c-0.2,0.4-0.3,0.9-0.3,1.4c0,0.5,0.1,0.9,0.3,1.4c0.2,0.4,0.4,0.8,0.7,1.1c0.3,0.3,0.7,0.6,1.1,0.8
		c0.4,0.2,0.9,0.3,1.3,0.3c0.3,0,0.6,0,0.9-0.1c0.3-0.1,0.5-0.2,0.8-0.4c0.2-0.2,0.5-0.3,0.7-0.5c0.2-0.2,0.4-0.4,0.5-0.7L57.5,8.2z
		"/>
	<path fill="#FC5185" d="M68,10.8h-4.1V0.3H68c1.5,0,2.7,0.4,3.7,1.3c0.5,0.5,0.9,1,1.2,1.7c0.3,0.7,0.4,1.4,0.4,2.2
		c0,0.8-0.1,1.6-0.4,2.2c-0.3,0.7-0.7,1.2-1.2,1.7c-0.5,0.4-1,0.8-1.6,1C69.5,10.7,68.8,10.8,68,10.8z M65.9,9H68
		c0.4,0,0.7,0,1.1-0.1c0.4-0.1,0.7-0.3,1-0.5c0.3-0.3,0.6-0.6,0.8-1.1c0.2-0.4,0.3-1,0.3-1.8c0-0.7-0.1-1.3-0.3-1.8S70.5,3,70.2,2.8
		c-0.3-0.2-0.7-0.4-1-0.5c-0.4-0.1-0.8-0.1-1.1-0.1h-2.1V9z"/>
	<path fill="#FC5185" d="M76.7,2.1v2.6h5.1v1.8h-5.1V9h5.7v1.8h-7.7V0.3h7.7v1.8H76.7z"/>
	<path fill="#FC5185" d="M84.1,9.4l1.1-1.6c0.5,0.4,1.1,0.7,1.6,0.9c0.6,0.3,1.1,0.4,1.8,0.4c0.3,0,0.6,0,0.9-0.1
		C89.6,9,89.9,8.9,90,8.7c0.2-0.1,0.3-0.3,0.4-0.4c0.1-0.2,0.1-0.3,0.1-0.5c0-0.2-0.1-0.4-0.2-0.5C90.2,7.1,90,7,89.8,6.9
		c-0.2-0.1-0.5-0.2-0.8-0.2c-0.3-0.1-0.6-0.1-0.9-0.2c-0.2,0-0.5-0.1-0.7-0.1c-0.3-0.1-0.6-0.1-0.9-0.2C86.3,6,86,5.9,85.7,5.8
		c-0.3-0.1-0.5-0.3-0.8-0.6c-0.2-0.2-0.4-0.5-0.6-0.8c-0.1-0.3-0.2-0.7-0.2-1.1c0-0.6,0.1-1.1,0.4-1.5c0.2-0.4,0.6-0.7,1-1
		c0.4-0.2,0.8-0.4,1.3-0.5c0.5-0.1,0.9-0.1,1.4-0.1c0.4,0,0.8,0,1.2,0.1s0.7,0.1,1,0.3c0.3,0.1,0.6,0.2,0.9,0.4
		c0.3,0.2,0.6,0.4,0.9,0.6l-1.1,1.6c-0.5-0.3-1-0.6-1.4-0.8C89.1,2.1,88.6,2,88.1,2c-0.2,0-0.4,0-0.6,0.1c-0.2,0-0.4,0.1-0.6,0.2
		c-0.2,0.1-0.4,0.2-0.5,0.4c-0.1,0.1-0.2,0.3-0.2,0.5c0,0.2,0.1,0.4,0.2,0.5C86.6,3.9,86.8,4,87,4.1c0.2,0.1,0.5,0.2,0.8,0.2
		c0.3,0.1,0.6,0.1,0.8,0.2c0.2,0,0.4,0.1,0.7,0.1c0.3,0,0.6,0.1,0.8,0.2C90.5,5,90.7,5.1,91,5.2c0.3,0.1,0.5,0.3,0.8,0.6
		C92,6,92.2,6.3,92.3,6.6c0.1,0.3,0.2,0.7,0.2,1.2c0,0.5-0.1,1-0.3,1.4c-0.2,0.4-0.5,0.7-0.8,1c-0.4,0.3-0.8,0.5-1.3,0.6
		c-0.5,0.1-1,0.2-1.6,0.2c-0.5,0-1,0-1.4-0.1c-0.4-0.1-0.8-0.2-1.1-0.3c-0.3-0.1-0.7-0.3-1-0.5C84.7,9.9,84.4,9.7,84.1,9.4z"/>
	<path fill="#FC5185" d="M109.3,5.1c0,0.2,0,0.4,0,0.6c0,0.2,0,0.3,0,0.5c0,0.1,0,0.3,0,0.3c-0.1,0.7-0.2,1.3-0.5,1.8
		s-0.7,1-1.2,1.5c-0.5,0.4-1,0.7-1.6,1c-0.6,0.2-1.3,0.3-1.9,0.3c-0.7,0-1.4-0.1-2.1-0.4s-1.2-0.7-1.7-1.2c-0.5-0.5-0.9-1.1-1.2-1.7
		c-0.3-0.7-0.4-1.4-0.4-2.1s0.1-1.4,0.4-2.1c0.3-0.7,0.7-1.2,1.2-1.7c0.5-0.5,1.1-0.9,1.7-1.2s1.4-0.4,2.1-0.4
		c0.9,0,1.8,0.2,2.6,0.7c0.8,0.4,1.4,1,1.9,1.8l-1.7,1c-0.3-0.4-0.7-0.8-1.2-1.1c-0.5-0.3-1-0.5-1.6-0.5c-0.5,0-0.9,0.1-1.3,0.3
		c-0.4,0.2-0.8,0.5-1.1,0.8c-0.3,0.3-0.6,0.7-0.7,1.1c-0.2,0.4-0.3,0.9-0.3,1.4c0,0.5,0.1,0.9,0.3,1.4c0.2,0.4,0.4,0.8,0.7,1.1
		c0.3,0.3,0.7,0.6,1.1,0.8c0.4,0.2,0.9,0.3,1.3,0.3c0.4,0,0.7-0.1,1-0.2c0.3-0.1,0.6-0.3,0.9-0.5c0.3-0.2,0.5-0.4,0.7-0.7
		c0.2-0.3,0.4-0.6,0.5-0.9h-3.9V5.1H109.3z"/>
	<path fill="#FC5185" d="M119.8,10.8l-6.9-6.2v6.2h-2V0.4h0.2l6.9,6.3V0.4h2v10.5H119.8z"/>
	<g>
		<path fill="none" stroke="#FC5185" stroke-width="0.3" stroke-miterlimit="10" d="M94.5,2.2v6.1c0,0.2,0.2,0.4,0.4,0.4
			c0.2,0,0.4-0.2,0.4-0.4V2.2H94.5z"/>
		<path fill="none" stroke="#FC5185" stroke-width="0.3" stroke-miterlimit="10" d="M96.1,2.2v6.1c0,0.2-0.2,0.4-0.4,0.4
			s-0.4-0.2-0.4-0.4V2.2H96.1z"/>
		<path fill="none" stroke="#FC5185" stroke-width="0.3" stroke-miterlimit="10" d="M96.1,2.2v6.1c0,0.2,0.2,0.4,0.4,0.4
			c0.2,0,0.4-0.2,0.4-0.4V2.2H96.1z"/>
		<rect x="94.4" y="1.3" fill="none" stroke="#FC5185" stroke-width="0.3" stroke-miterlimit="10" width="2.6" height="0.9"/>
		<path fill="none" stroke="#FC5185" stroke-width="0.3" stroke-miterlimit="10" d="M97,0.5c0-0.2-0.2-0.4-0.4-0.4h-1.7
			c-0.2,0-0.4,0.2-0.4,0.4v0.7H97V0.5z"/>
		<polyline fill="none" stroke="#FC5185" stroke-width="0.3" stroke-miterlimit="10" points="94.5,8.4 95.7,11 96.9,8.4 		"/>
		<line fill="none" stroke="#FC5185" stroke-width="0.3" stroke-miterlimit="10" x1="95.3" y1="10.2" x2="96.1" y2="10.2"/>
	</g>
</g>
</svg>
