<!-- Generator: Adobe Illustrator 21.0.2, SVG Export Plug-In  -->
<svg version="1.1"
	 xmlns="http://www.w3.org/2000/svg" xmlns:xlink="http://www.w3.org/1999/xlink" xmlns:a="http://ns.adobe.com/AdobeSVGViewerExtensions/3.0/"
	 x="0px" y="0px" width="14.1px" height="14.1px" viewBox="0 0 14.1 14.1" style="enable-background:new 0 0 14.1 14.1;"
	 xml:space="preserve">
<style type="text/css">
	.st0{fill:#FFFFFF;}
</style>
<defs>
</defs>
<g>
	<g>
		<path class="st0" d="M7,14.1l0-3.4c0.2,0,0.4,0,0.6-0.1L8.2,14C7.8,14.1,7.4,14.1,7,14.1z M3.4,13.1c-0.4-0.2-0.7-0.4-1-0.7
			l2.2-2.6C4.8,10,5,10.1,5.2,10.2L3.4,13.1z M11.6,12.4L9.4,9.8c0.2-0.1,0.3-0.3,0.5-0.5l2.6,2.2C12.2,11.9,11.9,12.2,11.6,12.4z
			 M0.3,9.4C0.2,9.1,0.1,8.6,0,8.2l3.4-0.6c0,0.2,0.1,0.4,0.2,0.6L0.3,9.4z M14,8.2l-3.4-0.6c0-0.2,0.1-0.4,0.1-0.6l3.4,0v0
			C14.1,7.4,14.1,7.8,14,8.2z M3.5,5.7L0.3,4.6c0.1-0.4,0.3-0.8,0.5-1.1l3,1.7C3.7,5.3,3.6,5.5,3.5,5.7z M10.2,5.1
			C10.1,5,9.9,4.8,9.8,4.6l2.6-2.2c0.3,0.3,0.5,0.7,0.7,1L10.2,5.1z M5.1,3.8L3.4,0.9c0.4-0.2,0.7-0.4,1.1-0.5l1.2,3.2
			C5.5,3.6,5.3,3.7,5.1,3.8z M8.2,3.5C8,3.5,7.8,3.4,7.6,3.4L8.2,0C8.6,0.1,9,0.2,9.4,0.3L8.2,3.5z"/>
	</g>
</g>
</svg>
