<!-- Generator: Adobe Illustrator 21.0.2, SVG Export Plug-In  -->
<svg version="1.1"
	 xmlns="http://www.w3.org/2000/svg" xmlns:xlink="http://www.w3.org/1999/xlink" xmlns:a="http://ns.adobe.com/AdobeSVGViewerExtensions/3.0/"
	 x="0px" y="0px" width="24.7px" height="36.3px" viewBox="0 0 24.7 36.3" style="enable-background:new 0 0 24.7 36.3;"
	 xml:space="preserve">
<style type="text/css">
	.st0{fill:#FFFFFF;stroke:url(#SVGID_1_);stroke-miterlimit:10;}
	.st1{fill:#FFFFFF;stroke:url(#SVGID_2_);stroke-miterlimit:10;}
</style>
<defs>
</defs>
<g>
	
		<linearGradient id="SVGID_1_" gradientUnits="userSpaceOnUse" x1="435.8541" y1="740.1133" x2="460.6587" y2="740.1133" gradientTransform="matrix(-9.373534e-02 1.5108 -1.5108 -9.373534e-02 1172.6974 -589.8714)">
		<stop  offset="0" style="stop-color:#3690B2"/>
		<stop  offset="0.4233" style="stop-color:#007994"/>
		<stop  offset="1" style="stop-color:#3690B2"/>
	</linearGradient>
	<path class="st0" d="M23.6,20.6c-0.9-1-2.4-1-3.4-0.1l1.5-1.4c1-0.9,1-2.4,0.1-3.4c-0.9-1-2.4-1-3.4-0.2l0.9-0.8l0,0
		c1-0.9,1-2.4,0.1-3.4c-0.9-1-2.4-1-3.3-0.2l7.1-6.5c1-0.9,1-2.4,0.1-3.4s-2.4-1-3.4-0.1L5.7,14.4l0.2-5.7C6,7.4,5,6.3,3.6,6.2
		c-1.3-0.1-2.4,1-2.5,2.3L0.5,24.4l10.3,11.2L23.4,24C24.4,23.1,24.5,21.6,23.6,20.6z"/>
</g>
</svg>
