<!-- Generator: Adobe Illustrator 21.0.2, SVG Export Plug-In  -->
<svg version="1.1"
	 xmlns="http://www.w3.org/2000/svg" xmlns:xlink="http://www.w3.org/1999/xlink" xmlns:a="http://ns.adobe.com/AdobeSVGViewerExtensions/3.0/"
	 x="0px" y="0px" width="55.6px" height="55.6px" viewBox="0 0 55.6 55.6" style="enable-background:new 0 0 55.6 55.6;"
	 xml:space="preserve">
<style type="text/css">
	.st0{fill:url(#SVGID_1_);}
	.st1{clip-path:url(#SVGID_3_);}
	.st2{fill:#D8AA8B;}
	.st3{fill:#407990;}
	.st4{fill:#FFFFFF;}
	.st5{fill:#C1977A;}
	.st6{fill:#332113;}
	.st7{fill:#B2CBCC;}
	.st8{fill:none;stroke:#B27042;stroke-width:2;stroke-linecap:round;stroke-linejoin:round;stroke-miterlimit:10;}
	.st9{fill:url(#SVGID_4_);}
	.st10{fill:#305B6C;}
	.st11{fill:#EAEAEA;}
	.st12{fill:#6B2405;}
	.st13{fill:url(#SVGID_5_);}
	.st14{clip-path:url(#SVGID_7_);}
	.st15{fill:url(#SVGID_8_);}
</style>
<defs>
</defs>
<linearGradient id="SVGID_1_" gradientUnits="userSpaceOnUse" x1="0" y1="27.8151" x2="55.6302" y2="27.8151">
	<stop  offset="0" style="stop-color:#3690B2"/>
	<stop  offset="0.4233" style="stop-color:#00BFD4"/>
	<stop  offset="1" style="stop-color:#3690B2"/>
</linearGradient>
<path class="st0" d="M55.6,27.8c0,15.4-12.5,27.8-27.8,27.8S0,43.2,0,27.8S12.5,0,27.8,0S55.6,12.5,55.6,27.8z M52.4,27.8
	c0-13.6-11-24.6-24.6-24.6S3.2,14.2,3.2,27.8s11,24.6,24.6,24.6S52.4,41.4,52.4,27.8z"/>
<g>
	<defs>
		<circle id="SVGID_2_" cx="27.8" cy="27.9" r="24.5"/>
	</defs>
	<clipPath id="SVGID_3_">
		<use xlink:href="#SVGID_2_"  style="overflow:visible;"/>
	</clipPath>
	<g class="st1">
		<g>
			<path class="st2" d="M33.6,40.3c-0.3-0.3-0.6-0.7-0.6-1.1c-0.3-1.8-0.3-6.1-0.3-6.9c0-0.1-0.1-0.1-0.1-0.1h-0.4h-8.5h-0.4
				c-0.1,0-0.1,0-0.1,0.1c0,0.8,0,5-0.3,6.9c-0.1,0.5-0.4,1-0.9,1.2C23.7,42.5,31.9,40.9,33.6,40.3z"/>
			<path class="st3" d="M12.9,43.3C12.9,43.3,12.9,43.3,12.9,43.3l-1.1,0.3c-0.9,0.2-1.7,0.6-2.5,1.1c-3.9,2.6-4,6.8-4.2,7.6
				c0,0.1,0,0.1,0.1,0.1h19.5c-1.4-3.8-2.9-7.6-4.4-11.5L12.9,43.3z"/>
			<path class="st4" d="M35,40.8l-0.9-0.3c-0.2-0.1-0.4-0.2-0.6-0.3c-1.7,0.6-3.5,0.9-5.5,0.9c0.8,0,1.2,0,2,0.4
				c-2.9,0.3-6.3,0.9-8.1-1.2c-0.1,0.1-0.2,0.1-0.4,0.1l-0.9,0.3l-0.3,0.1c1.5,3.9,3,7.7,4.4,11.5h3.1h4.8c1.7-3.6,3-7.3,4.5-10.9
				L35,40.8z"/>
			<path class="st3" d="M46.7,45c-0.8-0.6-1.8-1-2.9-1.3l-1.1-0.3c0,0,0,0,0,0L37,41.5c-1.5,3.7-2.8,7.4-4.5,10.9h17.8
				c0.1,0,0.1-0.1,0.1-0.1C50.4,51.5,50.3,47.6,46.7,45z"/>
			<g>
				<path class="st5" d="M32.7,37.5c0-2-0.1-3.9-0.1-4.4c0-0.1-0.1-0.1-0.1-0.1h-9.4C23.1,33,23,33,23,33.1c0,0.5-0.1,2.4-0.1,4.4
					c0.7,0.7,3.1,1.7,4.8,1.7C29.4,39.3,32,38.1,32.7,37.5z"/>
			</g>
			<g>
				<path class="st2" d="M19,23c0.7,1.8,0.3,4.6-0.8,5.1c-1.1,0.5-2.6-1.4-3.2-3.1c-0.7-1.8-0.3-3.6,0.8-4.2
					C16.9,20.2,18.3,21.2,19,23z"/>
				<path class="st2" d="M36.7,23c-0.7,1.8-0.3,4.6,0.8,5.1c1.1,0.5,2.6-1.4,3.2-3.1c0.7-1.8,0.3-3.6-0.8-4.2
					C38.8,20.2,37.3,21.2,36.7,23z"/>
			</g>
			<path class="st2" d="M27.7,7.3C16.6,6.9,16.4,17.6,16.6,21.1c0.1,2.6,0.7,6.3,1.3,8.1c0.3,1.1,0.9,2.8,1.7,3.6
				c2.2,2.1,4.9,3.9,6.5,4.5c0.3,0.1,1,0.2,1.6,0.2c0.7,0,1.3,0,1.6-0.2c1.7-0.6,4.4-2.5,6.5-4.5c0.8-0.8,1.4-2.5,1.7-3.6
				c0.5-1.8,1.1-5.6,1.3-8.1C39,17.6,38.8,6.9,27.7,7.3z"/>
			<g>
				<ellipse class="st6" cx="21.9" cy="22" rx="1.4" ry="1.6"/>
				<ellipse class="st6" cx="33.2" cy="22" rx="1.4" ry="1.6"/>
			</g>
			<path class="st7" d="M26,45.2l-1.8-3.9h7.1l-1.8,3.9C28.8,46.6,26.8,46.6,26,45.2z"/>
			<path class="st7" d="M29.5,46.6l1.8,5.8h-7.1l1.8-5.8C26.7,45.3,28.7,45.3,29.5,46.6z"/>
			<path class="st8" d="M25,30.6c0.5,0.7,1.5,1.1,2.8,1.1c1.2,0,2.3-0.5,2.8-1.1"/>
			<linearGradient id="SVGID_4_" gradientUnits="userSpaceOnUse" x1="16.3883" y1="15.13" x2="39.0419" y2="15.13">
				<stop  offset="0" style="stop-color:#6B2405"/>
				<stop  offset="1" style="stop-color:#904F22"/>
			</linearGradient>
			<path class="st9" d="M38.2,12.2c0-0.2-0.1-0.4-0.2-0.5C36.2,8.9,32.5,6.8,27.7,7c-4.8-0.2-8.5,1.9-10.3,4.7
				c-0.1,0.2-0.2,0.4-0.2,0.5c-1.3,2.4-0.8,5.2-0.8,7.2c0.1,1.3,0.3,2.6,0.7,3.8c0.3-1.8,0.2-3.7,0.6-5.5c0.3-1.3,6.6-2.4,9.9-2.4
				c3.1,0,6-0.5,8.3-1.4c-1.3,1.4,0.8,3.5,1.9,5.2c0.2,1.4,0.2,2.7,0.4,4.1c0.4-1.2,0.6-2.5,0.7-3.8C38.9,17.4,39.4,14.6,38.2,12.2z
				"/>
			<path class="st10" d="M21.4,40l-6.1,2.4c0,0,3.7,7,5.5,10h5.6L21.4,40z"/>
			<path class="st10" d="M34.3,40l6.1,2.4c0,0-3.7,7-5.5,10h-5.6L34.3,40z"/>
			<g>
				<path class="st11" d="M22.6,38.7l-1.8,1.2l3.8,5.7l3.5-4.3C28.1,41.3,22.8,39.9,22.6,38.7z"/>
				<path class="st11" d="M33.1,38.7l1.8,1.2L31,45.6l-3.5-4.3C27.5,41.3,32.8,39.9,33.1,38.7z"/>
			</g>
		</g>
		<g>
			<path class="st12" d="M25.1,27.8c-0.6,0.2-0.9,0.7-1.4,1.1c-0.4,0.4-1,0.7-1.6,0.6c0.9,0.7,2,1,3.2,0.9c0.9-0.1,2.7-0.8,2.7-1.8
				C27.8,27.7,26,27.4,25.1,27.8z"/>
			<path class="st12" d="M30.6,27.8c0.6,0.2,0.9,0.7,1.4,1.1c0.4,0.4,1,0.7,1.6,0.6c-0.9,0.7-2,1-3.2,0.9c-0.9-0.1-2.7-0.8-2.7-1.8
				C27.8,27.7,29.7,27.4,30.6,27.8z"/>
		</g>
	</g>
</g>
</svg>
