<!-- Generator: Adobe Illustrator 21.0.2, SVG Export Plug-In  -->
<svg version="1.1"
	 xmlns="http://www.w3.org/2000/svg" xmlns:xlink="http://www.w3.org/1999/xlink" xmlns:a="http://ns.adobe.com/AdobeSVGViewerExtensions/3.0/"
	 x="0px" y="0px" width="44.1px" height="44.1px" viewBox="0 0 44.1 44.1" style="enable-background:new 0 0 44.1 44.1;"
	 xml:space="preserve">
<style type="text/css">
	.st0{fill:url(#SVGID_1_);}
	.st1{clip-path:url(#SVGID_3_);}
	.st2{fill:url(#SVGID_4_);}
	.st3{fill:url(#SVGID_5_);}
	.st4{fill:#F9D5B4;}
	.st5{fill:#B32E1B;}
	.st6{fill:#F2B78B;}
	.st7{fill:#332113;}
	.st8{fill:#C98D45;}
	.st9{fill:#FFFFFF;}
	.st10{fill:url(#SVGID_6_);}
	.st11{fill:#565656;}
	.st12{fill:url(#SVGID_7_);}
	.st13{clip-path:url(#SVGID_9_);}
	.st14{fill:url(#SVGID_10_);}
	.st15{fill:url(#SVGID_11_);}
	.st16{fill:url(#SVGID_12_);}
</style>
<defs>
</defs>
<linearGradient id="SVGID_1_" gradientUnits="userSpaceOnUse" x1="0" y1="22.0422" x2="44.0843" y2="22.0422">
	<stop  offset="0" style="stop-color:#3690B2"/>
	<stop  offset="0.4233" style="stop-color:#00BFD4"/>
	<stop  offset="1" style="stop-color:#3690B2"/>
</linearGradient>
<path class="st0" d="M44.1,22c0,12.2-9.9,22-22,22S0,34.2,0,22S9.9,0,22,0S44.1,9.9,44.1,22z M41.5,22c0-10.8-8.8-19.5-19.5-19.5
	S2.5,11.3,2.5,22S11.3,41.5,22,41.5S41.5,32.8,41.5,22z"/>
<g>
	<defs>
		<ellipse id="SVGID_2_" cx="22.1" cy="22" rx="19.4" ry="19.5"/>
	</defs>
	<clipPath id="SVGID_3_">
		<use xlink:href="#SVGID_2_"  style="overflow:visible;"/>
	</clipPath>
	<g class="st1">
		<linearGradient id="SVGID_4_" gradientUnits="userSpaceOnUse" x1="27.6607" y1="24.7779" x2="27.6607" y2="29.6508">
			<stop  offset="0" style="stop-color:#B17338"/>
			<stop  offset="0.8643" style="stop-color:#E8AE5C"/>
		</linearGradient>
		<path class="st2" d="M30.4,13.7c1,1.9,1.2,4.1,0.8,6.1s-1.4,4.3-0.3,6.1c-0.4,0.2-0.7,0.2-1.1,0.2c-0.2,0.8-0.2,1.6,0.2,2.3
			c-0.7,0.3-1.3-0.1-2-0.2c-0.5,1.5-2,2.6-3.7,2.8C22.9,24.8,25.2,18.1,30.4,13.7z"/>
		<linearGradient id="SVGID_5_" gradientUnits="userSpaceOnUse" x1="16.2537" y1="24.7779" x2="16.2537" y2="29.6508">
			<stop  offset="0" style="stop-color:#B17338"/>
			<stop  offset="0.8643" style="stop-color:#E8AE5C"/>
		</linearGradient>
		<path class="st3" d="M13.5,13.7c-1,1.9-1.2,4.1-0.8,6.1s1.4,4.3,0.3,6.1c0.4,0.2,0.7,0.2,1.1,0.2c0.2,0.8,0.2,1.6-0.2,2.3
			c0.7,0.3,1.3-0.1,2-0.2c0.5,1.5,2,2.6,3.7,2.8C21,24.8,18.7,18.1,13.5,13.7z"/>
		<g>
			<path class="st4" d="M36.4,35.8c-0.6-0.5-1.4-0.8-2.2-1l-0.8-0.2c0,0,0,0,0,0l-6.6-2.1c-0.5-0.1-0.8-0.6-0.9-1.1
				c-0.3-1.4-0.2-4.7-0.2-5.3c0,0,0-0.1-0.1-0.1h-0.3h-6.5h-0.3c-0.1,0-0.1,0-0.1,0.1c0,0.6,0,3.8-0.2,5.3c-0.1,0.5-0.4,0.9-0.9,1.1
				l-6.6,2.1c0,0,0,0,0,0l-0.9,0.2c-0.7,0.2-1.3,0.5-1.9,0.8c-3,2-3.1,5.2-3.2,5.8c0,0.1,0,0.1,0.1,0.1H22h17.2c0.1,0,0.1,0,0.1-0.1
				C39.3,40.8,39.2,37.7,36.4,35.8z"/>
			<g>
				<path class="st5" d="M36.4,35.8c-0.6-0.5-1.4-0.8-2.2-1l-0.8-0.2c0,0,0,0,0,0l-5.6-1.8c-1.8,0.7-3.7,1-5.7,1c-2,0-4-0.4-5.7-1
					l-5.6,1.8c0,0,0,0,0,0l-0.9,0.2c-0.7,0.2-1.3,0.5-1.9,0.8c-3,2-3.1,5.2-3.2,5.8c0,0.1,0,0.1,0.1,0.1H22h17.2
					c0.1,0,0.1,0,0.1-0.1C39.3,40.8,39.2,37.7,36.4,35.8z"/>
			</g>
			<g>
				<path class="st6" d="M25.8,30.1c0-1.5-0.1-3-0.1-3.4c0-0.1,0-0.1-0.1-0.1h-7.1c-0.1,0-0.1,0-0.1,0.1c0,0.4-0.1,1.8-0.1,3.4
					c0.5,0.5,2.4,1.3,3.7,1.3C23.3,31.4,25.2,30.5,25.8,30.1z"/>
			</g>
			<g>
				<path class="st4" d="M15.3,19c0.5,1.4,0.2,3.5-0.6,3.9s-2-1-2.5-2.4c-0.5-1.4-0.2-2.8,0.6-3.2C13.7,16.9,14.8,17.7,15.3,19z"/>
				<path class="st4" d="M28.8,19c-0.5,1.4-0.2,3.5,0.6,3.9c0.9,0.4,2-1,2.5-2.4c0.5-1.4,0.2-2.8-0.6-3.2
					C30.4,16.9,29.3,17.7,28.8,19z"/>
			</g>
			<path class="st4" d="M22,7c-8.5-0.3-8.6,7.9-8.5,10.5c0.1,2,0.6,4.8,1,6.2c0.2,0.8,0.7,2.2,1.3,2.8c1.7,1.6,3.7,3,5,3.5
				c0.2,0.1,0.7,0.1,1.2,0.1c0.5,0,1,0,1.2-0.1c1.3-0.5,3.3-1.9,5-3.5c0.6-0.6,1-1.9,1.3-2.8c0.4-1.4,0.9-4.2,1-6.2
				C30.6,14.9,30.5,6.7,22,7z"/>
			<g>
				<ellipse class="st7" cx="17.6" cy="18.2" rx="1.1" ry="1.2"/>
				<ellipse class="st7" cx="26.2" cy="18.2" rx="1.1" ry="1.2"/>
			</g>
			<g>
				<path class="st8" d="M23.6,28c-0.8-0.1-1.5-1-1.6-1.5c-0.1,0.5-0.8,1.4-1.6,1.5c-0.1,0-0.2,0-0.4,0c0,0.6,0.1,1.2,0.2,1.7
					c0.2,0.1,0.3,0.1,0.5,0.2c0.2,0.1,0.7,0.1,1.2,0.1c0.5,0,1,0,1.2-0.1c0.1-0.1,0.3-0.1,0.5-0.2c0.1-0.5,0.2-1.1,0.2-1.7
					C23.8,28,23.7,28,23.6,28z"/>
			</g>
		</g>
		<g>
			<g>
				<path class="st9" d="M19.9,24.5c0.4,0.8,1.2,1.4,2.2,1.4c1,0,1.8-0.6,2.2-1.4H19.9z"/>
			</g>
		</g>
		<linearGradient id="SVGID_6_" gradientUnits="userSpaceOnUse" x1="22.865" y1="3.1906" x2="22.7603" y2="15.0315">
			<stop  offset="0" style="stop-color:#B17338"/>
			<stop  offset="0.8643" style="stop-color:#E8AE5C"/>
		</linearGradient>
		<path class="st10" d="M33.3,13.1c-1.7,0.1-2.8-1.9-3.9-3.3C26.7,6.3,21.9,5.2,18,7.2c-1.1,0.5-1.9,1.1-2.1,1.7
			c-2,0.8-3,3.9-3.5,6.3c-0.5,2.8,1,6.7,1.1,4.3c0.1-1.7,1.7-4.3,2.4-5.8c0.3-0.7,0.6-1.4,0.8-2.2c0.2,1.8,2.7,3.5,4.2,3.6
			c0.2,0,0.2-0.6,0.2-1.5c0.4,0.7,1,1.3,1.6,1.7c1,0.7,2.2,1,3.3,1.3c-0.4-0.2-0.6-0.7-0.7-1.1c0-0.2,0-0.5,0-0.8
			c1,0.7,2.1,1.2,3.3,1.2c0.1,0,0.3,0,0.4,0c0.6,1.2,1.2,2.5,1.3,3.6c0.1,2.4,1.6-1.5,1.1-4.3c0,0,0,0,0-0.1
			C32,14.6,32.7,14,33.3,13.1z M16.9,10.2c0,0,0-0.1,0-0.1C16.9,10.1,16.9,10.1,16.9,10.2C16.9,10.1,16.9,10.2,16.9,10.2z"/>
		<g>
			<g>
				<path class="st11" d="M21,16.9c-1.6-1.9-7.4-0.6-7.4-0.6c0.1,0.4,0.2,0.8,0.3,1.3c0.4,0,0.5,1,0.5,1.4c0.2,1.7,1.4,3,3.8,2.9
					c2.4-0.1,3-1.9,3.1-3C21.4,17.7,21,16.9,21,16.9z M20.8,19c-0.1,1.5-1.1,2.5-2.6,2.5c-0.2,0-0.3,0-0.5,0c-2.4,0-2.8-2.1-2.9-3.5
					c0-0.8,0.5-1.4,1.3-1.5c0.4,0,0.9,0,1.5,0c1.8,0,2.6,0.4,2.8,0.8C20.6,17.5,20.8,18.2,20.8,19z"/>
				<path class="st11" d="M22.8,18.9c0.1,1.1,0.7,2.9,3.1,3c2.4,0.1,3.6-1.2,3.8-2.9c0-0.4,0.1-1.3,0.5-1.4c0.1-0.4,0.2-0.8,0.3-1.3
					c0,0-5.9-1.3-7.4,0.6C23,16.9,22.7,17.7,22.8,18.9z M23.6,17.3c0.2-0.3,1-0.8,2.8-0.8c0.6,0,1.1,0,1.5,0
					c0.8,0.1,1.3,0.7,1.3,1.5c0,1.3-0.5,3.5-2.9,3.5c-0.1,0-0.3,0-0.5,0c-1.5-0.1-2.5-1-2.6-2.5C23.2,18.2,23.5,17.5,23.6,17.3z"/>
			</g>
			<path class="st11" d="M23.1,18.4c0,0-0.4-0.3-1.1-0.3c-0.7,0-1,0.3-1,0.3c-0.1-0.3-0.2-0.6-0.3-0.9c0.9,0,1.8,0,2.7,0
				C23.3,17.8,23.2,18.1,23.1,18.4z"/>
		</g>
	</g>
</g>
</svg>
