<!-- Generator: Adobe Illustrator 21.0.2, SVG Export Plug-In  -->
<svg version="1.1"
	 xmlns="http://www.w3.org/2000/svg" xmlns:xlink="http://www.w3.org/1999/xlink" xmlns:a="http://ns.adobe.com/AdobeSVGViewerExtensions/3.0/"
	 x="0px" y="0px" width="55.6px" height="55.6px" viewBox="0 0 55.6 55.6" style="enable-background:new 0 0 55.6 55.6;"
	 xml:space="preserve">
<style type="text/css">
	.st0{fill:url(#SVGID_1_);}
	.st1{clip-path:url(#SVGID_3_);}
	.st2{fill:url(#SVGID_4_);}
	.st3{fill:url(#SVGID_5_);}
	.st4{fill:#D8AA8B;}
	.st5{fill:#C1977A;}
	.st6{fill:#332113;}
	.st7{fill:#FFFFFF;stroke:#C44A06;stroke-width:1.9275;stroke-miterlimit:10;}
	.st8{fill:#D68572;}
	.st9{fill:#47CBD0;}
	.st10{fill:#6B2405;}
	.st11{fill:url(#SVGID_6_);}
	.st12{clip-path:url(#SVGID_8_);}
	.st13{fill:url(#SVGID_9_);}
	.st14{fill:url(#SVGID_10_);}
</style>
<defs>
</defs>
<linearGradient id="SVGID_1_" gradientUnits="userSpaceOnUse" x1="0" y1="27.8151" x2="55.6302" y2="27.8151">
	<stop  offset="0" style="stop-color:#3690B2"/>
	<stop  offset="0.4233" style="stop-color:#00BFD4"/>
	<stop  offset="1" style="stop-color:#3690B2"/>
</linearGradient>
<path class="st0" d="M55.6,27.8c0,15.4-12.5,27.8-27.8,27.8S0,43.2,0,27.8S12.5,0,27.8,0S55.6,12.5,55.6,27.8z M52.4,27.8
	c0-13.6-11-24.6-24.6-24.6S3.2,14.2,3.2,27.8s11,24.6,24.6,24.6S52.4,41.4,52.4,27.8z"/>
<g>
	<defs>
		<circle id="SVGID_2_" cx="27.8" cy="27.8" r="24.7"/>
	</defs>
	<clipPath id="SVGID_3_">
		<use xlink:href="#SVGID_2_"  style="overflow:visible;"/>
	</clipPath>
	<g class="st1">
		<linearGradient id="SVGID_4_" gradientUnits="userSpaceOnUse" x1="22.1588" y1="20.02" x2="22.1588" y2="37.1376">
			<stop  offset="0" style="stop-color:#6B2405"/>
			<stop  offset="1" style="stop-color:#BF4F00"/>
		</linearGradient>
		<path class="st2" d="M24.1,10.9c-2.8-1.1-6.1,0.9-7.5,3.7c-1.4,2.7-1.3,5.9-1.3,8.9c0.2,9.5,0.4,18.9,0.6,28.4
			c4.7-0.8,8.4-4.3,10.5-8.6s2.6-9.1,2.4-13.9C28.6,22.8,27.1,16.8,24.1,10.9z"/>
		<linearGradient id="SVGID_5_" gradientUnits="userSpaceOnUse" x1="33.6733" y1="20.02" x2="33.6733" y2="37.1376">
			<stop  offset="0" style="stop-color:#6B2405"/>
			<stop  offset="1" style="stop-color:#BF4F00"/>
		</linearGradient>
		<path class="st3" d="M31.7,10.9c2.8-1.1,6.1,0.9,7.5,3.7c1.4,2.7,1.3,5.9,1.3,8.9c-0.2,9.5-0.4,18.9-0.6,28.4
			c-4.7-0.8-8.4-4.3-10.5-8.6c-2.1-4.3-2.6-9.1-2.4-13.9C27.3,22.8,28.8,16.8,31.7,10.9z"/>
		<g>
			<path class="st4" d="M42.8,45.6c-0.7-0.6-1.5-1-2.3-1.2l-7.9-2.5h0c-0.6-0.2-0.9-0.7-1-1.3c-0.3-1.7-0.3-6-0.2-6.7
				c0-0.1,0-0.1-0.1-0.1h-7c-0.1,0-0.1,0-0.1,0.1c0,0.7,0,5-0.2,6.7c-0.1,0.6-0.4,1.1-1,1.3l0,0l-7.9,2.5c-0.7,0.2-1.4,0.6-2,1
				c-3.2,2.4-3.3,6.3-3.4,7c0,0.1,0,0.1,0.1,0.1h18.2h18.2c0.1,0,0.1-0.1,0.1-0.1C45.8,51.7,45.8,48,42.8,45.6z"/>
			<path class="st4" d="M42.8,45.6c-0.7-0.6-1.5-1-2.3-1.2l-7.9-2.5h0c-0.6-0.2-0.9-0.7-1-1.3c-0.3-1.7-0.3-6-0.2-6.7
				c0-0.1,0-0.1-0.1-0.1h-7c-0.1,0-0.1,0-0.1,0.1c0,0.7,0,5-0.2,6.7c-0.1,0.6-0.4,1.1-1,1.3l0,0l-7.9,2.5c-0.7,0.2-1.4,0.6-2,1
				c-3.2,2.4-3.3,6.3-3.4,7c0,0.1,0,0.1,0.1,0.1h18.2h18.2c0.1,0,0.1-0.1,0.1-0.1C45.8,51.7,45.8,48,42.8,45.6z"/>
			<g>
				<path class="st5" d="M31.3,37.6c0-1.5,0-2.9,0-3.3c0-0.1,0-0.1-0.1-0.1h-7c-0.1,0-0.1,0-0.1,0.1c0,0.4,0,1.8,0,3.3
					C26.4,38.4,29,38.4,31.3,37.6z"/>
			</g>
			<g>
				<path class="st4" d="M19.3,24.9c0.6,1.5,0.3,3.8-0.8,4.3c-1.1,0.5-2.4-1.2-3.1-2.6c-0.6-1.5-0.3-3.1,0.8-3.5
					C17.3,22.5,18.6,23.4,19.3,24.9z"/>
				<path class="st4" d="M36.1,24.9c-0.6,1.5-0.3,3.8,0.8,4.3c1.1,0.5,2.4-1.2,3.1-2.6c0.6-1.5,0.3-3.1-0.8-3.5
					C38.1,22.5,36.8,23.4,36.1,24.9z"/>
			</g>
			<path class="st4" d="M27.7,10.1C17,9.7,16.8,19.9,17,23.3c0.1,2.4,1.1,6,1.6,7.8c0.3,1,0.8,1.9,1.6,2.7c2.8,2.7,7.5,3.6,7.5,3.6
				s4.7-0.9,7.5-3.6c0.8-0.7,1.3-1.7,1.6-2.7c0.5-1.8,1.5-5.3,1.6-7.8C38.6,19.9,38.4,9.7,27.7,10.1z"/>
			<g>
				<ellipse class="st6" cx="22.1" cy="24.1" rx="1.4" ry="1.6"/>
				<ellipse class="st6" cx="32.9" cy="24.1" rx="1.4" ry="1.6"/>
			</g>
			<g>
				<g>
					<path class="st7" d="M23.9,30.9c0.7,1.5,2.1,2.5,3.8,2.5c1.7,0,3.2-1,3.8-2.5H23.9z"/>
				</g>
			</g>
			<circle class="st8" cx="20.5" cy="28.1" r="1.6"/>
			<circle class="st8" cx="34.3" cy="28.1" r="1.6"/>
			<g>
				<path class="st9" d="M42.8,45.6c-0.7-0.6-1.5-1-2.3-1.2l-3.3-1c-2.7,3.2-5.9,5-9.4,5c-3.5,0-6.8-1.9-9.4-5l-3.3,1
					c-0.7,0.2-1.4,0.6-2,1c-3.2,2.4-3.3,6.3-3.4,7c0,0.1,0,0.1,0.1,0.1h18.2h18.2c0.1,0,0.1-0.1,0.1-0.1
					C45.8,51.7,45.8,48,42.8,45.6z"/>
			</g>
		</g>
		<path class="st10" d="M40.3,21.3c-0.1,1.2-1.5,1.9-2.5,1.2c-1.7-1.1-3.9-1.6-6-1.8c-3.1-0.3-6.4-0.4-8.7-2.6
			c-1.7-1.6-2.3-4.1-1.7-6.4c0.3-1.2,0.7-1.7,1.8-2.5c1.3-0.9,2.8-1.3,4.4-1.3c4.1-0.1,8.2,1.9,10.6,5.3
			C39.9,15.7,40.7,18.5,40.3,21.3z"/>
		<path class="st10" d="M16.1,22.2c0.7,0.9,2.2,0.8,3.1,0.1c0.9-0.7,1.3-1.9,1.5-3c0.2-1.1,0.3-2.3,0.6-3.3c0.4-1.1,1.2-2.1,2.3-2.3
			c0.5-1.1,0-2.5-1.2-2.7s-2.3,0.5-3.2,1.3C16.8,14.4,14,19.6,16.1,22.2z"/>
	</g>
</g>
</svg>
