<!-- Generator: Adobe Illustrator 21.0.2, SVG Export Plug-In  -->
<svg version="1.1"
	 xmlns="http://www.w3.org/2000/svg" xmlns:xlink="http://www.w3.org/1999/xlink" xmlns:a="http://ns.adobe.com/AdobeSVGViewerExtensions/3.0/"
	 x="0px" y="0px" width="46.7px" height="46.7px" viewBox="0 0 46.7 46.7" style="enable-background:new 0 0 46.7 46.7;"
	 xml:space="preserve">
<style type="text/css">
	.st0{fill:url(#SVGID_1_);}
	.st1{clip-path:url(#SVGID_3_);}
	.st2{fill:#F7D9B5;}
	.st3{fill:#EFBC8B;}
	.st4{fill:#FFFFFF;}
	.st5{fill:#332113;}
	.st6{fill:#4CBCB6;}
	.st7{fill:url(#SVGID_4_);}
	.st8{fill:none;stroke:#CCCCCC;stroke-miterlimit:10;}
	.st9{fill:#CCCCCC;}
	.st10{fill:url(#SVGID_5_);}
	.st11{clip-path:url(#SVGID_7_);}
	.st12{fill:url(#SVGID_8_);}
</style>
<defs>
</defs>
<linearGradient id="SVGID_1_" gradientUnits="userSpaceOnUse" x1="0" y1="23.3542" x2="46.7084" y2="23.3542">
	<stop  offset="0" style="stop-color:#3690B2"/>
	<stop  offset="0.4233" style="stop-color:#00BFD4"/>
	<stop  offset="1" style="stop-color:#3690B2"/>
</linearGradient>
<path class="st0" d="M46.7,23.4c0,12.9-10.5,23.4-23.4,23.4S0,36.3,0,23.4S10.5,0,23.4,0S46.7,10.5,46.7,23.4z M44,23.4
	C44,12,34.8,2.7,23.4,2.7S2.7,12,2.7,23.4S12,44,23.4,44S44,34.8,44,23.4z"/>
<g>
	<defs>
		<circle id="SVGID_2_" cx="23.4" cy="23.4" r="20.7"/>
	</defs>
	<clipPath id="SVGID_3_">
		<use xlink:href="#SVGID_2_"  style="overflow:visible;"/>
	</clipPath>
	<g class="st1">
		<g>
			<path class="st2" d="M37.9,38.4c-0.7-0.5-1.4-0.8-2.2-1l-0.8-0.2c0,0,0,0,0,0L28.3,35c-0.5-0.1-0.8-0.6-0.9-1.1
				c-0.3-1.4-0.2-4.7-0.2-5.3c0,0,0-0.1-0.1-0.1h-0.3h-6.6h-0.3c-0.1,0-0.1,0-0.1,0.1c0,0.6,0,3.8-0.2,5.3c-0.1,0.5-0.4,0.9-0.9,1.1
				L12,37.1c0,0,0,0,0,0l-0.9,0.2c-0.7,0.2-1.3,0.5-1.9,0.8c-3,2-3.1,5.2-3.2,5.8c0,0.1,0,0.1,0.1,0.1h17.4h17.4
				c0.1,0,0.1,0,0.1-0.1C40.8,43.4,40.7,40.4,37.9,38.4z"/>
			<g>
				<g>
					<path class="st3" d="M27.2,32.7c0-1.5-0.1-3-0.1-3.4c0-0.1,0-0.1-0.1-0.1h-7.2c-0.1,0-0.1,0-0.1,0.1c0,0.4-0.1,1.9-0.1,3.4
						c0.5,0.5,2.4,1.3,3.7,1.3C24.7,34,26.7,33.1,27.2,32.7z"/>
				</g>
				<g>
					<path class="st2" d="M16.7,21.5c0.5,1.4,0.2,3.5-0.6,3.9s-2-1.1-2.5-2.4c-0.5-1.4-0.2-2.8,0.6-3.2C15,19.4,16.1,20.1,16.7,21.5
						z"/>
					<path class="st2" d="M30.2,21.5c-0.5,1.4-0.2,3.5,0.6,3.9s2-1.1,2.5-2.4c0.5-1.4,0.2-2.8-0.6-3.2
						C31.9,19.4,30.7,20.1,30.2,21.5z"/>
				</g>
				<path class="st2" d="M23.4,9.4c-8.6-0.3-8.7,7.9-8.6,10.6c0.1,2,0.6,4.8,1,6.2c0.2,0.8,0.7,2.2,1.3,2.8c1.7,1.6,3.7,3,5,3.5
					c0.2,0.1,0.7,0.1,1.3,0.1c0.5,0,1,0,1.3-0.1c1.3-0.5,3.4-1.9,5-3.5c0.6-0.6,1.1-2,1.3-2.8c0.4-1.4,0.9-4.3,1-6.2
					C32,17.3,31.9,9.1,23.4,9.4z"/>
				<g>
					<g>
						<path class="st4" d="M21.2,26.7c0.4,0.8,1.2,1.4,2.2,1.4c1,0,1.8-0.6,2.2-1.4H21.2z"/>
					</g>
				</g>
				<g>
					<path class="st5" d="M19.1,19.6c0.7,0,1.2,0.5,1.2,1.1s-0.5,1.1-1.2,1.1c-0.7,0-1.2-0.8-1.2-1.4C17.9,19.8,18.5,19.6,19.1,19.6
						z"/>
					<path class="st5" d="M27.7,19.6c0.7,0,1.2,0.2,1.2,0.8c0,0.6-0.5,1.4-1.2,1.4c-0.7,0-1.2-0.5-1.2-1.1S27.1,19.6,27.7,19.6z"/>
				</g>
				<g>
					<path class="st6" d="M37.9,38.4c-0.7-0.5-1.4-0.8-2.2-1l-0.8-0.2c0,0,0,0,0,0l-5.7-1.8c-1.8,0.7-3.7,1.1-5.8,1.1
						c-2,0-4-0.4-5.8-1.1L12,37.1c0,0,0,0,0,0l-0.9,0.2c-0.7,0.2-1.3,0.5-1.9,0.8c-3,2-3.1,5.2-3.2,5.8c0,0.1,0,0.1,0.1,0.1h17.4
						h17.4c0.1,0,0.1,0,0.1-0.1C40.8,43.4,40.7,40.4,37.9,38.4z"/>
				</g>
			</g>
			<linearGradient id="SVGID_4_" gradientUnits="userSpaceOnUse" x1="23.3534" y1="14.5126" x2="23.3534" y2="4.7428">
				<stop  offset="0.1457" style="stop-color:#423A40"/>
				<stop  offset="0.8543" style="stop-color:#665F72"/>
			</linearGradient>
			<path class="st7" d="M31.3,12.5c-0.7-1.3-2-2.5-3.8-3.3C28.6,8,29.6,6.8,29.8,7c-0.7-0.4-1.6-0.6-2.4-0.5c-0.7,0.1-1.4,0.3-2,0.7
				c0.4-0.7,1-1.3,2.2-1.6c-1.6-0.8-3.6-0.6-5,0.4c-0.3,0.2-0.5,0.4-0.7,0.7c0-0.8,0.1-1.4,0.2-1.4c-0.8,0.1-1.5,0.5-2.1,1
				c-0.7,0.6-1.1,1.5-1.3,2.4c0,0.3-0.1,0.5-0.1,0.8c-1.5,0.8-2.6,1.8-3.2,3c-0.8,1.4-0.8,4.4-0.8,6c0.1,1,0.2,2,0.6,2.9
				c0.3-1.4-0.3-5.2,0.5-6.4c1.3-1.9,4.5-1.9,7.6-1.6v0c0,0,0.1,0,0.1,0c0,0,0.1,0,0.1,0v0c3.1-0.4,6.3-0.4,7.6,1.6
				c0.8,1.2,0.2,5,0.5,6.4c0.3-0.9,0.5-1.9,0.6-2.9C32,16.9,32.1,13.9,31.3,12.5z"/>
		</g>
		<g>
			<g>
				<g>
					<path class="st8" d="M15.3,22.5c-1.1,4.6,0.4,9.6,3.7,12.9c0.9,0.9,1.8,1.6,2.6,2.6s2,2.2,1.8,3.4"/>
					<path class="st8" d="M31.6,22.5c1.1,4.6-0.4,9.6-3.7,12.9C27,36.2,26.1,37,25.3,38c-0.8,0.9-2,2.2-1.8,3.4"/>
				</g>
				<line class="st8" x1="23.4" y1="40.8" x2="23.4" y2="44.1"/>
			</g>
			<g>
				<path class="st9" d="M32.6,22.6c0,0.5-0.4,0.8-0.8,0.8s-0.6-0.4-0.6-0.8c0-0.5,0.2-0.8,0.6-0.8S32.6,22.2,32.6,22.6z"/>
				<path class="st9" d="M14.2,22.6c0,0.5,0.4,0.8,0.8,0.8c0.5,0,0.6-0.4,0.6-0.8c0-0.5-0.2-0.8-0.6-0.8
					C14.6,21.8,14.2,22.2,14.2,22.6z"/>
			</g>
		</g>
	</g>
</g>
</svg>
