<!-- Generator: Adobe Illustrator 21.0.2, SVG Export Plug-In  -->
<svg version="1.1"
	 xmlns="http://www.w3.org/2000/svg" xmlns:xlink="http://www.w3.org/1999/xlink" xmlns:a="http://ns.adobe.com/AdobeSVGViewerExtensions/3.0/"
	 x="0px" y="0px" width="74.5px" height="74.5px" viewBox="0 0 74.5 74.5" style="enable-background:new 0 0 74.5 74.5;"
	 xml:space="preserve">
<style type="text/css">
	.st0{fill:url(#SVGID_1_);}
	.st1{clip-path:url(#SVGID_3_);}
	.st2{fill:url(#SVGID_4_);}
	.st3{fill:url(#SVGID_5_);}
	.st4{fill:#F9DAC5;}
	.st5{fill:#ED0020;}
	.st6{fill:#F2BC9E;}
	.st7{fill:#332113;}
	.st8{fill:#FFFFFF;stroke:#FF8080;stroke-width:1.3835;stroke-miterlimit:10;}
	.st9{fill:#F7C9AA;}
	.st10{fill:url(#SVGID_6_);}
	.st11{fill:url(#SVGID_7_);}
	.st12{fill:url(#SVGID_8_);}
	.st13{fill:url(#SVGID_9_);}
	.st14{clip-path:url(#SVGID_11_);}
	.st15{fill:url(#SVGID_12_);}
	.st16{fill:url(#SVGID_13_);}
	.st17{fill:url(#SVGID_14_);}
	.st18{fill:url(#SVGID_15_);}
	.st19{fill:url(#SVGID_16_);}
</style>
<defs>
</defs>
<linearGradient id="SVGID_1_" gradientUnits="userSpaceOnUse" x1="0" y1="37.2617" x2="74.5235" y2="37.2617">
	<stop  offset="0" style="stop-color:#3690B2"/>
	<stop  offset="0.4233" style="stop-color:#00BFD4"/>
	<stop  offset="1" style="stop-color:#3690B2"/>
</linearGradient>
<path class="st0" d="M74.5,37.3c0,20.6-16.7,37.3-37.3,37.3S0,57.8,0,37.3S16.7,0,37.3,0S74.5,16.7,74.5,37.3z M70.2,37.3
	c0-18.2-14.8-33-33-33s-33,14.8-33,33s14.8,33,33,33S70.2,55.4,70.2,37.3z"/>
<g>
	<defs>
		<circle id="SVGID_2_" cx="37.2" cy="37.3" r="33.1"/>
	</defs>
	<clipPath id="SVGID_3_">
		<use xlink:href="#SVGID_2_"  style="overflow:visible;"/>
	</clipPath>
	<g class="st1">
		<g>
			<linearGradient id="SVGID_4_" gradientUnits="userSpaceOnUse" x1="34.5892" y1="33.963" x2="54.9257" y2="33.963">
				<stop  offset="0.1457" style="stop-color:#3B0008"/>
				<stop  offset="1" style="stop-color:#9B5F72"/>
			</linearGradient>
			<path class="st2" d="M34.6,14.9c4.3-1.5,9.1-0.7,12.9,2.1c2.7,2,4.7,5,6,8.3c2.4,6.4,1.7,14.2-1.8,19.9c-3.5,5.7-9.6,9-15.6,8.5
				C41.7,41.1,41.4,26.6,34.6,14.9z"/>
			<linearGradient id="SVGID_5_" gradientUnits="userSpaceOnUse" x1="20.4182" y1="33.963" x2="40.7547" y2="33.963">
				<stop  offset="0.1457" style="stop-color:#3B0008"/>
				<stop  offset="1" style="stop-color:#9B5F72"/>
			</linearGradient>
			<path class="st3" d="M40.8,14.9c-4.3-1.5-9.1-0.7-12.9,2.1c-2.7,2-4.7,5-6,8.3c-2.4,6.4-1.7,14.2,1.8,19.9
				c3.5,5.7,9.6,9,15.6,8.5C33.6,41.1,33.9,26.6,40.8,14.9z"/>
			<path class="st4" d="M57.1,61.4c-0.9-0.7-1.9-1.2-3-1.6l-10.3-3.2l0,0c-0.7-0.2-1.1-0.9-1.3-1.7c-0.4-2.1-0.3-7.8-0.3-8.7
				c0-0.1-0.1-0.1-0.1-0.1H33c-0.1,0-0.1,0.1-0.1,0.1c0,0.9,0,6.4-0.3,8.7c-0.1,0.8-0.5,1.4-1.3,1.7l0,0L21,59.8
				c-0.9,0.3-1.9,0.7-2.7,1.3c-4.2,3.1-4.3,8.1-4.5,9c0,0.1,0,0.2,0.1,0.2h23.5h23.5c0.1,0,0.1-0.1,0.1-0.2
				C61,69.3,61,64.5,57.1,61.4z"/>
			<path class="st4" d="M57.1,61.4c-0.9-0.7-1.9-1.2-3-1.6l-10.3-3.2l0,0c-0.7-0.2-1.1-0.9-1.3-1.7c-0.4-2.1-0.3-7.8-0.3-8.7
				c0-0.1-0.1-0.1-0.1-0.1H33c-0.1,0-0.1,0.1-0.1,0.1c0,0.9,0,6.4-0.3,8.7c-0.1,0.8-0.5,1.4-1.3,1.7l0,0L21,59.8
				c-0.9,0.3-1.9,0.7-2.7,1.3c-4.2,3.1-4.3,8.1-4.5,9c0,0.1,0,0.2,0.1,0.2h23.5h23.5c0.1,0,0.1-0.1,0.1-0.2
				C61,69.3,61,64.5,57.1,61.4z"/>
			<path class="st4" d="M57.1,61.4c-0.9-0.7-1.9-1.2-3-1.6l-1.1-0.4l-9.1-2.8c-0.7-0.2-1.1-0.9-1.3-1.7c-0.4-2.1-0.3-7.8-0.3-8.7
				c0-0.1-0.1-0.1-0.1-0.1H33c-0.1,0-0.1,0.1-0.1,0.1c0,0.9,0,6.4-0.3,8.7c-0.1,0.8-0.5,1.4-1.3,1.7l-9.1,2.8L21,59.8
				c-0.9,0.3-1.9,0.7-2.7,1.3c-4.2,3.1-4.3,8.1-4.5,9c0,0.1,0,0.2,0.1,0.2h23.5h23.5c0.1,0,0.1-0.1,0.1-0.2
				C61,69.3,61,64.5,57.1,61.4z"/>
			<g>
				<g>
					<path class="st5" d="M51.5,59c-0.3,1.5-1.7,4.7-6.8,6.1c-4,1.1-6.1,3.1-7.2,4.6c-1.1-1.4-3.2-3.4-7.2-4.5
						c-5.1-1.5-6.4-4.7-6.8-6.2l-1.4,0.4v10.8h15.4h15.4V59.5L51.5,59z"/>
				</g>
			</g>
			<g>
				<path class="st6" d="M42.2,51c0-1.9,0-3.8,0-4.2c0-0.1-0.1-0.1-0.1-0.1H33c-0.1,0-0.1,0.1-0.1,0.1c0,0.5,0,2.3,0,4.2
					C35.9,52,39.2,52,42.2,51z"/>
			</g>
			<g>
				<path class="st4" d="M26.6,34.6c0.8,1.9,0.4,5-1,5.5c-1.4,0.6-3.2-1.5-4-3.4c-0.8-1.9-0.4-4,1-4.6C24,31.5,25.8,32.6,26.6,34.6z
					"/>
				<path class="st4" d="M48.4,34.6c-0.8,1.9-0.4,5,1,5.5c1.4,0.6,3.2-1.5,4-3.4s0.4-4-1-4.6C51,31.5,49.3,32.6,48.4,34.6z"/>
			</g>
			<path class="st4" d="M37.5,15.5c-13.9-0.5-14.1,12.7-13.9,17.1c0.2,3.2,1.4,7.8,2.1,10c0.4,1.3,1.1,2.5,2.1,3.5
				c3.6,3.5,9.7,4.6,9.7,4.6s6.1-1.2,9.7-4.6c1-1,1.7-2.2,2.1-3.5c0.7-2.3,1.9-6.9,2.1-10C51.6,28.2,51.4,14.9,37.5,15.5z"/>
			<g>
				<ellipse class="st7" cx="30.3" cy="33.6" rx="1.8" ry="2.1"/>
				<ellipse class="st7" cx="44.2" cy="33.6" rx="1.8" ry="2.1"/>
			</g>
			<g>
				<g>
					<path class="st8" d="M34,42.8c0.6,1.4,2,2.3,3.5,2.3c1.6,0,2.9-0.9,3.5-2.3H34z"/>
				</g>
			</g>
			<circle class="st9" cx="28.3" cy="38.7" r="2"/>
			<circle class="st9" cx="46" cy="38.7" r="2"/>
			<linearGradient id="SVGID_6_" gradientUnits="userSpaceOnUse" x1="37.8516" y1="18.1533" x2="21.2322" y2="30.7718">
				<stop  offset="0.1457" style="stop-color:#3B0008"/>
				<stop  offset="1" style="stop-color:#9B5F72"/>
			</linearGradient>
			<path class="st10" d="M24.6,31.7c-0.9,2.2-0.7,4.9,1,6.6c-3.4-3.6-6.1-9.5-4.7-14.2s6-10.1,11.4-10.6c8-0.7,10.6,5.5,6.4,8.7
				C34.3,25.6,26.6,26.4,24.6,31.7z"/>
			<linearGradient id="SVGID_7_" gradientUnits="userSpaceOnUse" x1="47.1153" y1="51.5071" x2="52.3473" y2="61.6635">
				<stop  offset="0.1457" style="stop-color:#3B0008"/>
				<stop  offset="1" style="stop-color:#9B5F72"/>
			</linearGradient>
			<path class="st11" d="M47,63.8c1.3,1.5,2.6,3.2,3.3,5.1c1.7-1.7,3.3-3.6,4.4-5.8c1.1-2.2,1.6-4.9,1.2-7.4
				c-0.8-4.8-6.3-8.7-10.6-6.6C39.2,52.2,44.2,60.5,47,63.8z"/>
			<g>
				<polygon class="st7" points="44.7,33.3 46.8,32.7 46,33.8 				"/>
				<polygon class="st7" points="29.8,33.3 27.7,32.7 28.5,33.8 				"/>
			</g>
		</g>
		<linearGradient id="SVGID_8_" gradientUnits="userSpaceOnUse" x1="32.3455" y1="28.8146" x2="56.0652" y2="28.8146">
			<stop  offset="0.1457" style="stop-color:#3B0008"/>
			<stop  offset="1" style="stop-color:#9B5F72"/>
		</linearGradient>
		<path class="st12" d="M33.1,15.5c-1.3,2.2-0.9,6.7,0.8,8.6c1.6,1.9,3.8,3.2,6.2,3.9c2.4,0.7,5,1.4,6.9,3.1c2.2,1.9,3.3,5,2.8,7.8
			c-0.5,2.8-2.6,5.3-5.3,6.3c4.4-0.4,8-3,9.9-6.9c1.9-4,2-8.7,0.9-12.9c-1-3.5-2.8-6.7-5.6-9C42.3,10.1,34.9,12.4,33.1,15.5z"/>
	</g>
</g>
</svg>
