<!-- Generator: Adobe Illustrator 21.0.2, SVG Export Plug-In  -->
<svg version="1.1"
	 xmlns="http://www.w3.org/2000/svg" xmlns:xlink="http://www.w3.org/1999/xlink" xmlns:a="http://ns.adobe.com/AdobeSVGViewerExtensions/3.0/"
	 x="0px" y="0px" width="45.1px" height="45.1px" viewBox="0 0 45.1 45.1" style="enable-background:new 0 0 45.1 45.1;"
	 xml:space="preserve">
<style type="text/css">
	.st0{fill:url(#SVGID_1_);}
	.st1{clip-path:url(#SVGID_3_);}
	.st2{fill:#423A40;}
	.st3{fill:#F7D9B5;}
	.st4{fill:#EFBC8B;}
	.st5{fill:#EFAB84;}
	.st6{fill:#332113;}
	.st7{fill:url(#SVGID_4_);}
	.st8{fill:#EA9BC3;}
	.st9{fill:#FFFFFF;stroke:#D6702B;stroke-width:1.3835;stroke-miterlimit:10;}
	.st10{fill:url(#SVGID_5_);}
	.st11{fill:url(#SVGID_6_);}
	.st12{fill:url(#SVGID_7_);}
	.st13{clip-path:url(#SVGID_9_);}
	.st14{fill:url(#SVGID_10_);}
	.st15{fill:url(#SVGID_11_);}
	.st16{fill:url(#SVGID_12_);}
</style>
<defs>
</defs>
<linearGradient id="SVGID_1_" gradientUnits="userSpaceOnUse" x1="0" y1="22.567" x2="45.1339" y2="22.567">
	<stop  offset="0" style="stop-color:#3690B2"/>
	<stop  offset="0.4233" style="stop-color:#00BFD4"/>
	<stop  offset="1" style="stop-color:#3690B2"/>
</linearGradient>
<path class="st0" d="M45.1,22.6C45.1,35,35,45.1,22.6,45.1S0,35,0,22.6S10.1,0,22.6,0S45.1,10.1,45.1,22.6z M42.5,22.6
	c0-11-9-20-20-20s-20,9-20,20s9,20,20,20S42.5,33.6,42.5,22.6z"/>
<g>
	<defs>
		<circle id="SVGID_2_" cx="22.5" cy="22.4" r="20.1"/>
	</defs>
	<clipPath id="SVGID_3_">
		<use xlink:href="#SVGID_2_"  style="overflow:visible;"/>
	</clipPath>
	<g class="st1">
		<g>
			<g>
				<path class="st2" d="M33.2,16.6c-0.2-2.1-0.7-4.2-2-6c-1.9-2.6-5.4-4.1-8.8-4.1c-3.4,0-6.9,1.5-8.8,4.1c-1.3,1.7-1.9,3.9-2,6
					c0,0.6-0.2,1.6,0,2.6c1,5.5,4.4,9.5,10,10.2c0.3,0,0.6,0.1,0.8,0.1c0.2,0,0.5,0,0.8-0.1c5.6-0.6,8.6-4.2,10-10.2
					C33.5,18.2,33.3,17.2,33.2,16.6z"/>
			</g>
			<g>
				<path class="st3" d="M34.9,37.2c-0.6-0.5-1.2-0.8-1.9-1l-6.5-2l0,0c-0.5-0.1-0.7-0.6-0.8-1c-0.2-1.3-0.2-4.9-0.2-5.5
					c0,0,0-0.1-0.1-0.1h-5.7c0,0-0.1,0-0.1,0.1c0,0.6,0,4.1-0.2,5.5c-0.1,0.5-0.3,0.9-0.8,1l0,0l-6.5,2c-0.6,0.2-1.2,0.5-1.7,0.8
					c-2.6,1.9-2.7,5.1-2.8,5.7c0,0.1,0,0.1,0.1,0.1h14.8h14.8c0.1,0,0.1,0,0.1-0.1C37.4,42.1,37.3,39.1,34.9,37.2z"/>
				<path class="st3" d="M34.9,37.2c-0.6-0.5-1.2-0.8-1.9-1l-6.5-2l0,0c-0.5-0.1-0.7-0.6-0.8-1c-0.2-1.3-0.2-4.9-0.2-5.5
					c0,0,0-0.1-0.1-0.1h-5.7c0,0-0.1,0-0.1,0.1c0,0.6,0,4.1-0.2,5.5c-0.1,0.5-0.3,0.9-0.8,1l0,0l-6.5,2c-0.6,0.2-1.2,0.5-1.7,0.8
					c-2.6,1.9-2.7,5.1-2.8,5.7c0,0.1,0,0.1,0.1,0.1h14.8h14.8c0.1,0,0.1,0,0.1-0.1C37.4,42.1,37.3,39.1,34.9,37.2z"/>
				<g>
					<path class="st4" d="M25.5,30.6c0-1.2,0-2.4,0-2.7c0,0,0-0.1-0.1-0.1h-5.7c0,0-0.1,0-0.1,0.1c0,0.3,0,1.5,0,2.7
						C21.5,31.3,23.6,31.3,25.5,30.6z"/>
				</g>
				<g>
					<path class="st3" d="M15.7,20.2c0.5,1.2,0.2,3.1-0.7,3.5c-0.9,0.4-2-0.9-2.5-2.2c-0.5-1.2-0.2-2.5,0.7-2.9
						C14.1,18.3,15.2,19,15.7,20.2z"/>
					<path class="st3" d="M29.4,20.2c-0.5,1.2-0.2,3.1,0.7,3.5c0.9,0.4,2-0.9,2.5-2.2c0.5-1.2,0.2-2.5-0.7-2.9
						C31.1,18.3,30,19,29.4,20.2z"/>
				</g>
				<path class="st3" d="M22.6,8.2c-8.7-0.3-8.9,8-8.7,10.7c0.1,2,0.9,4.9,1.3,6.3c0.2,0.8,0.7,1.6,1.3,2.2c2.3,2.2,6.1,2.9,6.1,2.9
					s3.9-0.7,6.1-2.9c0.6-0.6,1.1-1.4,1.3-2.2c0.4-1.4,1.2-4.3,1.3-6.3C31.4,16.2,31.3,7.9,22.6,8.2z"/>
				<circle class="st5" cx="16.7" cy="22.9" r="1.3"/>
				<circle class="st5" cx="27.9" cy="22.9" r="1.3"/>
				<g>
					<path class="st6" d="M17.9,18.5c0.7,0,1.3,0.6,1.3,1.2c0,0.7-0.6,1.2-1.3,1.2c-0.7,0-1.3-0.9-1.3-1.5
						C16.6,18.7,17.2,18.5,17.9,18.5z"/>
					<path class="st6" d="M27.2,18.5c0.7,0,1.3,0.2,1.3,0.9c0,0.7-0.6,1.5-1.3,1.5s-1.3-0.6-1.3-1.2C25.9,19.1,26.5,18.5,27.2,18.5z
						"/>
				</g>
			</g>
			<linearGradient id="SVGID_4_" gradientUnits="userSpaceOnUse" x1="22.567" y1="10.5999" x2="22.567" y2="17.3966">
				<stop  offset="0.1457" style="stop-color:#423A40"/>
				<stop  offset="1" style="stop-color:#665F72"/>
			</linearGradient>
			<path class="st7" d="M22.6,8c-3.1-1.2-11.9,3.8-9.5,11.9l0,0c4.6,0,8.2-7.1,9.5-8.4c1.3,1.3,5.8,8.4,9.5,8.4l0,0
				C34.5,11.7,25.7,6.8,22.6,8z"/>
			<g>
				<path class="st8" d="M19.5,32.4c0,0.3,0,0.5-0.1,0.7c-0.1,0.5-0.3,0.9-0.8,1l-6.5,2c-0.6,0.2-1.2,0.5-1.7,0.8
					c-2.6,1.9-2.7,5.1-2.8,5.7c0,0.1,0,0.1,0.1,0.1h14.8h14.8c0.1,0,0.1,0,0.1-0.1c-0.1-0.6-0.1-3.6-2.6-5.5c-0.6-0.5-1.2-0.8-1.9-1
					l-6.5-2c-0.5-0.1-0.7-0.6-0.8-1c0-0.2-0.1-0.4-0.1-0.7c-1,0.1-2,0.1-3.1,0.1C21.5,32.6,20.5,32.5,19.5,32.4z"/>
			</g>
			<g>
				<g>
					<path class="st9" d="M20.3,25.2c0.4,0.9,1.2,1.4,2.2,1.4c1,0,1.8-0.6,2.2-1.4H20.3z"/>
				</g>
			</g>
		</g>
		<g>
			<linearGradient id="SVGID_5_" gradientUnits="userSpaceOnUse" x1="14.0814" y1="28.6302" x2="14.0814" y2="37.3546">
				<stop  offset="0.1457" style="stop-color:#423A40"/>
				<stop  offset="1" style="stop-color:#665F72"/>
			</linearGradient>
			<path class="st10" d="M14.5,24.3c-0.2-0.4-0.8-0.2-0.8,0.2c-0.1,0.9-0.3,1.7-0.6,2.5c-0.5,1.3-1.1,2.5-1.5,3.9
				c-1.1,4,0.8,8.8,4.2,10.6c0.3-1.9,0.6-3.3,0.9-5.2C17.2,31.9,16.5,27.9,14.5,24.3z"/>
			<linearGradient id="SVGID_6_" gradientUnits="userSpaceOnUse" x1="31.0525" y1="28.6302" x2="31.0525" y2="37.3546">
				<stop  offset="0.1457" style="stop-color:#423A40"/>
				<stop  offset="1" style="stop-color:#665F72"/>
			</linearGradient>
			<path class="st11" d="M30.7,24.3c0.2-0.4,0.8-0.2,0.8,0.2c0.1,0.9,0.3,1.7,0.6,2.5c0.5,1.3,1.1,2.5,1.5,3.9
				c1.1,4-0.8,8.8-4.2,10.6c-0.3-1.9-0.6-3.3-0.9-5.2C27.9,31.9,28.7,27.9,30.7,24.3z"/>
		</g>
	</g>
</g>
</svg>
