<!-- Generator: Adobe Illustrator 21.0.2, SVG Export Plug-In  -->
<svg version="1.1"
	 xmlns="http://www.w3.org/2000/svg" xmlns:xlink="http://www.w3.org/1999/xlink" xmlns:a="http://ns.adobe.com/AdobeSVGViewerExtensions/3.0/"
	 x="0px" y="0px" width="74.5px" height="138.5px" viewBox="0 0 74.5 138.5" style="enable-background:new 0 0 74.5 138.5;"
	 xml:space="preserve">
<style type="text/css">
	.st0{fill:#FFFFFF;}
	.st1{fill-rule:evenodd;clip-rule:evenodd;fill:#417A8C;}
</style>
<defs>
</defs>
<rect x="4.5" y="3.4" class="st0" width="65.9" height="132"/>
<path class="st1" d="M70.3,122.7L70.3,122.7H4.6V16.2h65.8V122.7z M17.2,6.9L17.2,6.9C12.7,6.9,22,6.9,17.2,6.9L17.2,6.9z M30.5,6.1
	L30.5,6.1H44c0.4,0,0.8,0.4,0.8,0.8c0,0.6-0.4,1-0.8,1H30.5C29.5,7.9,29.5,6.1,30.5,6.1L30.5,6.1z M26.2,127L26.2,127h21
	c2,0,3.8,2,3.8,4c0,2.6-1.8,4.4-3.8,4.4h-21c-2,0-3.8-1.8-3.8-4.4C22.4,129,24.2,127,26.2,127L26.2,127z M64.6,0H10.3
	C4.6,0,0,4.6,0,10.3v118.3c0,5.5,4.6,9.9,10.3,9.9h54.3c5.4,0,9.9-4.4,9.9-9.9V10.3C74.5,4.6,69.9,0,64.6,0L64.6,0z"/>
</svg>
