<!-- Generator: Adobe Illustrator 21.0.0, SVG Export Plug-In  -->
<svg version="1.1"
	 xmlns="http://www.w3.org/2000/svg" xmlns:xlink="http://www.w3.org/1999/xlink" xmlns:a="http://ns.adobe.com/AdobeSVGViewerExtensions/3.0/"
	 x="0px" y="0px" width="76.7px" height="76.7px" viewBox="0 0 76.7 76.7" style="enable-background:new 0 0 76.7 76.7;"
	 xml:space="preserve">
<style type="text/css">
	.st0{fill:#F5F7FA;}
	.st1{fill:#A2E0E2;}
</style>
<defs>
</defs>
<g id="_x33__1_">
	<g>
		
			<ellipse transform="matrix(0.9985 -5.428404e-02 5.428404e-02 0.9985 -2.0256 2.1387)" class="st0" cx="38.4" cy="38.4" rx="38.4" ry="38.4"/>
		<path class="st1" d="M36.4,1.6C16,2.7,0.5,20,1.6,40.4C2.7,60.7,20,76.3,40.4,75.2c20.3-1.1,35.9-18.5,34.8-38.8
			C74.1,16,56.7,0.5,36.4,1.6z M69.8,35.2l-13.2,0.7c-0.5-5.9-1.9-10.8-3.8-14.9c3.2-1.4,5.9-3,8.2-4.8
			C65.9,21.3,69.1,27.8,69.8,35.2z M38.1,7.9c2.6,1.7,7.2,5.4,10.8,11.6c-2.9,1-6.3,1.7-10,2L38.1,7.9z M41.6,6.9
			c6.6,0.7,12.6,3.3,17.4,7.5c-2.1,1.5-4.5,3-7.4,4.2C48.4,12.9,44.5,9.1,41.6,6.9z M29.6,14.2c1.9-2.6,3.8-4.6,5.3-5.8
			c0.1-0.1,0.2-0.2,0.4-0.3L36,21.7c-3.8,0.1-7.1-0.3-10.2-0.9C27,18.2,28.3,16,29.6,14.2z M23.1,20.1c-3-0.9-5.6-2.1-7.8-3.4
			c4.3-4.6,10-7.9,16.5-9.3C29.1,10,25.6,14.1,23.1,20.1z M36.2,24.5L36.9,37l-14.1,0.8c-0.1-5.6,0.7-10.4,2.1-14.3
			C28.2,24.2,32,24.7,36.2,24.5z M37,39.8l0.7,12.5c-4.2,0.3-7.9,1.2-11.2,2.3c-1.8-3.8-3.2-8.5-3.6-14L37,39.8z M37.9,55.2
			l0.7,13.7c-2.6-1.7-7.2-5.4-10.8-11.6C30.8,56.2,34.1,55.5,37.9,55.2z M35.2,69.8c-6.6-0.7-12.6-3.3-17.4-7.5
			c2.1-1.5,4.5-3,7.4-4.2C28.3,63.8,32.2,67.6,35.2,69.8z M47.1,62.6c-1.9,2.6-3.8,4.6-5.3,5.8c-0.1,0.1-0.2,0.2-0.4,0.3L40.7,55
			c3.8-0.1,7.2,0.3,10.2,0.9C49.7,58.5,48.4,60.7,47.1,62.6z M53.6,56.6c3,0.9,5.6,2.1,7.8,3.4c-4.3,4.6-10,7.9-16.5,9.3
			C47.6,66.7,51.1,62.6,53.6,56.6z M40.5,52.2l-0.7-12.5L54,38.9c0.1,5.6-0.7,10.4-2.1,14.3C48.5,52.5,44.7,52.1,40.5,52.2z
			 M39.7,36.9L39,24.4c4.2-0.3,7.9-1.2,11.2-2.3c1.8,3.8,3.2,8.5,3.6,14L39.7,36.9z M13.4,18.9c2.4,1.5,5.3,2.8,8.7,3.8
			c-1.4,4.3-2.3,9.3-2.2,15.2L6.7,38.7C6.6,31.2,9.1,24.4,13.4,18.9z M6.9,41.5l13.2-0.7c0.5,5.9,1.9,10.8,3.8,14.9
			c-3.2,1.4-5.9,3-8.2,4.8C10.8,55.4,7.6,48.9,6.9,41.5z M63.3,57.8C60.8,56.4,58,55,54.6,54c1.4-4.3,2.3-9.3,2.2-15.2L70,38.1
			C70.1,45.5,67.6,52.4,63.3,57.8z"/>
		<g>
			<path class="st0" d="M13.5,66.1C6.4,59.7,1.7,50.7,1.2,40.4l0,0c-0.6-10.3,3.1-19.8,9.5-26.9l0,0C17,6.4,26.1,1.7,36.3,1.2l0,0
				c10.3-0.6,19.8,3.1,26.9,9.5l0,0C70.3,17,75,26.1,75.5,36.3l0,0c0.6,10.3-3.1,19.8-9.5,26.9l0,0L65.8,63l0.3,0.3
				C59.7,70.3,50.7,75,40.4,75.5l0,0C30.1,76.1,20.6,72.4,13.5,66.1L13.5,66.1z M11.2,14C5,21,1.4,30.3,1.9,40.3l0,0
				C2.5,50.4,7.1,59.3,14,65.5l0,0c7,6.2,16.3,9.8,26.3,9.3l0,0c10.1-0.5,18.9-5.1,25.2-12.1l0,0l0,0c6.2-7,9.8-16.3,9.3-26.3l0,0
				c-0.5-10.1-5.1-18.9-12.1-25.2l0,0c-7-6.2-16.3-9.8-26.3-9.3l0,0C26.3,2.5,17.4,7.1,11.2,14L11.2,14z"/>
		</g>
	</g>
</g>
</svg>
