<!-- Generator: Adobe Illustrator 21.0.0, SVG Export Plug-In  -->
<svg version="1.1"
	 xmlns="http://www.w3.org/2000/svg" xmlns:xlink="http://www.w3.org/1999/xlink" xmlns:a="http://ns.adobe.com/AdobeSVGViewerExtensions/3.0/"
	 x="0px" y="0px" width="289.3px" height="270.3px" viewBox="0 0 289.3 270.3" style="enable-background:new 0 0 289.3 270.3;"
	 xml:space="preserve">
<style type="text/css">
	.st0{fill:none;stroke:#FFFFFF;stroke-width:2.8215;stroke-linecap:round;stroke-linejoin:round;stroke-dasharray:0,10.3753;}
	.st1{fill:#B83336;}
	.st2{fill:#FFFFFF;}
	.st3{fill:#3B5998;}
</style>
<defs>
</defs>
<g>
	<g>
		<circle class="st0" cx="141.6" cy="135.2" r="133.7"/>
	</g>
	<g>
		<path class="st1" d="M271.1,81.7c0.8-0.6,1.6-1.2,2.3-1.9c0.7-0.7,1.3-1.5,1.8-2.4l0.4,0.1l2.7,0.7l0.7-2.7l0.7-2.7l0.7-2.7
			l-2.7-0.7l-0.4-0.1c-0.1-1-0.5-2.1-0.7-3.1c-0.3-1-0.7-2-1.4-3l0.3-0.3l2.3-2.4l-1.6-1.5l-2-1.9l-2.6-2.4l-2.3,2.4l-0.3,0.3
			c-0.6-0.2-1.6-0.5-2.6-0.8c-1-0.2-1.8-0.2-2.8-0.2l-0.1-0.4l-0.8-2.7l-2.7,0.8l-2.7,0.8l-2.7,0.8l0.8,2.7l0.1,0.4
			c-0.8,0.6-1.6,1.2-2.3,1.9c-0.7,0.7-1.3,1.5-1.8,2.4l-0.4-0.1l-2.7-0.7l-0.7,2.7l-0.7,2.7l-0.7,2.7l2.7,0.7l0.4,0.1
			c0.1,1,0,1.7,0.3,2.6c0.3,1,0.7,1.9,0.9,2.6l-0.3,0.3l-1.8,1.9l2.6,2.4l2,1.9l1.6,1.5l1.8-1.9l0.3-0.3c1.1,0.6,2.1,1,3.1,1.2
			c1,0.2,2,0.4,3,0.5l0.2,0.5l0.8,2.7l2.7-0.8l2.7-0.8l2.7-0.8l-0.8-2.7L271.1,81.7z M257.8,76c-3.2-3-3.3-8.1-0.3-11.2
			c3-3.2,8.1-3.3,11.2-0.3c3.2,3,3.3,8.1,0.3,11.2C266,78.8,261,79,257.8,76z"/>
	</g>
	<g>
		
			<rect x="251.9" y="156.1" transform="matrix(1 3.089487e-03 -3.089487e-03 1 0.5414 -0.8351)" class="st2" width="37.4" height="37.4"/>
		
			<rect x="255" y="159.6" transform="matrix(1 3.086592e-03 -3.086592e-03 1 0.532 -0.8343)" class="st3" width="31.1" height="24.7"/>
		<polygon class="st2" points="286.1,184.3 255,184.2 264.6,168.9 270.6,176.6 276.2,171.9 		"/>
	</g>
	<g>
		<path class="st1" d="M6.1,58.7l28.5,0.1c3.6,0,6.1,1.7,6.1,4.9l-0.1,18.1c0,3.2-2.7,7.7-6.1,7.7L6,89.3c-3.5,0-6-4.5-6-7.7
			l0.1-18.1C0.1,60.2,2.7,58.6,6.1,58.7z"/>
		<path class="st2" d="M26.1,75.5l-8.3,4.6c-1.3,0.7-3-0.2-3-1.8l0.2-9.5c0-1.5,1.7-2.5,3-1.7l8.1,4.9
			C27.5,72.9,27.4,74.8,26.1,75.5z"/>
	</g>
	<path class="st1" d="M36.3,185.4c-4.6-4-11.5,2.2-11.5,5.3c0-3.1-6.9-9.3-11.5-5.3c-6.9,6,1.7,18.4,11.5,24.3
		C34.5,203.8,43.2,191.4,36.3,185.4z"/>
</g>
</svg>
