<!-- Generator: Adobe Illustrator 21.0.0, SVG Export Plug-In  -->
<svg version="1.1"
	 xmlns="http://www.w3.org/2000/svg" xmlns:xlink="http://www.w3.org/1999/xlink" xmlns:a="http://ns.adobe.com/AdobeSVGViewerExtensions/3.0/"
	 x="0px" y="0px" width="439.9px" height="433.6px" viewBox="0 0 439.9 433.6" style="enable-background:new 0 0 439.9 433.6;"
	 xml:space="preserve">
<style type="text/css">
	.st0{fill:none;stroke:#FFFFFF;stroke-width:4;stroke-linecap:round;stroke-linejoin:round;stroke-dasharray:0,10.9887;}
	.st1{fill:#3B5998;}
	.st2{fill:#FFBF0D;}
	.st3{fill:#B83336;}
	.st4{fill:#FFFFFF;}
	.st5{clip-path:url(#SVGID_2_);fill:#3B5998;}
	.st6{clip-path:url(#SVGID_4_);fill:#3B5998;}
</style>
<defs>
</defs>
<g>
	<g>
		<circle class="st0" cx="217.3" cy="219.7" r="201.1"/>
	</g>
	<path class="st1" d="M41.1,176.2c0-3.7-2.5-7.1-6-8.2l-1.3-0.4l-0.1-1.3c-0.3-6.1-5.3-10.8-11.4-10.8c-5.4,0-10.1,3.9-11.2,9.2
		l-0.3,1.3l-1.3,0.2c-4.5,0.7-7.9,4.7-7.9,9.3c0,5.2,4.2,9.4,9.4,9.4h21.4C37.2,184.8,41.1,181,41.1,176.2z"/>
	<polygon class="st2" points="229.6,433.5 217.4,427.1 205.2,433.6 207.5,420 197.6,410.4 211.2,408.3 217.3,395.9 223.5,408.3 
		237.1,410.2 227.3,419.9 	"/>
	<g>
		<path class="st3" d="M338.4,31.3c-10.9-0.2-19.8,8.5-20,19.4c-0.2,13.9,19.2,33,19.2,33s19.9-17.5,20.1-32.5
			C357.9,40.4,349.2,31.5,338.4,31.3z"/>
		
			<ellipse transform="matrix(1.458964e-02 -0.9999 0.9999 1.458964e-02 282.1771 388.274)" class="st4" cx="338.1" cy="51" rx="9.8" ry="9.8"/>
	</g>
	<g>
		<rect y="269.8" class="st4" width="42.8" height="28.1"/>
		<polygon class="st2" points="21.5,288.8 42.8,269.8 0,269.8 		"/>
	</g>
	<g>
		<path class="st1" d="M86.5,389.7h32.4c-0.2-9-4.6-11.9-10.7-14.2c3.5-1.9,5.9-5.3,5.9-9.6c0-6.3-5.1-11.3-11.4-11.3
			c-6.3,0-11.4,5.2-11.4,11.5c0,4.3,2.4,7.4,5.9,9.3C91,377.7,86.6,380.7,86.5,389.7z"/>
		<g>
			<path class="st4" d="M71.3,395.7h36.9c-0.2-6-5.2-14.2-12.2-16.7c4-2.2,6.8-6.3,6.8-11.2c0-7.2-5.8-13-13-13c-7.2,0-13,5.9-13,13
				c0,4.9,2.7,8.9,6.8,11.1C76.5,381.5,71.5,389.7,71.3,395.7z"/>
		</g>
	</g>
	<g>
		<path class="st3" d="M106.6,69.8v-4.3h9.7c4.1,0,7.6-2.9,7.6-7V40.4c0-4.1-3.5-6.5-7.6-6.5H84.7c-4.1,0-6.8,2.4-6.8,6.5v18.1
			c0,4.1,2.7,7,6.8,7h8.4l5.9,4.3H106.6z"/>
		<g>
			<path class="st1" d="M104.9,40.7H73.2c-4.1,0-6.9,1.4-6.9,5.5v18.1c0,4.1,2.8,9.4,6.9,9.4h13.1v7.5l10.1-7.5h8.4
				c4.1,0,7.4-5.3,7.4-9.4V46.1C112.3,42,108.9,40.7,104.9,40.7z"/>
		</g>
	</g>
	<g>
		<circle class="st4" cx="416.5" cy="169.7" r="23.4"/>
		<g>
			<defs>
				<circle id="SVGID_1_" cx="416.5" cy="169.7" r="23.4"/>
			</defs>
			<clipPath id="SVGID_2_">
				<use xlink:href="#SVGID_1_"  style="overflow:visible;"/>
			</clipPath>
			<path class="st5" d="M386.3,163.9c8,1,9.1,6.7,13.1,0c4-6.7,11.2-8.7,13.2-5.3c2,3.3-5,8.7-7,12c-2,3.3,8.8,4.7,4.8,8.7
				c-4,4-1.7,18.6-1.7,18.6l-22.3-13.5V163.9z"/>
			<path class="st5" d="M425.7,149.3c-4.7,3.3-7.3,10.7-2.7,14.6c4.7,4,2.9,7.8,0.1,10.2c-2.8,2.4-0.3,11.3,2.8,10.2
				c3.1-1.1,3.8-10,5.8-15.9c2-5.9,4.7-19.2,4.7-19.2l-7.9-9.6L425.7,149.3z"/>
		</g>
	</g>
	<g>
		<path class="st4" d="M363.6,397.9c5.4-1.3,5.7-4.6,5.5-6.4c-0.1-0.6,0.3-1.1,0.8-1.2c2.9-0.8,3-4.7,2.1-6.6
			c-0.3-0.5,0-1.2,0.5-1.4c2.1-1.2,2.3-4.5,1.5-6.1c-0.2-0.5-0.1-1,0.3-1.3c2.3-1.9,2.5-8.2-2.1-8.2h-11.8c-2.3,0-3.8-2.5-2.6-4.5
			c1.4-2.5,2.4-5.2,3.4-8.3c1.6-5.1-4.2-8.2-7.2-3.4c-3,4.7-5.2,10.2-8.2,13.1c-2.4,2.3-10.4,7-10.4,7.2V390c0,0.5,0.4,1,0.9,1.1
			l6.9,1.1c0.2,0,0.3,0.1,0.4,0.2C351.6,397.5,358.6,399.2,363.6,397.9z"/>
		<path class="st1" d="M336.3,396.6h-13.7c-1.5,0-2.6-1.2-2.6-2.6v-27.1c0-1.5,1.2-2.6,2.6-2.6h13.7c1.5,0,2.6,1.2,2.6,2.6v27.1
			C338.9,395.4,337.8,396.6,336.3,396.6z"/>
		<circle class="st4" cx="329.2" cy="388.9" r="3.3"/>
	</g>
	<path class="st4" d="M194.8,37.6c-5.9-22.3,12.4-29.8,27.4-29.8V0l18.8,16.2l-18.8,15.5c0,0,0-5.3,0-7.9
		C211.3,23.8,194.8,23.5,194.8,37.6z"/>
	<g>
		<rect x="400.7" y="278" class="st4" width="7" height="35.6"/>
		<polygon class="st2" points="433.3,296.4 400.4,296.4 400.4,274.9 433.3,274.9 425,285.6 		"/>
	</g>
</g>
</svg>
